G04 #@! TF.GenerationSoftware,KiCad,Pcbnew,9.0.5*
G04 #@! TF.CreationDate,2026-01-25T09:53:04-06:00*
G04 #@! TF.ProjectId,MotorBoard,4d6f746f-7242-46f6-9172-642e6b696361,v7.1*
G04 #@! TF.SameCoordinates,Original*
G04 #@! TF.FileFunction,Soldermask,Top*
G04 #@! TF.FilePolarity,Negative*
%FSLAX46Y46*%
G04 Gerber Fmt 4.6, Leading zero omitted, Abs format (unit mm)*
G04 Created by KiCad (PCBNEW 9.0.5) date 2026-01-25 09:53:04*
%MOMM*%
%LPD*%
G01*
G04 APERTURE LIST*
G04 Aperture macros list*
%AMRoundRect*
0 Rectangle with rounded corners*
0 $1 Rounding radius*
0 $2 $3 $4 $5 $6 $7 $8 $9 X,Y pos of 4 corners*
0 Add a 4 corners polygon primitive as box body*
4,1,4,$2,$3,$4,$5,$6,$7,$8,$9,$2,$3,0*
0 Add four circle primitives for the rounded corners*
1,1,$1+$1,$2,$3*
1,1,$1+$1,$4,$5*
1,1,$1+$1,$6,$7*
1,1,$1+$1,$8,$9*
0 Add four rect primitives between the rounded corners*
20,1,$1+$1,$2,$3,$4,$5,0*
20,1,$1+$1,$4,$5,$6,$7,0*
20,1,$1+$1,$6,$7,$8,$9,0*
20,1,$1+$1,$8,$9,$2,$3,0*%
G04 Aperture macros list end*
%ADD10O,1.700000X1.700000*%
%ADD11R,1.700000X1.700000*%
%ADD12R,1.778000X1.778000*%
%ADD13C,1.778000*%
%ADD14RoundRect,0.250000X-1.330000X-1.850000X1.330000X-1.850000X1.330000X1.850000X-1.330000X1.850000X0*%
%ADD15O,3.160000X4.200000*%
%ADD16RoundRect,0.250000X1.330000X1.850000X-1.330000X1.850000X-1.330000X-1.850000X1.330000X-1.850000X0*%
%ADD17RoundRect,0.250000X-0.475000X0.250000X-0.475000X-0.250000X0.475000X-0.250000X0.475000X0.250000X0*%
%ADD18RoundRect,0.200000X0.275000X-0.200000X0.275000X0.200000X-0.275000X0.200000X-0.275000X-0.200000X0*%
%ADD19C,1.700000*%
%ADD20RoundRect,0.250000X-0.250000X-0.475000X0.250000X-0.475000X0.250000X0.475000X-0.250000X0.475000X0*%
%ADD21RoundRect,0.225000X0.225000X0.250000X-0.225000X0.250000X-0.225000X-0.250000X0.225000X-0.250000X0*%
%ADD22RoundRect,0.225000X-0.225000X-0.250000X0.225000X-0.250000X0.225000X0.250000X-0.225000X0.250000X0*%
%ADD23R,1.750000X0.950000*%
%ADD24R,1.750000X3.200000*%
%ADD25RoundRect,0.200000X-0.200000X-0.275000X0.200000X-0.275000X0.200000X0.275000X-0.200000X0.275000X0*%
%ADD26RoundRect,0.250000X0.475000X-0.250000X0.475000X0.250000X-0.475000X0.250000X-0.475000X-0.250000X0*%
%ADD27RoundRect,0.250000X1.000000X-1.950000X1.000000X1.950000X-1.000000X1.950000X-1.000000X-1.950000X0*%
%ADD28RoundRect,0.200000X-0.275000X0.200000X-0.275000X-0.200000X0.275000X-0.200000X0.275000X0.200000X0*%
%ADD29R,1.050000X0.500000*%
%ADD30C,4.318000*%
%ADD31R,3.200000X5.100000*%
%ADD32C,1.100000*%
%ADD33R,1.650000X1.650000*%
%ADD34C,1.650000*%
%ADD35R,1.000000X3.150000*%
%ADD36R,0.650000X1.525000*%
%ADD37R,3.100000X2.400000*%
%ADD38R,0.650000X1.528000*%
%ADD39R,0.800000X0.800000*%
%ADD40R,1.020000X2.160000*%
%ADD41R,10.000000X6.990000*%
%ADD42RoundRect,0.250000X1.400000X1.000000X-1.400000X1.000000X-1.400000X-1.000000X1.400000X-1.000000X0*%
%ADD43RoundRect,0.250000X-1.800000X1.330000X-1.800000X-1.330000X1.800000X-1.330000X1.800000X1.330000X0*%
%ADD44O,4.100000X3.160000*%
G04 APERTURE END LIST*
D10*
X123063000Y-45466000D03*
X120523000Y-45466000D03*
X117983000Y-45466000D03*
X115443000Y-45466000D03*
X115443000Y-42926000D03*
X117983000Y-42926000D03*
X120523000Y-42926000D03*
D11*
X123063000Y-42926000D03*
D12*
X108204000Y-109347000D03*
D13*
X110744000Y-109347000D03*
X113284000Y-109347000D03*
X115824000Y-109347000D03*
D12*
X108204000Y-106807000D03*
D13*
X110744000Y-106807000D03*
X113284000Y-106807000D03*
X115824000Y-106807000D03*
D14*
X87861000Y-39116000D03*
D15*
X91821000Y-39116000D03*
D16*
X92075000Y-113157000D03*
D15*
X88115000Y-113157000D03*
D17*
X100457000Y-72616000D03*
X100457000Y-74516000D03*
D18*
X127762000Y-41656000D03*
X127762000Y-40006000D03*
D11*
X75184000Y-36700000D03*
D10*
X75184000Y-39240000D03*
D19*
X57785000Y-117475000D03*
D10*
X60325000Y-117475000D03*
D20*
X138811000Y-44196000D03*
X140711000Y-44196000D03*
D21*
X67577000Y-53086000D03*
X66027000Y-53086000D03*
D22*
X70612000Y-45720000D03*
X72162000Y-45720000D03*
D23*
X136398000Y-48796000D03*
X136398000Y-46496000D03*
X136398000Y-44196000D03*
D24*
X130098000Y-46496000D03*
D23*
X106553000Y-73886000D03*
X106553000Y-76186000D03*
X106553000Y-78486000D03*
D24*
X112853000Y-76186000D03*
D25*
X111126000Y-113284000D03*
X112776000Y-113284000D03*
X62294000Y-107442000D03*
X63944000Y-107442000D03*
D26*
X112395000Y-99182000D03*
X112395000Y-97282000D03*
D27*
X82423000Y-72136000D03*
X82423000Y-63736000D03*
D11*
X145415000Y-78486000D03*
D10*
X145415000Y-75946000D03*
X145415000Y-73406000D03*
D19*
X130810000Y-35433000D03*
D10*
X133350000Y-35433000D03*
D28*
X112395000Y-93472000D03*
X112395000Y-95122000D03*
D19*
X95885000Y-113157000D03*
D29*
X78481000Y-115697000D03*
X76205000Y-115697000D03*
D11*
X145415000Y-99949000D03*
D10*
X145415000Y-97409000D03*
D19*
X138557000Y-93091000D03*
X51557000Y-117475000D03*
D10*
X54097000Y-117475000D03*
D30*
X144000000Y-41000000D03*
D31*
X65338000Y-85598000D03*
X75438000Y-85598000D03*
D30*
X144000000Y-111000000D03*
X54000000Y-41000000D03*
D26*
X100330000Y-79342000D03*
X100330000Y-77442000D03*
D32*
X67310000Y-34798000D03*
X64770000Y-34798000D03*
D33*
X67310000Y-37338000D03*
D34*
X64770000Y-37338000D03*
D35*
X81280000Y-100300000D03*
X81280000Y-95250000D03*
X83820000Y-100300000D03*
X83820000Y-95250000D03*
X86360000Y-100300000D03*
X86360000Y-95250000D03*
X88900000Y-100300000D03*
X88900000Y-95250000D03*
X91440000Y-100300000D03*
X91440000Y-95250000D03*
X93980000Y-100300000D03*
X93980000Y-95250000D03*
X96520000Y-100300000D03*
X96520000Y-95250000D03*
X99060000Y-100300000D03*
X99060000Y-95250000D03*
X101600000Y-100300000D03*
X101600000Y-95250000D03*
X104140000Y-100300000D03*
X104140000Y-95250000D03*
D19*
X128524000Y-117475000D03*
D10*
X131064000Y-117475000D03*
D30*
X54000000Y-111000000D03*
D25*
X74042000Y-43053000D03*
X75692000Y-43053000D03*
D32*
X64770000Y-117475000D03*
X67310000Y-117475000D03*
D33*
X64770000Y-114935000D03*
D34*
X67310000Y-114935000D03*
D36*
X118999000Y-93726000D03*
X117729000Y-93726000D03*
X116459000Y-93726000D03*
X115189000Y-93726000D03*
X115189000Y-99150000D03*
X116459000Y-99150000D03*
X117729000Y-99150000D03*
X118999000Y-99150000D03*
D37*
X117094000Y-96438000D03*
D19*
X84201000Y-113157000D03*
D11*
X52070000Y-81021000D03*
D10*
X52070000Y-83561000D03*
D18*
X121920000Y-58546000D03*
X121920000Y-56896000D03*
D38*
X64643000Y-50761000D03*
X65913000Y-50761000D03*
X67183000Y-50761000D03*
X68453000Y-50761000D03*
X68453000Y-45339000D03*
X67183000Y-45339000D03*
X65913000Y-45339000D03*
X64643000Y-45339000D03*
D25*
X127700000Y-109982000D03*
X129350000Y-109982000D03*
D19*
X136525000Y-117475000D03*
D10*
X139065000Y-117475000D03*
D11*
X145415000Y-52070000D03*
D10*
X145415000Y-49530000D03*
D35*
X81280000Y-57120000D03*
X81280000Y-52070000D03*
X83820000Y-57120000D03*
X83820000Y-52070000D03*
X86360000Y-57120000D03*
X86360000Y-52070000D03*
X88900000Y-57120000D03*
X88900000Y-52070000D03*
X91440000Y-57120000D03*
X91440000Y-52070000D03*
X93980000Y-57120000D03*
X93980000Y-52070000D03*
X96520000Y-57120000D03*
X96520000Y-52070000D03*
X99060000Y-57120000D03*
X99060000Y-52070000D03*
X101600000Y-57120000D03*
X101600000Y-52070000D03*
X104140000Y-57120000D03*
X104140000Y-52070000D03*
D19*
X81026000Y-116586000D03*
X141097000Y-78486000D03*
X95631000Y-39116000D03*
D36*
X115189000Y-58293000D03*
X116459000Y-58293000D03*
X117729000Y-58293000D03*
X118999000Y-58293000D03*
X118999000Y-52869000D03*
X117729000Y-52869000D03*
X116459000Y-52869000D03*
X115189000Y-52869000D03*
D37*
X117094000Y-55581000D03*
D11*
X51430000Y-104140000D03*
D10*
X53970000Y-104140000D03*
D39*
X67500000Y-107442000D03*
X65850000Y-107442000D03*
D19*
X131445000Y-40386000D03*
D29*
X78481000Y-110490000D03*
X76205000Y-110490000D03*
D19*
X83947000Y-39116000D03*
D20*
X138811000Y-48768000D03*
X140711000Y-48768000D03*
D26*
X141224000Y-75433000D03*
X141224000Y-73533000D03*
D17*
X121920000Y-52837000D03*
X121920000Y-54737000D03*
D40*
X66958000Y-76285000D03*
X68658000Y-76285000D03*
X70358000Y-76285000D03*
X72058000Y-76285000D03*
X73758000Y-76285000D03*
D41*
X70358000Y-65610000D03*
D27*
X57277000Y-72027000D03*
X57277000Y-63627000D03*
D42*
X58039000Y-85032000D03*
X58039000Y-78232000D03*
D11*
X73025000Y-110490000D03*
D10*
X73025000Y-113030000D03*
X73025000Y-115570000D03*
D39*
X133286000Y-109982000D03*
X131636000Y-109982000D03*
D11*
X145415000Y-87630000D03*
D10*
X145415000Y-85090000D03*
D43*
X56769000Y-91313000D03*
D44*
X56769000Y-95273000D03*
M02*
