G04 #@! TF.GenerationSoftware,KiCad,Pcbnew,9.0.5*
G04 #@! TF.CreationDate,2026-01-25T09:53:04-06:00*
G04 #@! TF.ProjectId,MotorBoard,4d6f746f-7242-46f6-9172-642e6b696361,v7.1*
G04 #@! TF.SameCoordinates,Original*
G04 #@! TF.FileFunction,Copper,L1,Top*
G04 #@! TF.FilePolarity,Positive*
%FSLAX46Y46*%
G04 Gerber Fmt 4.6, Leading zero omitted, Abs format (unit mm)*
G04 Created by KiCad (PCBNEW 9.0.5) date 2026-01-25 09:53:04*
%MOMM*%
%LPD*%
G01*
G04 APERTURE LIST*
G04 Aperture macros list*
%AMRoundRect*
0 Rectangle with rounded corners*
0 $1 Rounding radius*
0 $2 $3 $4 $5 $6 $7 $8 $9 X,Y pos of 4 corners*
0 Add a 4 corners polygon primitive as box body*
4,1,4,$2,$3,$4,$5,$6,$7,$8,$9,$2,$3,0*
0 Add four circle primitives for the rounded corners*
1,1,$1+$1,$2,$3*
1,1,$1+$1,$4,$5*
1,1,$1+$1,$6,$7*
1,1,$1+$1,$8,$9*
0 Add four rect primitives between the rounded corners*
20,1,$1+$1,$2,$3,$4,$5,0*
20,1,$1+$1,$4,$5,$6,$7,0*
20,1,$1+$1,$6,$7,$8,$9,0*
20,1,$1+$1,$8,$9,$2,$3,0*%
G04 Aperture macros list end*
G04 #@! TA.AperFunction,Conductor*
%ADD10C,0.200000*%
G04 #@! TD*
G04 #@! TA.AperFunction,ComponentPad*
%ADD11O,1.700000X1.700000*%
G04 #@! TD*
G04 #@! TA.AperFunction,ComponentPad*
%ADD12R,1.700000X1.700000*%
G04 #@! TD*
G04 #@! TA.AperFunction,ComponentPad*
%ADD13R,1.778000X1.778000*%
G04 #@! TD*
G04 #@! TA.AperFunction,ComponentPad*
%ADD14C,1.778000*%
G04 #@! TD*
G04 #@! TA.AperFunction,ComponentPad*
%ADD15RoundRect,0.250000X-1.330000X-1.850000X1.330000X-1.850000X1.330000X1.850000X-1.330000X1.850000X0*%
G04 #@! TD*
G04 #@! TA.AperFunction,ComponentPad*
%ADD16O,3.160000X4.200000*%
G04 #@! TD*
G04 #@! TA.AperFunction,ComponentPad*
%ADD17RoundRect,0.250000X1.330000X1.850000X-1.330000X1.850000X-1.330000X-1.850000X1.330000X-1.850000X0*%
G04 #@! TD*
G04 #@! TA.AperFunction,SMDPad,CuDef*
%ADD18RoundRect,0.250000X-0.475000X0.250000X-0.475000X-0.250000X0.475000X-0.250000X0.475000X0.250000X0*%
G04 #@! TD*
G04 #@! TA.AperFunction,SMDPad,CuDef*
%ADD19RoundRect,0.200000X0.275000X-0.200000X0.275000X0.200000X-0.275000X0.200000X-0.275000X-0.200000X0*%
G04 #@! TD*
G04 #@! TA.AperFunction,ComponentPad*
%ADD20C,1.700000*%
G04 #@! TD*
G04 #@! TA.AperFunction,SMDPad,CuDef*
%ADD21RoundRect,0.250000X-0.250000X-0.475000X0.250000X-0.475000X0.250000X0.475000X-0.250000X0.475000X0*%
G04 #@! TD*
G04 #@! TA.AperFunction,SMDPad,CuDef*
%ADD22RoundRect,0.225000X0.225000X0.250000X-0.225000X0.250000X-0.225000X-0.250000X0.225000X-0.250000X0*%
G04 #@! TD*
G04 #@! TA.AperFunction,SMDPad,CuDef*
%ADD23RoundRect,0.225000X-0.225000X-0.250000X0.225000X-0.250000X0.225000X0.250000X-0.225000X0.250000X0*%
G04 #@! TD*
G04 #@! TA.AperFunction,SMDPad,CuDef*
%ADD24R,1.750000X0.950000*%
G04 #@! TD*
G04 #@! TA.AperFunction,SMDPad,CuDef*
%ADD25R,1.750000X3.200000*%
G04 #@! TD*
G04 #@! TA.AperFunction,SMDPad,CuDef*
%ADD26RoundRect,0.200000X-0.200000X-0.275000X0.200000X-0.275000X0.200000X0.275000X-0.200000X0.275000X0*%
G04 #@! TD*
G04 #@! TA.AperFunction,SMDPad,CuDef*
%ADD27RoundRect,0.250000X0.475000X-0.250000X0.475000X0.250000X-0.475000X0.250000X-0.475000X-0.250000X0*%
G04 #@! TD*
G04 #@! TA.AperFunction,SMDPad,CuDef*
%ADD28RoundRect,0.250000X1.000000X-1.950000X1.000000X1.950000X-1.000000X1.950000X-1.000000X-1.950000X0*%
G04 #@! TD*
G04 #@! TA.AperFunction,SMDPad,CuDef*
%ADD29RoundRect,0.200000X-0.275000X0.200000X-0.275000X-0.200000X0.275000X-0.200000X0.275000X0.200000X0*%
G04 #@! TD*
G04 #@! TA.AperFunction,SMDPad,CuDef*
%ADD30R,1.050000X0.500000*%
G04 #@! TD*
G04 #@! TA.AperFunction,ComponentPad*
%ADD31C,4.318000*%
G04 #@! TD*
G04 #@! TA.AperFunction,SMDPad,CuDef*
%ADD32R,3.200000X5.100000*%
G04 #@! TD*
G04 #@! TA.AperFunction,ComponentPad*
%ADD33R,1.650000X1.650000*%
G04 #@! TD*
G04 #@! TA.AperFunction,ComponentPad*
%ADD34C,1.650000*%
G04 #@! TD*
G04 #@! TA.AperFunction,SMDPad,CuDef*
%ADD35R,1.000000X3.150000*%
G04 #@! TD*
G04 #@! TA.AperFunction,SMDPad,CuDef*
%ADD36R,0.650000X1.525000*%
G04 #@! TD*
G04 #@! TA.AperFunction,SMDPad,CuDef*
%ADD37R,3.100000X2.400000*%
G04 #@! TD*
G04 #@! TA.AperFunction,SMDPad,CuDef*
%ADD38R,0.650000X1.528000*%
G04 #@! TD*
G04 #@! TA.AperFunction,SMDPad,CuDef*
%ADD39R,0.800000X0.800000*%
G04 #@! TD*
G04 #@! TA.AperFunction,SMDPad,CuDef*
%ADD40R,1.020000X2.160000*%
G04 #@! TD*
G04 #@! TA.AperFunction,SMDPad,CuDef*
%ADD41R,10.000000X6.990000*%
G04 #@! TD*
G04 #@! TA.AperFunction,SMDPad,CuDef*
%ADD42RoundRect,0.250000X1.400000X1.000000X-1.400000X1.000000X-1.400000X-1.000000X1.400000X-1.000000X0*%
G04 #@! TD*
G04 #@! TA.AperFunction,ComponentPad*
%ADD43RoundRect,0.250000X-1.800000X1.330000X-1.800000X-1.330000X1.800000X-1.330000X1.800000X1.330000X0*%
G04 #@! TD*
G04 #@! TA.AperFunction,ComponentPad*
%ADD44O,4.100000X3.160000*%
G04 #@! TD*
G04 #@! TA.AperFunction,ViaPad*
%ADD45C,0.800000*%
G04 #@! TD*
G04 #@! TA.AperFunction,ViaPad*
%ADD46C,2.540000*%
G04 #@! TD*
G04 #@! TA.AperFunction,Conductor*
%ADD47C,0.150000*%
G04 #@! TD*
G04 #@! TA.AperFunction,Conductor*
%ADD48C,0.500000*%
G04 #@! TD*
G04 #@! TA.AperFunction,Conductor*
%ADD49C,0.600000*%
G04 #@! TD*
G04 #@! TA.AperFunction,Conductor*
%ADD50C,1.000000*%
G04 #@! TD*
G04 APERTURE END LIST*
D10*
X52270172Y-76454000D02*
X60124828Y-76454000D01*
X60124828Y-80772000D01*
X52270172Y-80772000D01*
X52270172Y-76454000D01*
G04 #@! TA.AperFunction,Conductor*
G36*
X52270172Y-76454000D02*
G01*
X60124828Y-76454000D01*
X60124828Y-80772000D01*
X52270172Y-80772000D01*
X52270172Y-76454000D01*
G37*
G04 #@! TD.AperFunction*
X52252341Y-64452500D02*
X54991000Y-64452500D01*
X54991000Y-79383159D01*
X52252341Y-79383159D01*
X52252341Y-64452500D01*
G04 #@! TA.AperFunction,Conductor*
G36*
X52252341Y-64452500D02*
G01*
X54991000Y-64452500D01*
X54991000Y-79383159D01*
X52252341Y-79383159D01*
X52252341Y-64452500D01*
G37*
G04 #@! TD.AperFunction*
X52324000Y-61214000D02*
X84201000Y-61214000D01*
X84201000Y-67691000D01*
X52324000Y-67691000D01*
X52324000Y-61214000D01*
G04 #@! TA.AperFunction,Conductor*
G36*
X52324000Y-61214000D02*
G01*
X84201000Y-61214000D01*
X84201000Y-67691000D01*
X52324000Y-67691000D01*
X52324000Y-61214000D01*
G37*
G04 #@! TD.AperFunction*
D11*
X123063000Y-45466000D03*
X120523000Y-45466000D03*
X117983000Y-45466000D03*
X115443000Y-45466000D03*
X115443000Y-42926000D03*
X117983000Y-42926000D03*
X120523000Y-42926000D03*
D12*
X123063000Y-42926000D03*
D13*
X108204000Y-109347000D03*
D14*
X110744000Y-109347000D03*
X113284000Y-109347000D03*
X115824000Y-109347000D03*
D13*
X108204000Y-106807000D03*
D14*
X110744000Y-106807000D03*
X113284000Y-106807000D03*
X115824000Y-106807000D03*
D15*
X87861000Y-39116000D03*
D16*
X91821000Y-39116000D03*
D17*
X92075000Y-113157000D03*
D16*
X88115000Y-113157000D03*
D18*
X100457000Y-72616000D03*
X100457000Y-74516000D03*
D19*
X127762000Y-41656000D03*
X127762000Y-40006000D03*
D12*
X75184000Y-36700000D03*
D11*
X75184000Y-39240000D03*
D20*
X57785000Y-117475000D03*
D11*
X60325000Y-117475000D03*
D21*
X138811000Y-44196000D03*
X140711000Y-44196000D03*
D22*
X67577000Y-53086000D03*
X66027000Y-53086000D03*
D23*
X70612000Y-45720000D03*
X72162000Y-45720000D03*
D24*
X136398000Y-48796000D03*
X136398000Y-46496000D03*
X136398000Y-44196000D03*
D25*
X130098000Y-46496000D03*
D24*
X106553000Y-73886000D03*
X106553000Y-76186000D03*
X106553000Y-78486000D03*
D25*
X112853000Y-76186000D03*
D26*
X111126000Y-113284000D03*
X112776000Y-113284000D03*
X62294000Y-107442000D03*
X63944000Y-107442000D03*
D27*
X112395000Y-99182000D03*
X112395000Y-97282000D03*
D28*
X82423000Y-72136000D03*
X82423000Y-63736000D03*
D12*
X145415000Y-78486000D03*
D11*
X145415000Y-75946000D03*
X145415000Y-73406000D03*
D20*
X130810000Y-35433000D03*
D11*
X133350000Y-35433000D03*
D29*
X112395000Y-93472000D03*
X112395000Y-95122000D03*
D20*
X95885000Y-113157000D03*
D30*
X78481000Y-115697000D03*
X76205000Y-115697000D03*
D12*
X145415000Y-99949000D03*
D11*
X145415000Y-97409000D03*
D20*
X138557000Y-93091000D03*
X51557000Y-117475000D03*
D11*
X54097000Y-117475000D03*
D31*
X144000000Y-41000000D03*
D32*
X65338000Y-85598000D03*
X75438000Y-85598000D03*
D31*
X144000000Y-111000000D03*
X54000000Y-41000000D03*
D27*
X100330000Y-79342000D03*
X100330000Y-77442000D03*
D33*
X67310000Y-37338000D03*
D34*
X64770000Y-37338000D03*
D35*
X81280000Y-100300000D03*
X81280000Y-95250000D03*
X83820000Y-100300000D03*
X83820000Y-95250000D03*
X86360000Y-100300000D03*
X86360000Y-95250000D03*
X88900000Y-100300000D03*
X88900000Y-95250000D03*
X91440000Y-100300000D03*
X91440000Y-95250000D03*
X93980000Y-100300000D03*
X93980000Y-95250000D03*
X96520000Y-100300000D03*
X96520000Y-95250000D03*
X99060000Y-100300000D03*
X99060000Y-95250000D03*
X101600000Y-100300000D03*
X101600000Y-95250000D03*
X104140000Y-100300000D03*
X104140000Y-95250000D03*
D20*
X128524000Y-117475000D03*
D11*
X131064000Y-117475000D03*
D31*
X54000000Y-111000000D03*
D26*
X74042000Y-43053000D03*
X75692000Y-43053000D03*
D33*
X64770000Y-114935000D03*
D34*
X67310000Y-114935000D03*
D36*
X118999000Y-93726000D03*
X117729000Y-93726000D03*
X116459000Y-93726000D03*
X115189000Y-93726000D03*
X115189000Y-99150000D03*
X116459000Y-99150000D03*
X117729000Y-99150000D03*
X118999000Y-99150000D03*
D37*
X117094000Y-96438000D03*
D20*
X84201000Y-113157000D03*
D12*
X52070000Y-81021000D03*
D11*
X52070000Y-83561000D03*
D19*
X121920000Y-58546000D03*
X121920000Y-56896000D03*
D38*
X64643000Y-50761000D03*
X65913000Y-50761000D03*
X67183000Y-50761000D03*
X68453000Y-50761000D03*
X68453000Y-45339000D03*
X67183000Y-45339000D03*
X65913000Y-45339000D03*
X64643000Y-45339000D03*
D26*
X127700000Y-109982000D03*
X129350000Y-109982000D03*
D20*
X136525000Y-117475000D03*
D11*
X139065000Y-117475000D03*
D12*
X145415000Y-52070000D03*
D11*
X145415000Y-49530000D03*
D35*
X81280000Y-57120000D03*
X81280000Y-52070000D03*
X83820000Y-57120000D03*
X83820000Y-52070000D03*
X86360000Y-57120000D03*
X86360000Y-52070000D03*
X88900000Y-57120000D03*
X88900000Y-52070000D03*
X91440000Y-57120000D03*
X91440000Y-52070000D03*
X93980000Y-57120000D03*
X93980000Y-52070000D03*
X96520000Y-57120000D03*
X96520000Y-52070000D03*
X99060000Y-57120000D03*
X99060000Y-52070000D03*
X101600000Y-57120000D03*
X101600000Y-52070000D03*
X104140000Y-57120000D03*
X104140000Y-52070000D03*
D20*
X81026000Y-116586000D03*
X141097000Y-78486000D03*
X95631000Y-39116000D03*
D36*
X115189000Y-58293000D03*
X116459000Y-58293000D03*
X117729000Y-58293000D03*
X118999000Y-58293000D03*
X118999000Y-52869000D03*
X117729000Y-52869000D03*
X116459000Y-52869000D03*
X115189000Y-52869000D03*
D37*
X117094000Y-55581000D03*
D12*
X51430000Y-104140000D03*
D11*
X53970000Y-104140000D03*
D39*
X67500000Y-107442000D03*
X65850000Y-107442000D03*
D20*
X131445000Y-40386000D03*
D30*
X78481000Y-110490000D03*
X76205000Y-110490000D03*
D20*
X83947000Y-39116000D03*
D21*
X138811000Y-48768000D03*
X140711000Y-48768000D03*
D27*
X141224000Y-75433000D03*
X141224000Y-73533000D03*
D18*
X121920000Y-52837000D03*
X121920000Y-54737000D03*
D40*
X66958000Y-76285000D03*
X68658000Y-76285000D03*
X70358000Y-76285000D03*
X72058000Y-76285000D03*
X73758000Y-76285000D03*
D41*
X70358000Y-65610000D03*
D28*
X57277000Y-72027000D03*
X57277000Y-63627000D03*
D42*
X58039000Y-85032000D03*
X58039000Y-78232000D03*
D12*
X73025000Y-110490000D03*
D11*
X73025000Y-113030000D03*
X73025000Y-115570000D03*
D39*
X133286000Y-109982000D03*
X131636000Y-109982000D03*
D12*
X145415000Y-87630000D03*
D11*
X145415000Y-85090000D03*
D43*
X56769000Y-91313000D03*
D44*
X56769000Y-95273000D03*
D45*
X121793000Y-40132000D03*
X104140000Y-105918000D03*
X108331000Y-113284000D03*
X108077000Y-118110000D03*
D46*
X133223000Y-46496000D03*
D45*
X134747000Y-109982000D03*
X81280000Y-48514000D03*
X67564000Y-108712000D03*
D46*
X115951000Y-76426000D03*
D45*
X75565000Y-76327000D03*
X73152000Y-45720000D03*
X113792000Y-96438000D03*
D46*
X77089000Y-66929000D03*
X63754000Y-66675000D03*
D45*
X65913000Y-48260000D03*
X121076000Y-55581000D03*
X83947000Y-91440000D03*
X60325000Y-100330000D03*
X78613000Y-98171000D03*
X126619000Y-84836000D03*
X65024000Y-100330000D03*
X85725000Y-79375000D03*
X126492000Y-106807000D03*
X70739000Y-43053000D03*
X107061000Y-97790000D03*
X97917000Y-97790000D03*
X95123000Y-59563000D03*
X99441000Y-90043000D03*
X110363000Y-71501000D03*
X110363000Y-59690000D03*
X125603000Y-73533000D03*
X67564000Y-59690000D03*
X74041000Y-106045000D03*
X128778000Y-61341000D03*
X81661000Y-78105000D03*
X92964000Y-63754000D03*
X92837000Y-81026000D03*
X138430000Y-65024000D03*
X138303000Y-84074000D03*
X101600000Y-111379000D03*
X101600000Y-102997000D03*
X104140000Y-102997000D03*
X86360000Y-46228000D03*
X86360000Y-48514000D03*
X108839000Y-65024000D03*
X94107000Y-65024000D03*
X93980000Y-81026000D03*
X96266000Y-65786000D03*
X109601000Y-65786000D03*
X96012000Y-81026000D03*
X104267000Y-87249000D03*
X104267000Y-91186000D03*
X116459000Y-59944000D03*
X116459000Y-62484000D03*
X113030000Y-60452000D03*
X120396000Y-82169000D03*
X89154000Y-66675000D03*
X88900000Y-59563000D03*
X110998000Y-104267000D03*
X126365000Y-52832000D03*
X72517000Y-96012000D03*
X64643000Y-54864000D03*
X69088000Y-54864000D03*
X124968000Y-40132000D03*
X75184000Y-89281000D03*
X70104000Y-112776000D03*
D47*
X119253000Y-41275000D02*
X119253000Y-44196000D01*
X119253000Y-44196000D02*
X117983000Y-45466000D01*
X121793000Y-40132000D02*
X120396000Y-40132000D01*
X120396000Y-40132000D02*
X119253000Y-41275000D01*
X120523000Y-46609000D02*
X120523000Y-45466000D01*
X120904000Y-46990000D02*
X120523000Y-46609000D01*
X126746000Y-46990000D02*
X120904000Y-46990000D01*
X123063000Y-35306000D02*
X122047000Y-34290000D01*
X123063000Y-42926000D02*
X123063000Y-35306000D01*
D48*
X131445000Y-41656000D02*
X127762000Y-41656000D01*
X127000000Y-45466000D02*
X127762000Y-44704000D01*
X123063000Y-45466000D02*
X127000000Y-45466000D01*
X127762000Y-44704000D02*
X127762000Y-41656000D01*
X123063000Y-45466000D02*
X120523000Y-42926000D01*
D49*
X87861000Y-37107000D02*
X87861000Y-39116000D01*
X98425000Y-37338000D02*
X96774000Y-35687000D01*
X98425000Y-41275000D02*
X98425000Y-37338000D01*
X99695000Y-42545000D02*
X98425000Y-41275000D01*
X108458000Y-42545000D02*
X99695000Y-42545000D01*
X117729000Y-51816000D02*
X108458000Y-42545000D01*
X96774000Y-35687000D02*
X89281000Y-35687000D01*
X89281000Y-35687000D02*
X87861000Y-37107000D01*
X117729000Y-52869000D02*
X117729000Y-51816000D01*
X92075000Y-39116000D02*
X91821000Y-39116000D01*
X107188000Y-44323000D02*
X97282000Y-44323000D01*
X97282000Y-44323000D02*
X92075000Y-39116000D01*
X115189000Y-52324000D02*
X107188000Y-44323000D01*
X115189000Y-52869000D02*
X115189000Y-52324000D01*
D47*
X104648000Y-105410000D02*
X104140000Y-105918000D01*
X115443000Y-105410000D02*
X104648000Y-105410000D01*
X115824000Y-105791000D02*
X115443000Y-105410000D01*
X115824000Y-106807000D02*
X115824000Y-105791000D01*
X115824000Y-106807000D02*
X115824000Y-109347000D01*
X112776000Y-111887000D02*
X112268000Y-111379000D01*
X112776000Y-113284000D02*
X112776000Y-111887000D01*
X113284000Y-109347000D02*
X113284000Y-106807000D01*
X113284000Y-110363000D02*
X113284000Y-109347000D01*
X112268000Y-111379000D02*
X113284000Y-110363000D01*
X101600000Y-111379000D02*
X112268000Y-111379000D01*
D48*
X111126000Y-113284000D02*
X108331000Y-113284000D01*
X127889000Y-118110000D02*
X108077000Y-118110000D01*
X128524000Y-117475000D02*
X127889000Y-118110000D01*
X108204000Y-109347000D02*
X110744000Y-106807000D01*
D49*
X117348000Y-116840000D02*
X90424000Y-116840000D01*
X119761000Y-114427000D02*
X117348000Y-116840000D01*
X119761000Y-104902000D02*
X119761000Y-114427000D01*
X88115000Y-114531000D02*
X88115000Y-113157000D01*
X118999000Y-104140000D02*
X119761000Y-104902000D01*
X118999000Y-99150000D02*
X118999000Y-104140000D01*
X90424000Y-116840000D02*
X88115000Y-114531000D01*
X97663000Y-113157000D02*
X95885000Y-113157000D01*
X99822000Y-115316000D02*
X97663000Y-113157000D01*
X117094000Y-115316000D02*
X99822000Y-115316000D01*
X118237000Y-105156000D02*
X118237000Y-114173000D01*
X118237000Y-114173000D02*
X117094000Y-115316000D01*
X116459000Y-103378000D02*
X118237000Y-105156000D01*
X116459000Y-99150000D02*
X116459000Y-103378000D01*
D47*
X109601000Y-65786000D02*
X96266000Y-65786000D01*
D48*
X81280000Y-52070000D02*
X81280000Y-48514000D01*
X67500000Y-108648000D02*
X67564000Y-108712000D01*
D50*
X112853000Y-76186000D02*
X115711000Y-76186000D01*
X117729000Y-97073000D02*
X117094000Y-96438000D01*
D48*
X133286000Y-109982000D02*
X134747000Y-109982000D01*
D50*
X106553000Y-76186000D02*
X102127000Y-76186000D01*
X133223000Y-46496000D02*
X136398000Y-46496000D01*
X121076000Y-55581000D02*
X121920000Y-54737000D01*
D48*
X64643000Y-46990000D02*
X65913000Y-48260000D01*
D50*
X112395000Y-95122000D02*
X112395000Y-95594000D01*
D48*
X83820000Y-95250000D02*
X83820000Y-91567000D01*
D50*
X140711000Y-48768000D02*
X140711000Y-47013000D01*
D48*
X67500000Y-107442000D02*
X67500000Y-108648000D01*
D50*
X117094000Y-96438000D02*
X113239000Y-96438000D01*
X121920000Y-56425000D02*
X121076000Y-55581000D01*
X115189000Y-55880000D02*
X115488000Y-55581000D01*
X102127000Y-76186000D02*
X100457000Y-74516000D01*
X118999000Y-94533000D02*
X117094000Y-96438000D01*
X121920000Y-56896000D02*
X121920000Y-56425000D01*
D48*
X64643000Y-45339000D02*
X64643000Y-46990000D01*
D50*
X113239000Y-96438000D02*
X113792000Y-96438000D01*
X115189000Y-58293000D02*
X115189000Y-55880000D01*
D48*
X75523000Y-76285000D02*
X75565000Y-76327000D01*
D50*
X106553000Y-76186000D02*
X112853000Y-76186000D01*
X101586000Y-76186000D02*
X102127000Y-76186000D01*
X115711000Y-76186000D02*
X115951000Y-76426000D01*
X117729000Y-99150000D02*
X117729000Y-97073000D01*
X145415000Y-73406000D02*
X141351000Y-73406000D01*
X70358000Y-76285000D02*
X70358000Y-65610000D01*
X100330000Y-77442000D02*
X101586000Y-76186000D01*
D48*
X65913000Y-52972000D02*
X66027000Y-53086000D01*
D50*
X116459000Y-54946000D02*
X117094000Y-55581000D01*
D48*
X65913000Y-50761000D02*
X65913000Y-52972000D01*
D50*
X140716000Y-45974000D02*
X140711000Y-45969000D01*
X121076000Y-55581000D02*
X120523000Y-55581000D01*
X140711000Y-45969000D02*
X140711000Y-44196000D01*
X136398000Y-46496000D02*
X140194000Y-46496000D01*
X118999000Y-93726000D02*
X118999000Y-94533000D01*
D48*
X83820000Y-91567000D02*
X83947000Y-91440000D01*
X65913000Y-50761000D02*
X65913000Y-48260000D01*
D50*
X140194000Y-46496000D02*
X140716000Y-45974000D01*
X73758000Y-76285000D02*
X75523000Y-76285000D01*
X140711000Y-47013000D02*
X140194000Y-46496000D01*
X113239000Y-96438000D02*
X112395000Y-97282000D01*
X115488000Y-55581000D02*
X117094000Y-55581000D01*
X112395000Y-95594000D02*
X113239000Y-96438000D01*
X117094000Y-55581000D02*
X121076000Y-55581000D01*
X130098000Y-46496000D02*
X133223000Y-46496000D01*
X141351000Y-73406000D02*
X141224000Y-73533000D01*
X116459000Y-52869000D02*
X116459000Y-54946000D01*
D48*
X72162000Y-45720000D02*
X73152000Y-45720000D01*
X127700000Y-109412000D02*
X126492000Y-108204000D01*
X68453000Y-45339000D02*
X70231000Y-45339000D01*
D50*
X106553000Y-78486000D02*
X106553000Y-82169000D01*
X105697000Y-79342000D02*
X106553000Y-78486000D01*
D48*
X128524000Y-117475000D02*
X131064000Y-117475000D01*
X86106000Y-79375000D02*
X86139000Y-79342000D01*
D50*
X86139000Y-79342000D02*
X100330000Y-79342000D01*
D48*
X65054000Y-100300000D02*
X81280000Y-100300000D01*
D50*
X106680000Y-82296000D02*
X109220000Y-84836000D01*
X111633000Y-84836000D02*
X126619000Y-84836000D01*
D48*
X70231000Y-45339000D02*
X70612000Y-45720000D01*
X54737000Y-100330000D02*
X60325000Y-100330000D01*
X68453000Y-45339000D02*
X70739000Y-43053000D01*
X126492000Y-108204000D02*
X126492000Y-106807000D01*
X85725000Y-79375000D02*
X86106000Y-79375000D01*
X81280000Y-100300000D02*
X80742000Y-100300000D01*
X53970000Y-101097000D02*
X54737000Y-100330000D01*
X127700000Y-109982000D02*
X127700000Y-109412000D01*
X53970000Y-104140000D02*
X53970000Y-101097000D01*
X127700000Y-109982000D02*
X127700000Y-116651000D01*
X65024000Y-100330000D02*
X65054000Y-100300000D01*
X78613000Y-98171000D02*
X78740000Y-98171000D01*
X127700000Y-116651000D02*
X128524000Y-117475000D01*
D50*
X106553000Y-82169000D02*
X106680000Y-82296000D01*
X109220000Y-84836000D02*
X111633000Y-84836000D01*
X80742000Y-100300000D02*
X78613000Y-98171000D01*
X100330000Y-79342000D02*
X105697000Y-79342000D01*
D10*
X115824000Y-91694000D02*
X116459000Y-92329000D01*
X96520000Y-100300000D02*
X96520000Y-98933000D01*
X108585000Y-92837000D02*
X109728000Y-91694000D01*
X107061000Y-97790000D02*
X108585000Y-96266000D01*
X108585000Y-96266000D02*
X108585000Y-92837000D01*
X109728000Y-91694000D02*
X115824000Y-91694000D01*
X96520000Y-100300000D02*
X96520000Y-99187000D01*
X96520000Y-99187000D02*
X97917000Y-97790000D01*
X116459000Y-92329000D02*
X116459000Y-93726000D01*
X88900000Y-52070000D02*
X88900000Y-53340000D01*
D47*
X93980000Y-52070000D02*
X95123000Y-53213000D01*
X116205000Y-90043000D02*
X117729000Y-91567000D01*
X99441000Y-90043000D02*
X116205000Y-90043000D01*
X95123000Y-53213000D02*
X95123000Y-59563000D01*
X117729000Y-91567000D02*
X117729000Y-93726000D01*
D10*
X99060000Y-52070000D02*
X99060000Y-53975000D01*
X100965000Y-59690000D02*
X110363000Y-59690000D01*
X99060000Y-53975000D02*
X100330000Y-55245000D01*
X141097000Y-78486000D02*
X145415000Y-78486000D01*
X100330000Y-59055000D02*
X100965000Y-59690000D01*
X110363000Y-71501000D02*
X127635000Y-71501000D01*
X100330000Y-55245000D02*
X100330000Y-59055000D01*
X127635000Y-71501000D02*
X134620000Y-78486000D01*
X134620000Y-78486000D02*
X141097000Y-78486000D01*
X102870000Y-53721000D02*
X102870000Y-48006000D01*
X101981000Y-47117000D02*
X75438000Y-47117000D01*
X75438000Y-47117000D02*
X71794000Y-50761000D01*
X104140000Y-57120000D02*
X104140000Y-54991000D01*
X102870000Y-48006000D02*
X101981000Y-47117000D01*
X104140000Y-54991000D02*
X102870000Y-53721000D01*
X71794000Y-50761000D02*
X68453000Y-50761000D01*
D48*
X73660000Y-106045000D02*
X62738000Y-106045000D01*
D50*
X88646000Y-78105000D02*
X94135000Y-72616000D01*
X106553000Y-73886000D02*
X125250000Y-73886000D01*
X73025000Y-113030000D02*
X80010000Y-113030000D01*
D48*
X62294000Y-106489000D02*
X62294000Y-107442000D01*
D50*
X103350000Y-72616000D02*
X100457000Y-72616000D01*
D48*
X138783000Y-48796000D02*
X138811000Y-48768000D01*
D50*
X81661000Y-78105000D02*
X88646000Y-78105000D01*
X134112000Y-61341000D02*
X136398000Y-59055000D01*
D48*
X67577000Y-59550000D02*
X67577000Y-53086000D01*
D50*
X78481000Y-110490000D02*
X78481000Y-111501000D01*
D48*
X67183000Y-50761000D02*
X67183000Y-52692000D01*
X67564000Y-59563000D02*
X67577000Y-59550000D01*
D50*
X125250000Y-73886000D02*
X125603000Y-73533000D01*
X136398000Y-59055000D02*
X136398000Y-48796000D01*
D48*
X74041000Y-106045000D02*
X73660000Y-106045000D01*
X67564000Y-59690000D02*
X67564000Y-59563000D01*
D50*
X80010000Y-113030000D02*
X80391000Y-113030000D01*
X128778000Y-61341000D02*
X134112000Y-61341000D01*
X94135000Y-72616000D02*
X100457000Y-72616000D01*
D48*
X136398000Y-48796000D02*
X138783000Y-48796000D01*
D50*
X78481000Y-110490000D02*
X78481000Y-106548000D01*
X80391000Y-113030000D02*
X81026000Y-113665000D01*
X78481000Y-115697000D02*
X80137000Y-115697000D01*
X104620000Y-73886000D02*
X103350000Y-72616000D01*
X80137000Y-115697000D02*
X81026000Y-116586000D01*
D48*
X62738000Y-106045000D02*
X62294000Y-106489000D01*
D50*
X78481000Y-111501000D02*
X80010000Y-113030000D01*
X78481000Y-106548000D02*
X77978000Y-106045000D01*
X106553000Y-73886000D02*
X104620000Y-73886000D01*
X81026000Y-113665000D02*
X81026000Y-116586000D01*
D48*
X74295000Y-106045000D02*
X74041000Y-106045000D01*
D50*
X77978000Y-106045000D02*
X74295000Y-106045000D01*
D48*
X67183000Y-52692000D02*
X67577000Y-53086000D01*
D47*
X85090000Y-90551000D02*
X85090000Y-97790000D01*
X92964000Y-63754000D02*
X127635000Y-63754000D01*
X92837000Y-81026000D02*
X92837000Y-82804000D01*
X127635000Y-63754000D02*
X128016000Y-63373000D01*
X128016000Y-48260000D02*
X126746000Y-46990000D01*
X85090000Y-97790000D02*
X83820000Y-99060000D01*
X128016000Y-63373000D02*
X128016000Y-48260000D01*
X92837000Y-82804000D02*
X85090000Y-90551000D01*
D10*
X99441000Y-91059000D02*
X98298000Y-91059000D01*
X144018000Y-49530000D02*
X145415000Y-49530000D01*
X97917000Y-89154000D02*
X98806000Y-88265000D01*
X97917000Y-90678000D02*
X97917000Y-89154000D01*
X100203000Y-91821000D02*
X99441000Y-91059000D01*
X134112000Y-88265000D02*
X138303000Y-84074000D01*
X98806000Y-88265000D02*
X134112000Y-88265000D01*
X138430000Y-65024000D02*
X138430000Y-55118000D01*
X99060000Y-100300000D02*
X100203000Y-99157000D01*
X98298000Y-91059000D02*
X97917000Y-90678000D01*
X138430000Y-55118000D02*
X144018000Y-49530000D01*
X100203000Y-99157000D02*
X100203000Y-91821000D01*
D47*
X101727000Y-111506000D02*
X101600000Y-111379000D01*
X101600000Y-100300000D02*
X101600000Y-102997000D01*
X104140000Y-100300000D02*
X104140000Y-102997000D01*
X85344000Y-45212000D02*
X82296000Y-45212000D01*
X81280000Y-35306000D02*
X82296000Y-34290000D01*
X82296000Y-34290000D02*
X122047000Y-34290000D01*
X81280000Y-44196000D02*
X81280000Y-35306000D01*
X86360000Y-46228000D02*
X85344000Y-45212000D01*
X86360000Y-52070000D02*
X86360000Y-48514000D01*
X82296000Y-45212000D02*
X81280000Y-44196000D01*
X93980000Y-81026000D02*
X93980000Y-83439000D01*
X86360000Y-91059000D02*
X86360000Y-95250000D01*
X93980000Y-83439000D02*
X86360000Y-91059000D01*
X94107000Y-65024000D02*
X108839000Y-65024000D01*
X91440000Y-87630000D02*
X91440000Y-95250000D01*
X96012000Y-83058000D02*
X91440000Y-87630000D01*
X96012000Y-81026000D02*
X96012000Y-83058000D01*
X104140000Y-95250000D02*
X104140000Y-91313000D01*
X139065000Y-93091000D02*
X138557000Y-93091000D01*
X104267000Y-87249000D02*
X132969000Y-87249000D01*
X139573000Y-83185000D02*
X140589000Y-84201000D01*
X132969000Y-87249000D02*
X137033000Y-83185000D01*
X104140000Y-91313000D02*
X104267000Y-91186000D01*
X140589000Y-84201000D02*
X140589000Y-91567000D01*
X137033000Y-83185000D02*
X139573000Y-83185000D01*
X140589000Y-91567000D02*
X139065000Y-93091000D01*
X81280000Y-57120000D02*
X81280000Y-57404000D01*
X116459000Y-59944000D02*
X116459000Y-58293000D01*
X81280000Y-57404000D02*
X86360000Y-62484000D01*
X86360000Y-62484000D02*
X116459000Y-62484000D01*
X117729000Y-60071000D02*
X117729000Y-58293000D01*
X83820000Y-57120000D02*
X83820000Y-59055000D01*
X83820000Y-59055000D02*
X85852000Y-61087000D01*
X85852000Y-61087000D02*
X116713000Y-61087000D01*
X116713000Y-61087000D02*
X117729000Y-60071000D01*
X86360000Y-59944000D02*
X86868000Y-60452000D01*
X142494000Y-82169000D02*
X145415000Y-85090000D01*
X86868000Y-60452000D02*
X113030000Y-60452000D01*
X86360000Y-57120000D02*
X86360000Y-59944000D01*
X120396000Y-82169000D02*
X142494000Y-82169000D01*
X147828000Y-96139000D02*
X146558000Y-97409000D01*
X88900000Y-57120000D02*
X88900000Y-59563000D01*
X147828000Y-68961000D02*
X147828000Y-96139000D01*
X145542000Y-66675000D02*
X147828000Y-68961000D01*
X89154000Y-66675000D02*
X145542000Y-66675000D01*
X146558000Y-97409000D02*
X145415000Y-97409000D01*
D49*
X63944000Y-107442000D02*
X65850000Y-107442000D01*
D48*
X129350000Y-109982000D02*
X131636000Y-109982000D01*
D50*
X65133000Y-72027000D02*
X57277000Y-72027000D01*
X121888000Y-52869000D02*
X121920000Y-52837000D01*
X64304000Y-76285000D02*
X66958000Y-76285000D01*
X52070000Y-92184000D02*
X52070000Y-83561000D01*
X121925000Y-52832000D02*
X121920000Y-52837000D01*
X62865000Y-80899000D02*
X62865000Y-77724000D01*
X52827000Y-82804000D02*
X60960000Y-82804000D01*
X115189000Y-100076000D02*
X112395000Y-102870000D01*
D49*
X58928000Y-112644000D02*
X58928000Y-106045000D01*
D50*
X126365000Y-52832000D02*
X121925000Y-52832000D01*
D49*
X51557000Y-117475000D02*
X54097000Y-117475000D01*
X60579000Y-104394000D02*
X64389000Y-104394000D01*
D50*
X66958000Y-73816000D02*
X65151000Y-72009000D01*
X115189000Y-99150000D02*
X115189000Y-100076000D01*
X62865000Y-77724000D02*
X64304000Y-76285000D01*
X52070000Y-83561000D02*
X52827000Y-82804000D01*
X60960000Y-82804000D02*
X62865000Y-80899000D01*
X66958000Y-76285000D02*
X66958000Y-73816000D01*
D49*
X58928000Y-106045000D02*
X60579000Y-104394000D01*
D50*
X62738000Y-102743000D02*
X64389000Y-104394000D01*
X59713000Y-95273000D02*
X62738000Y-98298000D01*
X62738000Y-98298000D02*
X62738000Y-102743000D01*
X110871000Y-104394000D02*
X112395000Y-102870000D01*
D49*
X54097000Y-117475000D02*
X58928000Y-112644000D01*
D50*
X55159000Y-95273000D02*
X52070000Y-92184000D01*
X56769000Y-95273000D02*
X55159000Y-95273000D01*
X64389000Y-104394000D02*
X110871000Y-104394000D01*
X118999000Y-52869000D02*
X121888000Y-52869000D01*
X56769000Y-95273000D02*
X59713000Y-95273000D01*
X112395000Y-102870000D02*
X112395000Y-99182000D01*
D48*
X65151000Y-72009000D02*
X65133000Y-72027000D01*
D50*
X76205000Y-110490000D02*
X73025000Y-110490000D01*
X81280000Y-95250000D02*
X73279000Y-95250000D01*
X73279000Y-95250000D02*
X72517000Y-96012000D01*
D47*
X64643000Y-50761000D02*
X64643000Y-54864000D01*
X75946000Y-47752000D02*
X72898000Y-50800000D01*
X100330000Y-48768000D02*
X99314000Y-47752000D01*
X72898000Y-50800000D02*
X72898000Y-54102000D01*
X72136000Y-54864000D02*
X69088000Y-54864000D01*
X101600000Y-57120000D02*
X101600000Y-55499000D01*
X72898000Y-54102000D02*
X72136000Y-54864000D01*
X101600000Y-55499000D02*
X100330000Y-54229000D01*
X99314000Y-47752000D02*
X75946000Y-47752000D01*
X100330000Y-54229000D02*
X100330000Y-48768000D01*
D48*
X75692000Y-39748000D02*
X75184000Y-39240000D01*
X75692000Y-43053000D02*
X75692000Y-39748000D01*
D47*
X124968000Y-40132000D02*
X125094000Y-40006000D01*
X125094000Y-40006000D02*
X127762000Y-40006000D01*
D50*
X145415000Y-75946000D02*
X141737000Y-75946000D01*
X82423000Y-72136000D02*
X85090000Y-69469000D01*
D49*
X57785000Y-117475000D02*
X60325000Y-117475000D01*
D50*
X72058000Y-76285000D02*
X72058000Y-82218000D01*
X73025000Y-115570000D02*
X76078000Y-115570000D01*
D49*
X62611000Y-115189000D02*
X64516000Y-115189000D01*
D50*
X135763000Y-71374000D02*
X135763000Y-74168000D01*
X74295000Y-72136000D02*
X82423000Y-72136000D01*
D49*
X60325000Y-117475000D02*
X62611000Y-115189000D01*
D50*
X85090000Y-69469000D02*
X133858000Y-69469000D01*
X135763000Y-74168000D02*
X137028000Y-75433000D01*
X72058000Y-76285000D02*
X72058000Y-74373000D01*
X70104000Y-112776000D02*
X70104000Y-114300000D01*
X133858000Y-69469000D02*
X135763000Y-71374000D01*
X70104000Y-114300000D02*
X71374000Y-115570000D01*
D49*
X64516000Y-115189000D02*
X64770000Y-114935000D01*
D50*
X75184000Y-89281000D02*
X75184000Y-85852000D01*
D48*
X75184000Y-85852000D02*
X75438000Y-85598000D01*
D50*
X64770000Y-113538000D02*
X65532000Y-112776000D01*
X72058000Y-74373000D02*
X74295000Y-72136000D01*
X64770000Y-114935000D02*
X64770000Y-113538000D01*
X72058000Y-82218000D02*
X75438000Y-85598000D01*
X71374000Y-115570000D02*
X73025000Y-115570000D01*
X65532000Y-112776000D02*
X70104000Y-112776000D01*
X141737000Y-75946000D02*
X141224000Y-75433000D01*
X137028000Y-75433000D02*
X141224000Y-75433000D01*
D48*
X76078000Y-115570000D02*
X76205000Y-115697000D01*
D49*
X92075000Y-113157000D02*
X95885000Y-113157000D01*
X84201000Y-113157000D02*
X88115000Y-113157000D01*
D48*
X74042000Y-44324000D02*
X74042000Y-43053000D01*
X67310000Y-47371000D02*
X73533000Y-47371000D01*
X74042000Y-43053000D02*
X73025000Y-43053000D01*
X74295000Y-46609000D02*
X74295000Y-44577000D01*
X74295000Y-44577000D02*
X74042000Y-44324000D01*
X73025000Y-43053000D02*
X67310000Y-37338000D01*
X73533000Y-47371000D02*
X74295000Y-46609000D01*
X65913000Y-45339000D02*
X65913000Y-45974000D01*
X65913000Y-45974000D02*
X67310000Y-47371000D01*
X66040000Y-36068000D02*
X64770000Y-37338000D01*
X75184000Y-36700000D02*
X74800000Y-36700000D01*
X69088000Y-36068000D02*
X66040000Y-36068000D01*
X67183000Y-42418000D02*
X64770000Y-40005000D01*
X67183000Y-45339000D02*
X67183000Y-42418000D01*
X70104000Y-35052000D02*
X69088000Y-36068000D01*
X64770000Y-40005000D02*
X64770000Y-37338000D01*
X75565000Y-37081000D02*
X75184000Y-36700000D01*
X73152000Y-35052000D02*
X70104000Y-35052000D01*
X74800000Y-36700000D02*
X73152000Y-35052000D01*
D49*
X91821000Y-39116000D02*
X95631000Y-39116000D01*
X83947000Y-39116000D02*
X87861000Y-39116000D01*
D50*
X64772000Y-85032000D02*
X65338000Y-85598000D01*
X68658000Y-82278000D02*
X65338000Y-85598000D01*
X58039000Y-85032000D02*
X64772000Y-85032000D01*
X68658000Y-76285000D02*
X68658000Y-82278000D01*
D48*
X121667000Y-58293000D02*
X121920000Y-58546000D01*
X118999000Y-58293000D02*
X121667000Y-58293000D01*
X112649000Y-93726000D02*
X112395000Y-93472000D01*
X115189000Y-93726000D02*
X112649000Y-93726000D01*
X136398000Y-44196000D02*
X136398000Y-42799000D01*
X136398000Y-44196000D02*
X138811000Y-44196000D01*
X136398000Y-42799000D02*
X135255000Y-41656000D01*
X135255000Y-41656000D02*
X131445000Y-41656000D01*
X131445000Y-40386000D02*
X131445000Y-41656000D01*
M02*
