G04 #@! TF.GenerationSoftware,KiCad,Pcbnew,9.0.5*
G04 #@! TF.CreationDate,2026-01-25T09:53:04-06:00*
G04 #@! TF.ProjectId,MotorBoard,4d6f746f-7242-46f6-9172-642e6b696361,v7.1*
G04 #@! TF.SameCoordinates,Original*
G04 #@! TF.FileFunction,Copper,L2,Bot*
G04 #@! TF.FilePolarity,Positive*
%FSLAX46Y46*%
G04 Gerber Fmt 4.6, Leading zero omitted, Abs format (unit mm)*
G04 Created by KiCad (PCBNEW 9.0.5) date 2026-01-25 09:53:04*
%MOMM*%
%LPD*%
G01*
G04 APERTURE LIST*
G04 Aperture macros list*
%AMRoundRect*
0 Rectangle with rounded corners*
0 $1 Rounding radius*
0 $2 $3 $4 $5 $6 $7 $8 $9 X,Y pos of 4 corners*
0 Add a 4 corners polygon primitive as box body*
4,1,4,$2,$3,$4,$5,$6,$7,$8,$9,$2,$3,0*
0 Add four circle primitives for the rounded corners*
1,1,$1+$1,$2,$3*
1,1,$1+$1,$4,$5*
1,1,$1+$1,$6,$7*
1,1,$1+$1,$8,$9*
0 Add four rect primitives between the rounded corners*
20,1,$1+$1,$2,$3,$4,$5,0*
20,1,$1+$1,$4,$5,$6,$7,0*
20,1,$1+$1,$6,$7,$8,$9,0*
20,1,$1+$1,$8,$9,$2,$3,0*%
G04 Aperture macros list end*
G04 #@! TA.AperFunction,ComponentPad*
%ADD10O,1.700000X1.700000*%
G04 #@! TD*
G04 #@! TA.AperFunction,ComponentPad*
%ADD11R,1.700000X1.700000*%
G04 #@! TD*
G04 #@! TA.AperFunction,ComponentPad*
%ADD12R,1.778000X1.778000*%
G04 #@! TD*
G04 #@! TA.AperFunction,ComponentPad*
%ADD13C,1.778000*%
G04 #@! TD*
G04 #@! TA.AperFunction,ComponentPad*
%ADD14RoundRect,0.250000X-1.330000X-1.850000X1.330000X-1.850000X1.330000X1.850000X-1.330000X1.850000X0*%
G04 #@! TD*
G04 #@! TA.AperFunction,ComponentPad*
%ADD15O,3.160000X4.200000*%
G04 #@! TD*
G04 #@! TA.AperFunction,ComponentPad*
%ADD16RoundRect,0.250000X1.330000X1.850000X-1.330000X1.850000X-1.330000X-1.850000X1.330000X-1.850000X0*%
G04 #@! TD*
G04 #@! TA.AperFunction,ComponentPad*
%ADD17C,1.700000*%
G04 #@! TD*
G04 #@! TA.AperFunction,ComponentPad*
%ADD18C,4.318000*%
G04 #@! TD*
G04 #@! TA.AperFunction,ComponentPad*
%ADD19R,1.650000X1.650000*%
G04 #@! TD*
G04 #@! TA.AperFunction,ComponentPad*
%ADD20C,1.650000*%
G04 #@! TD*
G04 #@! TA.AperFunction,ComponentPad*
%ADD21RoundRect,0.250000X-1.800000X1.330000X-1.800000X-1.330000X1.800000X-1.330000X1.800000X1.330000X0*%
G04 #@! TD*
G04 #@! TA.AperFunction,ComponentPad*
%ADD22O,4.100000X3.160000*%
G04 #@! TD*
G04 #@! TA.AperFunction,ViaPad*
%ADD23C,0.800000*%
G04 #@! TD*
G04 #@! TA.AperFunction,ViaPad*
%ADD24C,2.540000*%
G04 #@! TD*
G04 #@! TA.AperFunction,Conductor*
%ADD25C,0.150000*%
G04 #@! TD*
G04 #@! TA.AperFunction,Conductor*
%ADD26C,0.500000*%
G04 #@! TD*
G04 #@! TA.AperFunction,Conductor*
%ADD27C,1.000000*%
G04 #@! TD*
G04 #@! TA.AperFunction,Conductor*
%ADD28C,0.200000*%
G04 #@! TD*
G04 APERTURE END LIST*
D10*
X123063000Y-45466000D03*
X120523000Y-45466000D03*
X117983000Y-45466000D03*
X115443000Y-45466000D03*
X115443000Y-42926000D03*
X117983000Y-42926000D03*
X120523000Y-42926000D03*
D11*
X123063000Y-42926000D03*
D12*
X108204000Y-109347000D03*
D13*
X110744000Y-109347000D03*
X113284000Y-109347000D03*
X115824000Y-109347000D03*
D12*
X108204000Y-106807000D03*
D13*
X110744000Y-106807000D03*
X113284000Y-106807000D03*
X115824000Y-106807000D03*
D14*
X87861000Y-39116000D03*
D15*
X91821000Y-39116000D03*
D16*
X92075000Y-113157000D03*
D15*
X88115000Y-113157000D03*
D11*
X75184000Y-36700000D03*
D10*
X75184000Y-39240000D03*
D17*
X57785000Y-117475000D03*
D10*
X60325000Y-117475000D03*
D11*
X145415000Y-78486000D03*
D10*
X145415000Y-75946000D03*
X145415000Y-73406000D03*
D17*
X130810000Y-35433000D03*
D10*
X133350000Y-35433000D03*
D17*
X95885000Y-113157000D03*
D11*
X145415000Y-99949000D03*
D10*
X145415000Y-97409000D03*
D17*
X138557000Y-93091000D03*
X51557000Y-117475000D03*
D10*
X54097000Y-117475000D03*
D18*
X144000000Y-41000000D03*
X144000000Y-111000000D03*
X54000000Y-41000000D03*
D19*
X67310000Y-37338000D03*
D20*
X64770000Y-37338000D03*
D17*
X128524000Y-117475000D03*
D10*
X131064000Y-117475000D03*
D18*
X54000000Y-111000000D03*
D19*
X64770000Y-114935000D03*
D20*
X67310000Y-114935000D03*
D17*
X84201000Y-113157000D03*
D11*
X52070000Y-81021000D03*
D10*
X52070000Y-83561000D03*
D17*
X136525000Y-117475000D03*
D10*
X139065000Y-117475000D03*
D11*
X145415000Y-52070000D03*
D10*
X145415000Y-49530000D03*
D17*
X81026000Y-116586000D03*
X141097000Y-78486000D03*
X95631000Y-39116000D03*
D11*
X51430000Y-104140000D03*
D10*
X53970000Y-104140000D03*
D17*
X131445000Y-40386000D03*
X83947000Y-39116000D03*
D11*
X73025000Y-110490000D03*
D10*
X73025000Y-113030000D03*
X73025000Y-115570000D03*
D11*
X145415000Y-87630000D03*
D10*
X145415000Y-85090000D03*
D21*
X56769000Y-91313000D03*
D22*
X56769000Y-95273000D03*
D23*
X121793000Y-40132000D03*
X104140000Y-105918000D03*
X108331000Y-113284000D03*
X108077000Y-118110000D03*
D24*
X133223000Y-46496000D03*
D23*
X134747000Y-109982000D03*
X81280000Y-48514000D03*
X67564000Y-108712000D03*
D24*
X115951000Y-76426000D03*
D23*
X75565000Y-76327000D03*
X73152000Y-45720000D03*
X113792000Y-96438000D03*
D24*
X77089000Y-66929000D03*
X63754000Y-66675000D03*
D23*
X65913000Y-48260000D03*
X121076000Y-55581000D03*
X83947000Y-91440000D03*
X60325000Y-100330000D03*
X78613000Y-98171000D03*
X126619000Y-84836000D03*
X65024000Y-100330000D03*
X85725000Y-79375000D03*
X126492000Y-106807000D03*
X70739000Y-43053000D03*
X107061000Y-97790000D03*
X97917000Y-97790000D03*
X95123000Y-59563000D03*
X99441000Y-90043000D03*
X110363000Y-71501000D03*
X110363000Y-59690000D03*
X125603000Y-73533000D03*
X67564000Y-59690000D03*
X74041000Y-106045000D03*
X128778000Y-61341000D03*
X81661000Y-78105000D03*
X92964000Y-63754000D03*
X92837000Y-81026000D03*
X138430000Y-65024000D03*
X138303000Y-84074000D03*
X101600000Y-111379000D03*
X101600000Y-102997000D03*
X104140000Y-102997000D03*
X86360000Y-46228000D03*
X86360000Y-48514000D03*
X108839000Y-65024000D03*
X94107000Y-65024000D03*
X93980000Y-81026000D03*
X96266000Y-65786000D03*
X109601000Y-65786000D03*
X96012000Y-81026000D03*
X104267000Y-87249000D03*
X104267000Y-91186000D03*
X116459000Y-59944000D03*
X116459000Y-62484000D03*
X113030000Y-60452000D03*
X120396000Y-82169000D03*
X89154000Y-66675000D03*
X88900000Y-59563000D03*
X110998000Y-104267000D03*
X126365000Y-52832000D03*
X72517000Y-96012000D03*
X64643000Y-54864000D03*
X69088000Y-54864000D03*
X124968000Y-40132000D03*
X75184000Y-89281000D03*
X70104000Y-112776000D03*
D25*
X116586000Y-44323000D02*
X117983000Y-42926000D01*
X108839000Y-48895000D02*
X113411000Y-44323000D01*
X108839000Y-65024000D02*
X108839000Y-48895000D01*
X113411000Y-44323000D02*
X116586000Y-44323000D01*
X113157000Y-45466000D02*
X115443000Y-45466000D01*
X109601000Y-49022000D02*
X113157000Y-45466000D01*
X109601000Y-65786000D02*
X109601000Y-49022000D01*
X124968000Y-40132000D02*
X121793000Y-40132000D01*
X104140000Y-105918000D02*
X104140000Y-102997000D01*
D26*
X108077000Y-117983000D02*
X108204000Y-117856000D01*
X108077000Y-118110000D02*
X108077000Y-117983000D01*
X108204000Y-117856000D02*
X108204000Y-109347000D01*
X108204000Y-106807000D02*
X110744000Y-109347000D01*
D27*
X84709000Y-79375000D02*
X85725000Y-79375000D01*
D26*
X87884000Y-75311000D02*
X87884000Y-60706000D01*
X86868000Y-59690000D02*
X71755000Y-59690000D01*
X60325000Y-100330000D02*
X65024000Y-100330000D01*
D27*
X83312000Y-80772000D02*
X84709000Y-79375000D01*
D26*
X70485000Y-43307000D02*
X70739000Y-43053000D01*
D27*
X126619000Y-106680000D02*
X126492000Y-106807000D01*
X126619000Y-84836000D02*
X126619000Y-106680000D01*
D26*
X71755000Y-59690000D02*
X70485000Y-58420000D01*
D27*
X78613000Y-93472000D02*
X83312000Y-88773000D01*
D26*
X85725000Y-79375000D02*
X85725000Y-77470000D01*
X85725000Y-77470000D02*
X87884000Y-75311000D01*
X70485000Y-58420000D02*
X70485000Y-43307000D01*
D27*
X78613000Y-98171000D02*
X78613000Y-93472000D01*
X83312000Y-88773000D02*
X83312000Y-80772000D01*
D26*
X87884000Y-60706000D02*
X86868000Y-59690000D01*
D28*
X97917000Y-97790000D02*
X107061000Y-97790000D01*
D25*
X97663000Y-88265000D02*
X96012000Y-88265000D01*
X99441000Y-90043000D02*
X97663000Y-88265000D01*
X96012000Y-88265000D02*
X95123000Y-87376000D01*
X95123000Y-87376000D02*
X95123000Y-59563000D01*
D28*
X110363000Y-59690000D02*
X110363000Y-71501000D01*
D26*
X86995000Y-74803000D02*
X86995000Y-61468000D01*
D27*
X127000000Y-61341000D02*
X128778000Y-61341000D01*
X81661000Y-88519000D02*
X81661000Y-78105000D01*
X125603000Y-73533000D02*
X125603000Y-62738000D01*
X125603000Y-62738000D02*
X127000000Y-61341000D01*
X74041000Y-106045000D02*
X74041000Y-96139000D01*
D26*
X81661000Y-78105000D02*
X81788000Y-77978000D01*
X68580000Y-60706000D02*
X67564000Y-59690000D01*
X83820000Y-77978000D02*
X86995000Y-74803000D01*
X86995000Y-61468000D02*
X86233000Y-60706000D01*
D27*
X74041000Y-96139000D02*
X81661000Y-88519000D01*
D26*
X86233000Y-60706000D02*
X68580000Y-60706000D01*
X81788000Y-77978000D02*
X83820000Y-77978000D01*
D25*
X92964000Y-80772000D02*
X92964000Y-63754000D01*
X92837000Y-81026000D02*
X92837000Y-80899000D01*
X92837000Y-80899000D02*
X92964000Y-80772000D01*
D28*
X138303000Y-65151000D02*
X138430000Y-65024000D01*
X138303000Y-84074000D02*
X138303000Y-65151000D01*
D25*
X101600000Y-102997000D02*
X101600000Y-111379000D01*
X86360000Y-48514000D02*
X86360000Y-46228000D01*
X93980000Y-65151000D02*
X94107000Y-65024000D01*
X93980000Y-81026000D02*
X93980000Y-65151000D01*
X96012000Y-66040000D02*
X96266000Y-65786000D01*
X96012000Y-81026000D02*
X96012000Y-66040000D01*
X104267000Y-91186000D02*
X104267000Y-87249000D01*
X116459000Y-62484000D02*
X116459000Y-59944000D01*
X120396000Y-74676000D02*
X120396000Y-82169000D01*
X113030000Y-67310000D02*
X120396000Y-74676000D01*
X113030000Y-60452000D02*
X113030000Y-67310000D01*
X88900000Y-59563000D02*
X88900000Y-66421000D01*
X88900000Y-66421000D02*
X89154000Y-66675000D01*
D27*
X126365000Y-59563000D02*
X126365000Y-52832000D01*
X111125000Y-104394000D02*
X122047000Y-104394000D01*
X123444000Y-62484000D02*
X126365000Y-59563000D01*
X110998000Y-104267000D02*
X111125000Y-104394000D01*
X123444000Y-102997000D02*
X123444000Y-62484000D01*
X122047000Y-104394000D02*
X123444000Y-102997000D01*
X73025000Y-110490000D02*
X73025000Y-109220000D01*
X72517000Y-96012000D02*
X72517000Y-107188000D01*
X72517000Y-107188000D02*
X72517000Y-108712000D01*
X73025000Y-109220000D02*
X72517000Y-108712000D01*
D25*
X69088000Y-54864000D02*
X64643000Y-54864000D01*
D26*
X75184000Y-39621000D02*
X75184000Y-39240000D01*
D27*
X70104000Y-93980000D02*
X74803000Y-89281000D01*
X70104000Y-112776000D02*
X70104000Y-93980000D01*
X74803000Y-89281000D02*
X75184000Y-89281000D01*
G04 #@! TA.AperFunction,Conductor*
G36*
X109719544Y-107775436D02*
G01*
X109746047Y-107781202D01*
X109755737Y-107788456D01*
X109759765Y-107789905D01*
X109762585Y-107793582D01*
X109774302Y-107802353D01*
X109838801Y-107866852D01*
X109990395Y-107976991D01*
X110033060Y-108032319D01*
X110039039Y-108101932D01*
X110006434Y-108163728D01*
X109990394Y-108177626D01*
X109954360Y-108203805D01*
X109954360Y-108203807D01*
X110608057Y-108857504D01*
X110547919Y-108873619D01*
X110432080Y-108940498D01*
X110337498Y-109035080D01*
X110270619Y-109150919D01*
X110254504Y-109211057D01*
X109629818Y-108586370D01*
X109596333Y-108525047D01*
X109593499Y-108498689D01*
X109593499Y-108410129D01*
X109593498Y-108410123D01*
X109593497Y-108410116D01*
X109587091Y-108350517D01*
X109567346Y-108297579D01*
X109536797Y-108215671D01*
X109536793Y-108215664D01*
X109488306Y-108150894D01*
X109463888Y-108085430D01*
X109478052Y-108018433D01*
X109577101Y-107831884D01*
X109596055Y-107812480D01*
X109612310Y-107790767D01*
X109620108Y-107787858D01*
X109625925Y-107781904D01*
X109652360Y-107775828D01*
X109677774Y-107766350D01*
X109685907Y-107768119D01*
X109694020Y-107766255D01*
X109719544Y-107775436D01*
G37*
G04 #@! TD.AperFunction*
G04 #@! TA.AperFunction,Conductor*
G36*
X112100420Y-107544990D02*
G01*
X112114313Y-107561023D01*
X112210655Y-107693627D01*
X112224148Y-107712199D01*
X112378806Y-107866857D01*
X112529969Y-107976682D01*
X112572635Y-108032011D01*
X112578614Y-108101625D01*
X112546009Y-108163420D01*
X112529969Y-108177318D01*
X112378806Y-108287142D01*
X112224146Y-108441802D01*
X112224142Y-108441807D01*
X112114008Y-108593394D01*
X112058678Y-108636060D01*
X111989065Y-108642039D01*
X111927270Y-108609433D01*
X111913372Y-108593394D01*
X111887192Y-108557360D01*
X111887191Y-108557360D01*
X111233494Y-109211057D01*
X111217381Y-109150919D01*
X111150502Y-109035080D01*
X111055920Y-108940498D01*
X110940081Y-108873619D01*
X110879940Y-108857504D01*
X111533638Y-108203807D01*
X111533638Y-108203806D01*
X111497606Y-108177628D01*
X111454939Y-108122299D01*
X111448959Y-108052685D01*
X111481565Y-107990890D01*
X111497599Y-107976994D01*
X111649199Y-107866852D01*
X111803852Y-107712199D01*
X111913683Y-107561028D01*
X111969011Y-107518364D01*
X112038624Y-107512385D01*
X112100420Y-107544990D01*
G37*
G04 #@! TD.AperFunction*
G04 #@! TA.AperFunction,Conductor*
G36*
X148412539Y-33040185D02*
G01*
X148458294Y-33092989D01*
X148469500Y-33144500D01*
X148469500Y-119255500D01*
X148449815Y-119322539D01*
X148397011Y-119368294D01*
X148345500Y-119379500D01*
X49654500Y-119379500D01*
X49587461Y-119359815D01*
X49541706Y-119307011D01*
X49530500Y-119255500D01*
X49530500Y-117368713D01*
X50206500Y-117368713D01*
X50206500Y-117581286D01*
X50239735Y-117791127D01*
X50239754Y-117791243D01*
X50303633Y-117987842D01*
X50305444Y-117993414D01*
X50401951Y-118182820D01*
X50526890Y-118354786D01*
X50677213Y-118505109D01*
X50849179Y-118630048D01*
X50849181Y-118630049D01*
X50849184Y-118630051D01*
X51038588Y-118726557D01*
X51240757Y-118792246D01*
X51450713Y-118825500D01*
X51450714Y-118825500D01*
X51663286Y-118825500D01*
X51663287Y-118825500D01*
X51873243Y-118792246D01*
X52075412Y-118726557D01*
X52264816Y-118630051D01*
X52393506Y-118536553D01*
X52436786Y-118505109D01*
X52436788Y-118505106D01*
X52436792Y-118505104D01*
X52587104Y-118354792D01*
X52587106Y-118354788D01*
X52587109Y-118354786D01*
X52712048Y-118182820D01*
X52712047Y-118182820D01*
X52712051Y-118182816D01*
X52716514Y-118174054D01*
X52764488Y-118123259D01*
X52832308Y-118106463D01*
X52898444Y-118128999D01*
X52937486Y-118174056D01*
X52941951Y-118182820D01*
X53066890Y-118354786D01*
X53217213Y-118505109D01*
X53389179Y-118630048D01*
X53389181Y-118630049D01*
X53389184Y-118630051D01*
X53578588Y-118726557D01*
X53780757Y-118792246D01*
X53990713Y-118825500D01*
X53990714Y-118825500D01*
X54203286Y-118825500D01*
X54203287Y-118825500D01*
X54413243Y-118792246D01*
X54615412Y-118726557D01*
X54804816Y-118630051D01*
X54933506Y-118536553D01*
X54976786Y-118505109D01*
X54976788Y-118505106D01*
X54976792Y-118505104D01*
X55127104Y-118354792D01*
X55127106Y-118354788D01*
X55127109Y-118354786D01*
X55252048Y-118182820D01*
X55252047Y-118182820D01*
X55252051Y-118182816D01*
X55348557Y-117993412D01*
X55414246Y-117791243D01*
X55447500Y-117581287D01*
X55447500Y-117368713D01*
X56434500Y-117368713D01*
X56434500Y-117581286D01*
X56467735Y-117791127D01*
X56467754Y-117791243D01*
X56531633Y-117987842D01*
X56533444Y-117993414D01*
X56629951Y-118182820D01*
X56754890Y-118354786D01*
X56905213Y-118505109D01*
X57077179Y-118630048D01*
X57077181Y-118630049D01*
X57077184Y-118630051D01*
X57266588Y-118726557D01*
X57468757Y-118792246D01*
X57678713Y-118825500D01*
X57678714Y-118825500D01*
X57891286Y-118825500D01*
X57891287Y-118825500D01*
X58101243Y-118792246D01*
X58303412Y-118726557D01*
X58492816Y-118630051D01*
X58621506Y-118536553D01*
X58664786Y-118505109D01*
X58664788Y-118505106D01*
X58664792Y-118505104D01*
X58815104Y-118354792D01*
X58815106Y-118354788D01*
X58815109Y-118354786D01*
X58940048Y-118182820D01*
X58940047Y-118182820D01*
X58940051Y-118182816D01*
X58944514Y-118174054D01*
X58992488Y-118123259D01*
X59060308Y-118106463D01*
X59126444Y-118128999D01*
X59165486Y-118174056D01*
X59169951Y-118182820D01*
X59294890Y-118354786D01*
X59445213Y-118505109D01*
X59617179Y-118630048D01*
X59617181Y-118630049D01*
X59617184Y-118630051D01*
X59806588Y-118726557D01*
X60008757Y-118792246D01*
X60218713Y-118825500D01*
X60218714Y-118825500D01*
X60431286Y-118825500D01*
X60431287Y-118825500D01*
X60641243Y-118792246D01*
X60843412Y-118726557D01*
X61032816Y-118630051D01*
X61161506Y-118536553D01*
X61204786Y-118505109D01*
X61204788Y-118505106D01*
X61204792Y-118505104D01*
X61355104Y-118354792D01*
X61355106Y-118354788D01*
X61355109Y-118354786D01*
X61480048Y-118182820D01*
X61480047Y-118182820D01*
X61480051Y-118182816D01*
X61576557Y-117993412D01*
X61642246Y-117791243D01*
X61675500Y-117581287D01*
X61675500Y-117395759D01*
X63965500Y-117395759D01*
X63965500Y-117554240D01*
X63996414Y-117709656D01*
X63996416Y-117709664D01*
X64057059Y-117856071D01*
X64057064Y-117856080D01*
X64145103Y-117987838D01*
X64145106Y-117987842D01*
X64257157Y-118099893D01*
X64257161Y-118099896D01*
X64388919Y-118187935D01*
X64388925Y-118187938D01*
X64388926Y-118187939D01*
X64535336Y-118248584D01*
X64690759Y-118279499D01*
X64690763Y-118279500D01*
X64690764Y-118279500D01*
X64849237Y-118279500D01*
X64849238Y-118279499D01*
X65004664Y-118248584D01*
X65151074Y-118187939D01*
X65282839Y-118099896D01*
X65394896Y-117987839D01*
X65482939Y-117856074D01*
X65543584Y-117709664D01*
X65574500Y-117554236D01*
X65574500Y-117395764D01*
X65574499Y-117395759D01*
X66505500Y-117395759D01*
X66505500Y-117554240D01*
X66536414Y-117709656D01*
X66536416Y-117709664D01*
X66597059Y-117856071D01*
X66597064Y-117856080D01*
X66685103Y-117987838D01*
X66685106Y-117987842D01*
X66797157Y-118099893D01*
X66797161Y-118099896D01*
X66928919Y-118187935D01*
X66928925Y-118187938D01*
X66928926Y-118187939D01*
X67075336Y-118248584D01*
X67230759Y-118279499D01*
X67230763Y-118279500D01*
X67230764Y-118279500D01*
X67389237Y-118279500D01*
X67389238Y-118279499D01*
X67544664Y-118248584D01*
X67691074Y-118187939D01*
X67822839Y-118099896D01*
X67934896Y-117987839D01*
X68022939Y-117856074D01*
X68083584Y-117709664D01*
X68114500Y-117554236D01*
X68114500Y-117395764D01*
X68083584Y-117240336D01*
X68027283Y-117104414D01*
X68022940Y-117093928D01*
X68022935Y-117093919D01*
X67934896Y-116962161D01*
X67934893Y-116962157D01*
X67822842Y-116850106D01*
X67822838Y-116850103D01*
X67691080Y-116762064D01*
X67691071Y-116762059D01*
X67544664Y-116701416D01*
X67544656Y-116701414D01*
X67389240Y-116670500D01*
X67389236Y-116670500D01*
X67230764Y-116670500D01*
X67230759Y-116670500D01*
X67075343Y-116701414D01*
X67075335Y-116701416D01*
X66928928Y-116762059D01*
X66928919Y-116762064D01*
X66797161Y-116850103D01*
X66797157Y-116850106D01*
X66685106Y-116962157D01*
X66685103Y-116962161D01*
X66597064Y-117093919D01*
X66597059Y-117093928D01*
X66536416Y-117240335D01*
X66536414Y-117240343D01*
X66505500Y-117395759D01*
X65574499Y-117395759D01*
X65543584Y-117240336D01*
X65487283Y-117104414D01*
X65482940Y-117093928D01*
X65482935Y-117093919D01*
X65394896Y-116962161D01*
X65394893Y-116962157D01*
X65282842Y-116850106D01*
X65282838Y-116850103D01*
X65151080Y-116762064D01*
X65151071Y-116762059D01*
X65004664Y-116701416D01*
X65004656Y-116701414D01*
X64849240Y-116670500D01*
X64849236Y-116670500D01*
X64690764Y-116670500D01*
X64690759Y-116670500D01*
X64535343Y-116701414D01*
X64535335Y-116701416D01*
X64388928Y-116762059D01*
X64388919Y-116762064D01*
X64257161Y-116850103D01*
X64257157Y-116850106D01*
X64145106Y-116962157D01*
X64145103Y-116962161D01*
X64057064Y-117093919D01*
X64057059Y-117093928D01*
X63996416Y-117240335D01*
X63996414Y-117240343D01*
X63965500Y-117395759D01*
X61675500Y-117395759D01*
X61675500Y-117368713D01*
X61642246Y-117158757D01*
X61576557Y-116956588D01*
X61480051Y-116767184D01*
X61480049Y-116767181D01*
X61480048Y-116767179D01*
X61355109Y-116595213D01*
X61204786Y-116444890D01*
X61032820Y-116319951D01*
X60843414Y-116223444D01*
X60843413Y-116223443D01*
X60843412Y-116223443D01*
X60641243Y-116157754D01*
X60641241Y-116157753D01*
X60641240Y-116157753D01*
X60479957Y-116132208D01*
X60431287Y-116124500D01*
X60218713Y-116124500D01*
X60170042Y-116132208D01*
X60008760Y-116157753D01*
X59806585Y-116223444D01*
X59617179Y-116319951D01*
X59445213Y-116444890D01*
X59294890Y-116595213D01*
X59169949Y-116767182D01*
X59165484Y-116775946D01*
X59117509Y-116826742D01*
X59049688Y-116843536D01*
X58983553Y-116820998D01*
X58944516Y-116775946D01*
X58940050Y-116767182D01*
X58815109Y-116595213D01*
X58664786Y-116444890D01*
X58492820Y-116319951D01*
X58303414Y-116223444D01*
X58303413Y-116223443D01*
X58303412Y-116223443D01*
X58101243Y-116157754D01*
X58101241Y-116157753D01*
X58101240Y-116157753D01*
X57939957Y-116132208D01*
X57891287Y-116124500D01*
X57678713Y-116124500D01*
X57630042Y-116132208D01*
X57468760Y-116157753D01*
X57266585Y-116223444D01*
X57077179Y-116319951D01*
X56905213Y-116444890D01*
X56754890Y-116595213D01*
X56629951Y-116767179D01*
X56533444Y-116956585D01*
X56467753Y-117158760D01*
X56434500Y-117368713D01*
X55447500Y-117368713D01*
X55414246Y-117158757D01*
X55348557Y-116956588D01*
X55252051Y-116767184D01*
X55252049Y-116767181D01*
X55252048Y-116767179D01*
X55127109Y-116595213D01*
X54976786Y-116444890D01*
X54804820Y-116319951D01*
X54615414Y-116223444D01*
X54615413Y-116223443D01*
X54615412Y-116223443D01*
X54413243Y-116157754D01*
X54413241Y-116157753D01*
X54413240Y-116157753D01*
X54251957Y-116132208D01*
X54203287Y-116124500D01*
X53990713Y-116124500D01*
X53942042Y-116132208D01*
X53780760Y-116157753D01*
X53578585Y-116223444D01*
X53389179Y-116319951D01*
X53217213Y-116444890D01*
X53066890Y-116595213D01*
X52941949Y-116767182D01*
X52937484Y-116775946D01*
X52889509Y-116826742D01*
X52821688Y-116843536D01*
X52755553Y-116820998D01*
X52716516Y-116775946D01*
X52712050Y-116767182D01*
X52587109Y-116595213D01*
X52436786Y-116444890D01*
X52264820Y-116319951D01*
X52075414Y-116223444D01*
X52075413Y-116223443D01*
X52075412Y-116223443D01*
X51873243Y-116157754D01*
X51873241Y-116157753D01*
X51873240Y-116157753D01*
X51711957Y-116132208D01*
X51663287Y-116124500D01*
X51450713Y-116124500D01*
X51402042Y-116132208D01*
X51240760Y-116157753D01*
X51038585Y-116223444D01*
X50849179Y-116319951D01*
X50677213Y-116444890D01*
X50526890Y-116595213D01*
X50401951Y-116767179D01*
X50305444Y-116956585D01*
X50239753Y-117158760D01*
X50206500Y-117368713D01*
X49530500Y-117368713D01*
X49530500Y-114062135D01*
X63444500Y-114062135D01*
X63444500Y-115807870D01*
X63444501Y-115807876D01*
X63450908Y-115867483D01*
X63501202Y-116002328D01*
X63501206Y-116002335D01*
X63587452Y-116117544D01*
X63587455Y-116117547D01*
X63702664Y-116203793D01*
X63702671Y-116203797D01*
X63837517Y-116254091D01*
X63837516Y-116254091D01*
X63844444Y-116254835D01*
X63897127Y-116260500D01*
X65642872Y-116260499D01*
X65702483Y-116254091D01*
X65837331Y-116203796D01*
X65952546Y-116117546D01*
X66038796Y-116002331D01*
X66089091Y-115867483D01*
X66095500Y-115807873D01*
X66095499Y-115789587D01*
X66098686Y-115775809D01*
X66109163Y-115757201D01*
X66115175Y-115736718D01*
X66125961Y-115727368D01*
X66132967Y-115714927D01*
X66151839Y-115704938D01*
X66167972Y-115690956D01*
X66183421Y-115688224D01*
X66194721Y-115682244D01*
X66208073Y-115683373D01*
X66786212Y-115105234D01*
X66797482Y-115147292D01*
X66869890Y-115272708D01*
X66972292Y-115375110D01*
X67097708Y-115447518D01*
X67139765Y-115458787D01*
X66566179Y-116032371D01*
X66566180Y-116032372D01*
X66615543Y-116068236D01*
X66615556Y-116068244D01*
X66801372Y-116162924D01*
X66999727Y-116227373D01*
X67205721Y-116260000D01*
X67414279Y-116260000D01*
X67620272Y-116227373D01*
X67818627Y-116162924D01*
X68004451Y-116068240D01*
X68053818Y-116032372D01*
X68053818Y-116032371D01*
X67480234Y-115458787D01*
X67522292Y-115447518D01*
X67647708Y-115375110D01*
X67750110Y-115272708D01*
X67822518Y-115147292D01*
X67833787Y-115105234D01*
X68407371Y-115678818D01*
X68407372Y-115678818D01*
X68443240Y-115629451D01*
X68537924Y-115443627D01*
X68602373Y-115245272D01*
X68635000Y-115039279D01*
X68635000Y-114830720D01*
X68602373Y-114624727D01*
X68537924Y-114426372D01*
X68443244Y-114240556D01*
X68443236Y-114240543D01*
X68407372Y-114191180D01*
X68407371Y-114191179D01*
X67833787Y-114764764D01*
X67822518Y-114722708D01*
X67750110Y-114597292D01*
X67647708Y-114494890D01*
X67522292Y-114422482D01*
X67480233Y-114411212D01*
X68053819Y-113837627D01*
X68004451Y-113801759D01*
X67818627Y-113707075D01*
X67620272Y-113642626D01*
X67414279Y-113610000D01*
X67205721Y-113610000D01*
X66999727Y-113642626D01*
X66801372Y-113707075D01*
X66615552Y-113801757D01*
X66566180Y-113837627D01*
X67139766Y-114411212D01*
X67097708Y-114422482D01*
X66972292Y-114494890D01*
X66869890Y-114597292D01*
X66797482Y-114722708D01*
X66786212Y-114764765D01*
X66206557Y-114185110D01*
X66160849Y-114175508D01*
X66111093Y-114126456D01*
X66098687Y-114094190D01*
X66095499Y-114080402D01*
X66095499Y-114062128D01*
X66089091Y-114002517D01*
X66038796Y-113867669D01*
X66038795Y-113867668D01*
X66038793Y-113867664D01*
X65952547Y-113752455D01*
X65952544Y-113752452D01*
X65837335Y-113666206D01*
X65837328Y-113666202D01*
X65702482Y-113615908D01*
X65702483Y-113615908D01*
X65642883Y-113609501D01*
X65642881Y-113609500D01*
X65642873Y-113609500D01*
X65642864Y-113609500D01*
X63897129Y-113609500D01*
X63897123Y-113609501D01*
X63837516Y-113615908D01*
X63702671Y-113666202D01*
X63702664Y-113666206D01*
X63587455Y-113752452D01*
X63587452Y-113752455D01*
X63501206Y-113867664D01*
X63501202Y-113867671D01*
X63450908Y-114002517D01*
X63444501Y-114062116D01*
X63444500Y-114062135D01*
X49530500Y-114062135D01*
X49530500Y-110850641D01*
X51340500Y-110850641D01*
X51340500Y-111149358D01*
X51373943Y-111446172D01*
X51373945Y-111446184D01*
X51440413Y-111737403D01*
X51440417Y-111737415D01*
X51539072Y-112019353D01*
X51668674Y-112288474D01*
X51827600Y-112541403D01*
X51827601Y-112541405D01*
X52013833Y-112774934D01*
X52225065Y-112986166D01*
X52458594Y-113172398D01*
X52458597Y-113172399D01*
X52458599Y-113172401D01*
X52711523Y-113331324D01*
X52980650Y-113460929D01*
X53192400Y-113535023D01*
X53262584Y-113559582D01*
X53262596Y-113559586D01*
X53553815Y-113626055D01*
X53850642Y-113659499D01*
X53850643Y-113659500D01*
X53850646Y-113659500D01*
X54149357Y-113659500D01*
X54149357Y-113659499D01*
X54446185Y-113626055D01*
X54737404Y-113559586D01*
X55019350Y-113460929D01*
X55288477Y-113331324D01*
X55541401Y-113172401D01*
X55657670Y-113079680D01*
X55774934Y-112986166D01*
X55774936Y-112986163D01*
X55774941Y-112986160D01*
X55886558Y-112874543D01*
X69103499Y-112874543D01*
X69141947Y-113067829D01*
X69141950Y-113067839D01*
X69217364Y-113249907D01*
X69217371Y-113249920D01*
X69326860Y-113413781D01*
X69326863Y-113413785D01*
X69466214Y-113553136D01*
X69466218Y-113553139D01*
X69630079Y-113662628D01*
X69630092Y-113662635D01*
X69811607Y-113737820D01*
X69812165Y-113738051D01*
X69812169Y-113738051D01*
X69812170Y-113738052D01*
X70005456Y-113776500D01*
X70005459Y-113776500D01*
X70202543Y-113776500D01*
X70332582Y-113750632D01*
X70395835Y-113738051D01*
X70569286Y-113666206D01*
X70577907Y-113662635D01*
X70577907Y-113662634D01*
X70577914Y-113662632D01*
X70741782Y-113553139D01*
X70881139Y-113413782D01*
X70990632Y-113249914D01*
X71066051Y-113067835D01*
X71104500Y-112874541D01*
X71104500Y-94445782D01*
X71124185Y-94378743D01*
X71140819Y-94358101D01*
X75181102Y-90317819D01*
X75242425Y-90284334D01*
X75268783Y-90281500D01*
X75282543Y-90281500D01*
X75412582Y-90255632D01*
X75475835Y-90243051D01*
X75657914Y-90167632D01*
X75821782Y-90058139D01*
X75961139Y-89918782D01*
X76070632Y-89754914D01*
X76146051Y-89572835D01*
X76166713Y-89468961D01*
X76184500Y-89379543D01*
X76184500Y-89182456D01*
X76146052Y-88989170D01*
X76146051Y-88989169D01*
X76146051Y-88989165D01*
X76139602Y-88973596D01*
X76070635Y-88807092D01*
X76070628Y-88807079D01*
X75961139Y-88643218D01*
X75961136Y-88643214D01*
X75821785Y-88503863D01*
X75821781Y-88503860D01*
X75657920Y-88394371D01*
X75657907Y-88394364D01*
X75475839Y-88318950D01*
X75475829Y-88318947D01*
X75282543Y-88280500D01*
X75282541Y-88280500D01*
X74907675Y-88280500D01*
X74907655Y-88280499D01*
X74901541Y-88280499D01*
X74704460Y-88280499D01*
X74704457Y-88280499D01*
X74511172Y-88318946D01*
X74511164Y-88318948D01*
X74329088Y-88394366D01*
X74329079Y-88394371D01*
X74165219Y-88503859D01*
X74165215Y-88503862D01*
X70617186Y-92051893D01*
X69466220Y-93202859D01*
X69466218Y-93202861D01*
X69396538Y-93272540D01*
X69326859Y-93342219D01*
X69217371Y-93506079D01*
X69217366Y-93506089D01*
X69203562Y-93539416D01*
X69172099Y-93615375D01*
X69164038Y-93634835D01*
X69141952Y-93688154D01*
X69141947Y-93688169D01*
X69133869Y-93728784D01*
X69103500Y-93881456D01*
X69103500Y-93881459D01*
X69103500Y-112874541D01*
X69103500Y-112874543D01*
X69103499Y-112874543D01*
X55886558Y-112874543D01*
X55986160Y-112774941D01*
X56034953Y-112713757D01*
X56172398Y-112541405D01*
X56172399Y-112541403D01*
X56172401Y-112541401D01*
X56331324Y-112288477D01*
X56460929Y-112019350D01*
X56559586Y-111737404D01*
X56626055Y-111446185D01*
X56659500Y-111149354D01*
X56659500Y-110850646D01*
X56626055Y-110553815D01*
X56559586Y-110262596D01*
X56555945Y-110252192D01*
X56505360Y-110107627D01*
X56460929Y-109980650D01*
X56331324Y-109711523D01*
X56172401Y-109458599D01*
X56172399Y-109458596D01*
X56172398Y-109458594D01*
X55986166Y-109225065D01*
X55774934Y-109013833D01*
X55541405Y-108827601D01*
X55541403Y-108827600D01*
X55288474Y-108668674D01*
X55019353Y-108539072D01*
X54737415Y-108440417D01*
X54737403Y-108440413D01*
X54512653Y-108389115D01*
X54446185Y-108373945D01*
X54446181Y-108373944D01*
X54446172Y-108373943D01*
X54149358Y-108340500D01*
X54149354Y-108340500D01*
X53850646Y-108340500D01*
X53850641Y-108340500D01*
X53553827Y-108373943D01*
X53553815Y-108373945D01*
X53262596Y-108440413D01*
X53262584Y-108440417D01*
X52980646Y-108539072D01*
X52711525Y-108668674D01*
X52458596Y-108827600D01*
X52458594Y-108827601D01*
X52225065Y-109013833D01*
X52013833Y-109225065D01*
X51827601Y-109458594D01*
X51827600Y-109458596D01*
X51668674Y-109711525D01*
X51539072Y-109980646D01*
X51440417Y-110262584D01*
X51440413Y-110262596D01*
X51373945Y-110553815D01*
X51373943Y-110553827D01*
X51340500Y-110850641D01*
X49530500Y-110850641D01*
X49530500Y-103242135D01*
X50079500Y-103242135D01*
X50079500Y-105037870D01*
X50079501Y-105037876D01*
X50085908Y-105097483D01*
X50136202Y-105232328D01*
X50136206Y-105232335D01*
X50222452Y-105347544D01*
X50222455Y-105347547D01*
X50337664Y-105433793D01*
X50337671Y-105433797D01*
X50472517Y-105484091D01*
X50472516Y-105484091D01*
X50479444Y-105484835D01*
X50532127Y-105490500D01*
X52327872Y-105490499D01*
X52387483Y-105484091D01*
X52522331Y-105433796D01*
X52637546Y-105347546D01*
X52723796Y-105232331D01*
X52772810Y-105100916D01*
X52814681Y-105044984D01*
X52880145Y-105020566D01*
X52948418Y-105035417D01*
X52976673Y-105056569D01*
X53090213Y-105170109D01*
X53262179Y-105295048D01*
X53262181Y-105295049D01*
X53262184Y-105295051D01*
X53451588Y-105391557D01*
X53653757Y-105457246D01*
X53863713Y-105490500D01*
X53863714Y-105490500D01*
X54076286Y-105490500D01*
X54076287Y-105490500D01*
X54286243Y-105457246D01*
X54488412Y-105391557D01*
X54677816Y-105295051D01*
X54716747Y-105266766D01*
X54849786Y-105170109D01*
X54849788Y-105170106D01*
X54849792Y-105170104D01*
X55000104Y-105019792D01*
X55000106Y-105019788D01*
X55000109Y-105019786D01*
X55125048Y-104847820D01*
X55125047Y-104847820D01*
X55125051Y-104847816D01*
X55221557Y-104658412D01*
X55287246Y-104456243D01*
X55320500Y-104246287D01*
X55320500Y-104033713D01*
X55287246Y-103823757D01*
X55221557Y-103621588D01*
X55125051Y-103432184D01*
X55125049Y-103432181D01*
X55125048Y-103432179D01*
X55000109Y-103260213D01*
X54849786Y-103109890D01*
X54677820Y-102984951D01*
X54488414Y-102888444D01*
X54488413Y-102888443D01*
X54488412Y-102888443D01*
X54286243Y-102822754D01*
X54286241Y-102822753D01*
X54286240Y-102822753D01*
X54124957Y-102797208D01*
X54076287Y-102789500D01*
X53863713Y-102789500D01*
X53815042Y-102797208D01*
X53653760Y-102822753D01*
X53451585Y-102888444D01*
X53262179Y-102984951D01*
X53090215Y-103109889D01*
X52976673Y-103223431D01*
X52915350Y-103256915D01*
X52845658Y-103251931D01*
X52789725Y-103210059D01*
X52772810Y-103179082D01*
X52723797Y-103047671D01*
X52723793Y-103047664D01*
X52637547Y-102932455D01*
X52637544Y-102932452D01*
X52522335Y-102846206D01*
X52522328Y-102846202D01*
X52387482Y-102795908D01*
X52387483Y-102795908D01*
X52327883Y-102789501D01*
X52327881Y-102789500D01*
X52327873Y-102789500D01*
X52327864Y-102789500D01*
X50532129Y-102789500D01*
X50532123Y-102789501D01*
X50472516Y-102795908D01*
X50337671Y-102846202D01*
X50337664Y-102846206D01*
X50222455Y-102932452D01*
X50222452Y-102932455D01*
X50136206Y-103047664D01*
X50136202Y-103047671D01*
X50085908Y-103182517D01*
X50079501Y-103242116D01*
X50079500Y-103242135D01*
X49530500Y-103242135D01*
X49530500Y-100241304D01*
X59424500Y-100241304D01*
X59424500Y-100418695D01*
X59459103Y-100592658D01*
X59459106Y-100592667D01*
X59526983Y-100756540D01*
X59526990Y-100756553D01*
X59625535Y-100904034D01*
X59625538Y-100904038D01*
X59750961Y-101029461D01*
X59750965Y-101029464D01*
X59898446Y-101128009D01*
X59898459Y-101128016D01*
X60021363Y-101178923D01*
X60062334Y-101195894D01*
X60062336Y-101195894D01*
X60062341Y-101195896D01*
X60236304Y-101230499D01*
X60236307Y-101230500D01*
X60236309Y-101230500D01*
X60413693Y-101230500D01*
X60413694Y-101230499D01*
X60471682Y-101218964D01*
X60587658Y-101195896D01*
X60587661Y-101195894D01*
X60587666Y-101195894D01*
X60751547Y-101128013D01*
X60751550Y-101128010D01*
X60751552Y-101128010D01*
X60791378Y-101101399D01*
X60858055Y-101080520D01*
X60860270Y-101080500D01*
X64488730Y-101080500D01*
X64555769Y-101100185D01*
X64557622Y-101101399D01*
X64597447Y-101128010D01*
X64597450Y-101128011D01*
X64597453Y-101128013D01*
X64761334Y-101195894D01*
X64761336Y-101195894D01*
X64761341Y-101195896D01*
X64935304Y-101230499D01*
X64935307Y-101230500D01*
X64935309Y-101230500D01*
X65112693Y-101230500D01*
X65112694Y-101230499D01*
X65170682Y-101218964D01*
X65286658Y-101195896D01*
X65286661Y-101195894D01*
X65286666Y-101195894D01*
X65450547Y-101128013D01*
X65598035Y-101029464D01*
X65723464Y-100904035D01*
X65822013Y-100756547D01*
X65889894Y-100592666D01*
X65924500Y-100418691D01*
X65924500Y-100241309D01*
X65924500Y-100241306D01*
X65924499Y-100241304D01*
X65889896Y-100067341D01*
X65889893Y-100067332D01*
X65822016Y-99903459D01*
X65822009Y-99903446D01*
X65723464Y-99755965D01*
X65723461Y-99755961D01*
X65598038Y-99630538D01*
X65598034Y-99630535D01*
X65450553Y-99531990D01*
X65450540Y-99531983D01*
X65286667Y-99464106D01*
X65286658Y-99464103D01*
X65112694Y-99429500D01*
X65112691Y-99429500D01*
X64935309Y-99429500D01*
X64935306Y-99429500D01*
X64761341Y-99464103D01*
X64761332Y-99464106D01*
X64597452Y-99531987D01*
X64597447Y-99531989D01*
X64557622Y-99558601D01*
X64490945Y-99579480D01*
X64488730Y-99579500D01*
X60860270Y-99579500D01*
X60793231Y-99559815D01*
X60791378Y-99558601D01*
X60751552Y-99531989D01*
X60751547Y-99531987D01*
X60587667Y-99464106D01*
X60587658Y-99464103D01*
X60413694Y-99429500D01*
X60413691Y-99429500D01*
X60236309Y-99429500D01*
X60236306Y-99429500D01*
X60062341Y-99464103D01*
X60062332Y-99464106D01*
X59898459Y-99531983D01*
X59898446Y-99531990D01*
X59750965Y-99630535D01*
X59750961Y-99630538D01*
X59625538Y-99755961D01*
X59625535Y-99755965D01*
X59526990Y-99903446D01*
X59526983Y-99903459D01*
X59459106Y-100067332D01*
X59459103Y-100067341D01*
X59424500Y-100241304D01*
X49530500Y-100241304D01*
X49530500Y-95136643D01*
X54218500Y-95136643D01*
X54218500Y-95409356D01*
X54218501Y-95409372D01*
X54254097Y-95679754D01*
X54324684Y-95943188D01*
X54429047Y-96195144D01*
X54429054Y-96195159D01*
X54565415Y-96431343D01*
X54731439Y-96647710D01*
X54731445Y-96647717D01*
X54924282Y-96840554D01*
X54924289Y-96840560D01*
X55140656Y-97006584D01*
X55376840Y-97142945D01*
X55376855Y-97142952D01*
X55507154Y-97196923D01*
X55628810Y-97247315D01*
X55892244Y-97317902D01*
X56162637Y-97353500D01*
X56162644Y-97353500D01*
X57375356Y-97353500D01*
X57375363Y-97353500D01*
X57645756Y-97317902D01*
X57909190Y-97247315D01*
X58161156Y-97142947D01*
X58397344Y-97006584D01*
X58613712Y-96840559D01*
X58806559Y-96647712D01*
X58972584Y-96431344D01*
X59108947Y-96195156D01*
X59213315Y-95943190D01*
X59283902Y-95679756D01*
X59319500Y-95409363D01*
X59319500Y-95136637D01*
X59283902Y-94866244D01*
X59213315Y-94602810D01*
X59126997Y-94394420D01*
X59108952Y-94350855D01*
X59108945Y-94350840D01*
X58972584Y-94114656D01*
X58846894Y-93950853D01*
X58806560Y-93898289D01*
X58806554Y-93898282D01*
X58613717Y-93705445D01*
X58613710Y-93705439D01*
X58496336Y-93615375D01*
X58455133Y-93558947D01*
X58450978Y-93489201D01*
X58485190Y-93428281D01*
X58546907Y-93395528D01*
X58571822Y-93392999D01*
X58618972Y-93392999D01*
X58618986Y-93392998D01*
X58721697Y-93382505D01*
X58888119Y-93327358D01*
X58888124Y-93327356D01*
X59037345Y-93235315D01*
X59161315Y-93111345D01*
X59253356Y-92962124D01*
X59253358Y-92962119D01*
X59308505Y-92795697D01*
X59308506Y-92795690D01*
X59318999Y-92692986D01*
X59319000Y-92692973D01*
X59319000Y-91563000D01*
X57585480Y-91563000D01*
X57586335Y-91560936D01*
X57619000Y-91396718D01*
X57619000Y-91229282D01*
X57586335Y-91065064D01*
X57585480Y-91063000D01*
X59318999Y-91063000D01*
X59318999Y-89933028D01*
X59318998Y-89933013D01*
X59308505Y-89830302D01*
X59253358Y-89663880D01*
X59253356Y-89663875D01*
X59161315Y-89514654D01*
X59037345Y-89390684D01*
X58888124Y-89298643D01*
X58888119Y-89298641D01*
X58721697Y-89243494D01*
X58721690Y-89243493D01*
X58618986Y-89233000D01*
X57019000Y-89233000D01*
X57019000Y-90496519D01*
X57016936Y-90495665D01*
X56852718Y-90463000D01*
X56685282Y-90463000D01*
X56521064Y-90495665D01*
X56519000Y-90496519D01*
X56519000Y-89233000D01*
X54919028Y-89233000D01*
X54919012Y-89233001D01*
X54816302Y-89243494D01*
X54649880Y-89298641D01*
X54649875Y-89298643D01*
X54500654Y-89390684D01*
X54376684Y-89514654D01*
X54284643Y-89663875D01*
X54284641Y-89663880D01*
X54229494Y-89830302D01*
X54229493Y-89830309D01*
X54219000Y-89933013D01*
X54219000Y-91063000D01*
X55952520Y-91063000D01*
X55951665Y-91065064D01*
X55919000Y-91229282D01*
X55919000Y-91396718D01*
X55951665Y-91560936D01*
X55952520Y-91563000D01*
X54219001Y-91563000D01*
X54219001Y-92692986D01*
X54229494Y-92795697D01*
X54284641Y-92962119D01*
X54284643Y-92962124D01*
X54376684Y-93111345D01*
X54500654Y-93235315D01*
X54649875Y-93327356D01*
X54649880Y-93327358D01*
X54816302Y-93382505D01*
X54816309Y-93382506D01*
X54919019Y-93392999D01*
X54966174Y-93392999D01*
X55033213Y-93412682D01*
X55078969Y-93465485D01*
X55088914Y-93534644D01*
X55059891Y-93598200D01*
X55041663Y-93615374D01*
X54924292Y-93705437D01*
X54924282Y-93705445D01*
X54731445Y-93898282D01*
X54731439Y-93898289D01*
X54565415Y-94114656D01*
X54429054Y-94350840D01*
X54429047Y-94350855D01*
X54324684Y-94602811D01*
X54254097Y-94866245D01*
X54218501Y-95136627D01*
X54218500Y-95136643D01*
X49530500Y-95136643D01*
X49530500Y-83454713D01*
X50719500Y-83454713D01*
X50719500Y-83667286D01*
X50746608Y-83838443D01*
X50752754Y-83877243D01*
X50811766Y-84058863D01*
X50818444Y-84079414D01*
X50914951Y-84268820D01*
X51039890Y-84440786D01*
X51190213Y-84591109D01*
X51362179Y-84716048D01*
X51362181Y-84716049D01*
X51362184Y-84716051D01*
X51551588Y-84812557D01*
X51753757Y-84878246D01*
X51963713Y-84911500D01*
X51963714Y-84911500D01*
X52176286Y-84911500D01*
X52176287Y-84911500D01*
X52386243Y-84878246D01*
X52588412Y-84812557D01*
X52777816Y-84716051D01*
X52871434Y-84648034D01*
X52949786Y-84591109D01*
X52949788Y-84591106D01*
X52949792Y-84591104D01*
X53100104Y-84440792D01*
X53100106Y-84440788D01*
X53100109Y-84440786D01*
X53225048Y-84268820D01*
X53225047Y-84268820D01*
X53225051Y-84268816D01*
X53321557Y-84079412D01*
X53387246Y-83877243D01*
X53420500Y-83667287D01*
X53420500Y-83454713D01*
X53387246Y-83244757D01*
X53321557Y-83042588D01*
X53225051Y-82853184D01*
X53225049Y-82853181D01*
X53225048Y-82853179D01*
X53100109Y-82681213D01*
X52986181Y-82567285D01*
X52952696Y-82505962D01*
X52957680Y-82436270D01*
X52999552Y-82380337D01*
X53030529Y-82363422D01*
X53162086Y-82314354D01*
X53162093Y-82314350D01*
X53277187Y-82228190D01*
X53277190Y-82228187D01*
X53363350Y-82113093D01*
X53363354Y-82113086D01*
X53413596Y-81978379D01*
X53413598Y-81978372D01*
X53419999Y-81918844D01*
X53420000Y-81918827D01*
X53420000Y-81271000D01*
X52503012Y-81271000D01*
X52535925Y-81213993D01*
X52570000Y-81086826D01*
X52570000Y-80955174D01*
X52535925Y-80828007D01*
X52503012Y-80771000D01*
X53420000Y-80771000D01*
X53420000Y-80123172D01*
X53419999Y-80123155D01*
X53413598Y-80063627D01*
X53413596Y-80063620D01*
X53363354Y-79928913D01*
X53363350Y-79928906D01*
X53277190Y-79813812D01*
X53277187Y-79813809D01*
X53162093Y-79727649D01*
X53162086Y-79727645D01*
X53027379Y-79677403D01*
X53027372Y-79677401D01*
X52967844Y-79671000D01*
X52320000Y-79671000D01*
X52320000Y-80587988D01*
X52262993Y-80555075D01*
X52135826Y-80521000D01*
X52004174Y-80521000D01*
X51877007Y-80555075D01*
X51820000Y-80587988D01*
X51820000Y-79671000D01*
X51172155Y-79671000D01*
X51112627Y-79677401D01*
X51112620Y-79677403D01*
X50977913Y-79727645D01*
X50977906Y-79727649D01*
X50862812Y-79813809D01*
X50862809Y-79813812D01*
X50776649Y-79928906D01*
X50776645Y-79928913D01*
X50726403Y-80063620D01*
X50726401Y-80063627D01*
X50720000Y-80123155D01*
X50720000Y-80771000D01*
X51636988Y-80771000D01*
X51604075Y-80828007D01*
X51570000Y-80955174D01*
X51570000Y-81086826D01*
X51604075Y-81213993D01*
X51636988Y-81271000D01*
X50720000Y-81271000D01*
X50720000Y-81918844D01*
X50726401Y-81978372D01*
X50726403Y-81978379D01*
X50776645Y-82113086D01*
X50776649Y-82113093D01*
X50862809Y-82228187D01*
X50862812Y-82228190D01*
X50977906Y-82314350D01*
X50977913Y-82314354D01*
X51109470Y-82363422D01*
X51165404Y-82405293D01*
X51189821Y-82470758D01*
X51174969Y-82539031D01*
X51153819Y-82567285D01*
X51039889Y-82681215D01*
X50914951Y-82853179D01*
X50818444Y-83042585D01*
X50752753Y-83244760D01*
X50719500Y-83454713D01*
X49530500Y-83454713D01*
X49530500Y-54775304D01*
X63742500Y-54775304D01*
X63742500Y-54952695D01*
X63777103Y-55126658D01*
X63777106Y-55126667D01*
X63844983Y-55290540D01*
X63844990Y-55290553D01*
X63943535Y-55438034D01*
X63943538Y-55438038D01*
X64068961Y-55563461D01*
X64068965Y-55563464D01*
X64216446Y-55662009D01*
X64216459Y-55662016D01*
X64292506Y-55693515D01*
X64380334Y-55729894D01*
X64380336Y-55729894D01*
X64380341Y-55729896D01*
X64554304Y-55764499D01*
X64554307Y-55764500D01*
X64554309Y-55764500D01*
X64731693Y-55764500D01*
X64731694Y-55764499D01*
X64789682Y-55752964D01*
X64905658Y-55729896D01*
X64905661Y-55729894D01*
X64905666Y-55729894D01*
X65069547Y-55662013D01*
X65217035Y-55563464D01*
X65304681Y-55475817D01*
X65366002Y-55442334D01*
X65392361Y-55439500D01*
X68338639Y-55439500D01*
X68405678Y-55459185D01*
X68426315Y-55475814D01*
X68513962Y-55563461D01*
X68513966Y-55563465D01*
X68661446Y-55662009D01*
X68661459Y-55662016D01*
X68737506Y-55693515D01*
X68825334Y-55729894D01*
X68825336Y-55729894D01*
X68825341Y-55729896D01*
X68999304Y-55764499D01*
X68999307Y-55764500D01*
X68999309Y-55764500D01*
X69176693Y-55764500D01*
X69176694Y-55764499D01*
X69234682Y-55752964D01*
X69350658Y-55729896D01*
X69350661Y-55729894D01*
X69350666Y-55729894D01*
X69514547Y-55662013D01*
X69541608Y-55643930D01*
X69608286Y-55623053D01*
X69675666Y-55641537D01*
X69722356Y-55693515D01*
X69734500Y-55747033D01*
X69734500Y-58493918D01*
X69734500Y-58493920D01*
X69734499Y-58493920D01*
X69763340Y-58638907D01*
X69763343Y-58638917D01*
X69819913Y-58775490D01*
X69819915Y-58775493D01*
X69829274Y-58789501D01*
X69902049Y-58898418D01*
X69902052Y-58898421D01*
X70747452Y-59743819D01*
X70780937Y-59805142D01*
X70775953Y-59874833D01*
X70734082Y-59930767D01*
X70668617Y-59955184D01*
X70659771Y-59955500D01*
X68942230Y-59955500D01*
X68875191Y-59935815D01*
X68854549Y-59919181D01*
X68473175Y-59537807D01*
X68439690Y-59476484D01*
X68439262Y-59474432D01*
X68429894Y-59427334D01*
X68406130Y-59369961D01*
X68362016Y-59263459D01*
X68362009Y-59263446D01*
X68263464Y-59115965D01*
X68263461Y-59115961D01*
X68138038Y-58990538D01*
X68138034Y-58990535D01*
X67990553Y-58891990D01*
X67990540Y-58891983D01*
X67826667Y-58824106D01*
X67826658Y-58824103D01*
X67652694Y-58789500D01*
X67652691Y-58789500D01*
X67475309Y-58789500D01*
X67475306Y-58789500D01*
X67301341Y-58824103D01*
X67301332Y-58824106D01*
X67137459Y-58891983D01*
X67137446Y-58891990D01*
X66989965Y-58990535D01*
X66989961Y-58990538D01*
X66864538Y-59115961D01*
X66864535Y-59115965D01*
X66765990Y-59263446D01*
X66765983Y-59263459D01*
X66698106Y-59427332D01*
X66698103Y-59427341D01*
X66663500Y-59601304D01*
X66663500Y-59778695D01*
X66698103Y-59952658D01*
X66698106Y-59952667D01*
X66765983Y-60116540D01*
X66765990Y-60116553D01*
X66864535Y-60264034D01*
X66864538Y-60264038D01*
X66989961Y-60389461D01*
X66989965Y-60389464D01*
X67137446Y-60488009D01*
X67137459Y-60488016D01*
X67209928Y-60518033D01*
X67301334Y-60555894D01*
X67348318Y-60565239D01*
X67410227Y-60597622D01*
X67411807Y-60599175D01*
X68101586Y-61288954D01*
X68130461Y-61308246D01*
X68144900Y-61317894D01*
X68224505Y-61371084D01*
X68361087Y-61427658D01*
X68361091Y-61427658D01*
X68361092Y-61427659D01*
X68506079Y-61456500D01*
X68506082Y-61456500D01*
X68506083Y-61456500D01*
X68653917Y-61456500D01*
X85870770Y-61456500D01*
X85937809Y-61476185D01*
X85958451Y-61492819D01*
X86208181Y-61742549D01*
X86241666Y-61803872D01*
X86244500Y-61830230D01*
X86244500Y-74440770D01*
X86224815Y-74507809D01*
X86208181Y-74528451D01*
X83545451Y-77191181D01*
X83484128Y-77224666D01*
X83457770Y-77227500D01*
X82181626Y-77227500D01*
X82134174Y-77218061D01*
X81952839Y-77142950D01*
X81952829Y-77142947D01*
X81759543Y-77104500D01*
X81759541Y-77104500D01*
X81562459Y-77104500D01*
X81562457Y-77104500D01*
X81369170Y-77142947D01*
X81369160Y-77142950D01*
X81187092Y-77218364D01*
X81187079Y-77218371D01*
X81023218Y-77327860D01*
X81023214Y-77327863D01*
X80883863Y-77467214D01*
X80883860Y-77467218D01*
X80774371Y-77631079D01*
X80774364Y-77631092D01*
X80698950Y-77813160D01*
X80698947Y-77813170D01*
X80660500Y-78006456D01*
X80660500Y-88053217D01*
X80640815Y-88120256D01*
X80624181Y-88140898D01*
X73430181Y-95334897D01*
X73368858Y-95368382D01*
X73299166Y-95363398D01*
X73254819Y-95334897D01*
X73154785Y-95234863D01*
X73154781Y-95234860D01*
X72990920Y-95125371D01*
X72990907Y-95125364D01*
X72808839Y-95049950D01*
X72808829Y-95049947D01*
X72615543Y-95011500D01*
X72615541Y-95011500D01*
X72418459Y-95011500D01*
X72418457Y-95011500D01*
X72225170Y-95049947D01*
X72225160Y-95049950D01*
X72043092Y-95125364D01*
X72043079Y-95125371D01*
X71879218Y-95234860D01*
X71879214Y-95234863D01*
X71739863Y-95374214D01*
X71739860Y-95374218D01*
X71630371Y-95538079D01*
X71630364Y-95538092D01*
X71554950Y-95720160D01*
X71554947Y-95720170D01*
X71516500Y-95913456D01*
X71516500Y-108810544D01*
X71554946Y-109003828D01*
X71554948Y-109003833D01*
X71562319Y-109021628D01*
X71630364Y-109185906D01*
X71630374Y-109185924D01*
X71710510Y-109305857D01*
X71731388Y-109372534D01*
X71723590Y-109418079D01*
X71680909Y-109532514D01*
X71680908Y-109532516D01*
X71674501Y-109592116D01*
X71674501Y-109592123D01*
X71674500Y-109592135D01*
X71674500Y-111387870D01*
X71674501Y-111387876D01*
X71680908Y-111447483D01*
X71731202Y-111582328D01*
X71731206Y-111582335D01*
X71817452Y-111697544D01*
X71817455Y-111697547D01*
X71932664Y-111783793D01*
X71932671Y-111783797D01*
X72064082Y-111832810D01*
X72120016Y-111874681D01*
X72144433Y-111940145D01*
X72129582Y-112008418D01*
X72108431Y-112036673D01*
X71994889Y-112150215D01*
X71869951Y-112322179D01*
X71773444Y-112511585D01*
X71707753Y-112713760D01*
X71684994Y-112857459D01*
X71674500Y-112923713D01*
X71674500Y-113136287D01*
X71707754Y-113346243D01*
X71745017Y-113460927D01*
X71773444Y-113548414D01*
X71869951Y-113737820D01*
X71994890Y-113909786D01*
X72145213Y-114060109D01*
X72317182Y-114185050D01*
X72325946Y-114189516D01*
X72376742Y-114237491D01*
X72393536Y-114305312D01*
X72370998Y-114371447D01*
X72325946Y-114410484D01*
X72317182Y-114414949D01*
X72145213Y-114539890D01*
X71994890Y-114690213D01*
X71869951Y-114862179D01*
X71773444Y-115051585D01*
X71707753Y-115253760D01*
X71694974Y-115334444D01*
X71674500Y-115463713D01*
X71674500Y-115676287D01*
X71684071Y-115736718D01*
X71706477Y-115878184D01*
X71707754Y-115886243D01*
X71766887Y-116068236D01*
X71773444Y-116088414D01*
X71869951Y-116277820D01*
X71994890Y-116449786D01*
X72145213Y-116600109D01*
X72317179Y-116725048D01*
X72317181Y-116725049D01*
X72317184Y-116725051D01*
X72506588Y-116821557D01*
X72708757Y-116887246D01*
X72918713Y-116920500D01*
X72918714Y-116920500D01*
X73131286Y-116920500D01*
X73131287Y-116920500D01*
X73341243Y-116887246D01*
X73543412Y-116821557D01*
X73732816Y-116725051D01*
X73777912Y-116692287D01*
X73904786Y-116600109D01*
X73904788Y-116600106D01*
X73904792Y-116600104D01*
X74025183Y-116479713D01*
X79675500Y-116479713D01*
X79675500Y-116692286D01*
X79706378Y-116887246D01*
X79708754Y-116902243D01*
X79764854Y-117074901D01*
X79774444Y-117104414D01*
X79870951Y-117293820D01*
X79995890Y-117465786D01*
X80146213Y-117616109D01*
X80318179Y-117741048D01*
X80318181Y-117741049D01*
X80318184Y-117741051D01*
X80507588Y-117837557D01*
X80709757Y-117903246D01*
X80919713Y-117936500D01*
X80919714Y-117936500D01*
X81132286Y-117936500D01*
X81132287Y-117936500D01*
X81342243Y-117903246D01*
X81544412Y-117837557D01*
X81733816Y-117741051D01*
X81813085Y-117683459D01*
X81905786Y-117616109D01*
X81905788Y-117616106D01*
X81905792Y-117616104D01*
X82056104Y-117465792D01*
X82056106Y-117465788D01*
X82056109Y-117465786D01*
X82181048Y-117293820D01*
X82181047Y-117293820D01*
X82181051Y-117293816D01*
X82277557Y-117104412D01*
X82343246Y-116902243D01*
X82376500Y-116692287D01*
X82376500Y-116479713D01*
X82343246Y-116269757D01*
X82277557Y-116067588D01*
X82181051Y-115878184D01*
X82181049Y-115878181D01*
X82181048Y-115878179D01*
X82056109Y-115706213D01*
X81905786Y-115555890D01*
X81733820Y-115430951D01*
X81544414Y-115334444D01*
X81544413Y-115334443D01*
X81544412Y-115334443D01*
X81342243Y-115268754D01*
X81342241Y-115268753D01*
X81342240Y-115268753D01*
X81180957Y-115243208D01*
X81132287Y-115235500D01*
X80919713Y-115235500D01*
X80871042Y-115243208D01*
X80709760Y-115268753D01*
X80507585Y-115334444D01*
X80318179Y-115430951D01*
X80146213Y-115555890D01*
X79995890Y-115706213D01*
X79870951Y-115878179D01*
X79774444Y-116067585D01*
X79708753Y-116269760D01*
X79675500Y-116479713D01*
X74025183Y-116479713D01*
X74055104Y-116449792D01*
X74059906Y-116443181D01*
X74089857Y-116401959D01*
X74089859Y-116401956D01*
X74120540Y-116359727D01*
X74180051Y-116277816D01*
X74276557Y-116088412D01*
X74342246Y-115886243D01*
X74375500Y-115676287D01*
X74375500Y-115463713D01*
X74342246Y-115253757D01*
X74276557Y-115051588D01*
X74180051Y-114862184D01*
X74180049Y-114862181D01*
X74180048Y-114862179D01*
X74055109Y-114690213D01*
X73904786Y-114539890D01*
X73732820Y-114414951D01*
X73732115Y-114414591D01*
X73724054Y-114410485D01*
X73673259Y-114362512D01*
X73656463Y-114294692D01*
X73678999Y-114228556D01*
X73724054Y-114189515D01*
X73732816Y-114185051D01*
X73813466Y-114126456D01*
X73904786Y-114060109D01*
X73904788Y-114060106D01*
X73904792Y-114060104D01*
X74055104Y-113909792D01*
X74055106Y-113909788D01*
X74055109Y-113909786D01*
X74169417Y-113752452D01*
X74180051Y-113737816D01*
X74276557Y-113548412D01*
X74342246Y-113346243D01*
X74375500Y-113136287D01*
X74375500Y-113050713D01*
X82850500Y-113050713D01*
X82850500Y-113263286D01*
X82881803Y-113460929D01*
X82883754Y-113473243D01*
X82946450Y-113666202D01*
X82949444Y-113675414D01*
X83045951Y-113864820D01*
X83170890Y-114036786D01*
X83321213Y-114187109D01*
X83493179Y-114312048D01*
X83493181Y-114312049D01*
X83493184Y-114312051D01*
X83682588Y-114408557D01*
X83884757Y-114474246D01*
X84094713Y-114507500D01*
X84094714Y-114507500D01*
X84307286Y-114507500D01*
X84307287Y-114507500D01*
X84517243Y-114474246D01*
X84719412Y-114408557D01*
X84908816Y-114312051D01*
X84950788Y-114281557D01*
X85080786Y-114187109D01*
X85080788Y-114187106D01*
X85080792Y-114187104D01*
X85231104Y-114036792D01*
X85231106Y-114036788D01*
X85231109Y-114036786D01*
X85356048Y-113864820D01*
X85356047Y-113864820D01*
X85356051Y-113864816D01*
X85452557Y-113675412D01*
X85518246Y-113473243D01*
X85551500Y-113263287D01*
X85551500Y-113050713D01*
X85518246Y-112840757D01*
X85452557Y-112638588D01*
X85382271Y-112500643D01*
X86034500Y-112500643D01*
X86034500Y-113813356D01*
X86034501Y-113813372D01*
X86070097Y-114083754D01*
X86140684Y-114347188D01*
X86245047Y-114599144D01*
X86245054Y-114599159D01*
X86381415Y-114835343D01*
X86547439Y-115051710D01*
X86547445Y-115051717D01*
X86740282Y-115244554D01*
X86740289Y-115244560D01*
X86956656Y-115410584D01*
X87192840Y-115546945D01*
X87192855Y-115546952D01*
X87320225Y-115599710D01*
X87444810Y-115651315D01*
X87708244Y-115721902D01*
X87978637Y-115757500D01*
X87978644Y-115757500D01*
X88251356Y-115757500D01*
X88251363Y-115757500D01*
X88521756Y-115721902D01*
X88785190Y-115651315D01*
X89037156Y-115546947D01*
X89273344Y-115410584D01*
X89489712Y-115244559D01*
X89682559Y-115051712D01*
X89772126Y-114934985D01*
X89828551Y-114893784D01*
X89898297Y-114889629D01*
X89959218Y-114923841D01*
X89991971Y-114985557D01*
X89994500Y-115010471D01*
X89994500Y-115056999D01*
X89994501Y-115057019D01*
X90005000Y-115159796D01*
X90005001Y-115159799D01*
X90060185Y-115326331D01*
X90060187Y-115326336D01*
X90065188Y-115334444D01*
X90152288Y-115475656D01*
X90276344Y-115599712D01*
X90425666Y-115691814D01*
X90592203Y-115746999D01*
X90694991Y-115757500D01*
X93455008Y-115757499D01*
X93557797Y-115746999D01*
X93724334Y-115691814D01*
X93873656Y-115599712D01*
X93997712Y-115475656D01*
X94089814Y-115326334D01*
X94144999Y-115159797D01*
X94155500Y-115057009D01*
X94155499Y-113050713D01*
X94534500Y-113050713D01*
X94534500Y-113263286D01*
X94565803Y-113460929D01*
X94567754Y-113473243D01*
X94630450Y-113666202D01*
X94633444Y-113675414D01*
X94729951Y-113864820D01*
X94854890Y-114036786D01*
X95005213Y-114187109D01*
X95177179Y-114312048D01*
X95177181Y-114312049D01*
X95177184Y-114312051D01*
X95366588Y-114408557D01*
X95568757Y-114474246D01*
X95778713Y-114507500D01*
X95778714Y-114507500D01*
X95991286Y-114507500D01*
X95991287Y-114507500D01*
X96201243Y-114474246D01*
X96403412Y-114408557D01*
X96592816Y-114312051D01*
X96634788Y-114281557D01*
X96764786Y-114187109D01*
X96764788Y-114187106D01*
X96764792Y-114187104D01*
X96915104Y-114036792D01*
X96915106Y-114036788D01*
X96915109Y-114036786D01*
X97040048Y-113864820D01*
X97040047Y-113864820D01*
X97040051Y-113864816D01*
X97136557Y-113675412D01*
X97202246Y-113473243D01*
X97235500Y-113263287D01*
X97235500Y-113050713D01*
X97202246Y-112840757D01*
X97136557Y-112638588D01*
X97040051Y-112449184D01*
X97040049Y-112449181D01*
X97040048Y-112449179D01*
X96915109Y-112277213D01*
X96764786Y-112126890D01*
X96592820Y-112001951D01*
X96403414Y-111905444D01*
X96403413Y-111905443D01*
X96403412Y-111905443D01*
X96201243Y-111839754D01*
X96201241Y-111839753D01*
X96201240Y-111839753D01*
X96039957Y-111814208D01*
X95991287Y-111806500D01*
X95778713Y-111806500D01*
X95730042Y-111814208D01*
X95568760Y-111839753D01*
X95366585Y-111905444D01*
X95177179Y-112001951D01*
X95005213Y-112126890D01*
X94854890Y-112277213D01*
X94729951Y-112449179D01*
X94633444Y-112638585D01*
X94567753Y-112840760D01*
X94534500Y-113050713D01*
X94155499Y-113050713D01*
X94155499Y-111256992D01*
X94144999Y-111154203D01*
X94089814Y-110987666D01*
X93997712Y-110838344D01*
X93873656Y-110714288D01*
X93724334Y-110622186D01*
X93557797Y-110567001D01*
X93557795Y-110567000D01*
X93455010Y-110556500D01*
X90694998Y-110556500D01*
X90694981Y-110556501D01*
X90592203Y-110567000D01*
X90592200Y-110567001D01*
X90425668Y-110622185D01*
X90425663Y-110622187D01*
X90276342Y-110714289D01*
X90152289Y-110838342D01*
X90060187Y-110987663D01*
X90060186Y-110987666D01*
X90005001Y-111154203D01*
X90005001Y-111154204D01*
X90005000Y-111154204D01*
X89994500Y-111256983D01*
X89994500Y-111303524D01*
X89974815Y-111370563D01*
X89922011Y-111416318D01*
X89852853Y-111426262D01*
X89789297Y-111397237D01*
X89772124Y-111379011D01*
X89704056Y-111290304D01*
X89682559Y-111262288D01*
X89682557Y-111262286D01*
X89682554Y-111262282D01*
X89489717Y-111069445D01*
X89489710Y-111069439D01*
X89273343Y-110903415D01*
X89037159Y-110767054D01*
X89037144Y-110767047D01*
X88785188Y-110662684D01*
X88521754Y-110592097D01*
X88251372Y-110556501D01*
X88251369Y-110556500D01*
X88251363Y-110556500D01*
X87978637Y-110556500D01*
X87978631Y-110556500D01*
X87978627Y-110556501D01*
X87708245Y-110592097D01*
X87444811Y-110662684D01*
X87192855Y-110767047D01*
X87192840Y-110767054D01*
X86956656Y-110903415D01*
X86740289Y-111069439D01*
X86740282Y-111069445D01*
X86547445Y-111262282D01*
X86547439Y-111262289D01*
X86381415Y-111478656D01*
X86245054Y-111714840D01*
X86245047Y-111714855D01*
X86140684Y-111966811D01*
X86070097Y-112230245D01*
X86034501Y-112500627D01*
X86034500Y-112500643D01*
X85382271Y-112500643D01*
X85356051Y-112449184D01*
X85356049Y-112449181D01*
X85356048Y-112449179D01*
X85231109Y-112277213D01*
X85080786Y-112126890D01*
X84908820Y-112001951D01*
X84719414Y-111905444D01*
X84719413Y-111905443D01*
X84719412Y-111905443D01*
X84517243Y-111839754D01*
X84517241Y-111839753D01*
X84517240Y-111839753D01*
X84355957Y-111814208D01*
X84307287Y-111806500D01*
X84094713Y-111806500D01*
X84046042Y-111814208D01*
X83884760Y-111839753D01*
X83682585Y-111905444D01*
X83493179Y-112001951D01*
X83321213Y-112126890D01*
X83170890Y-112277213D01*
X83045951Y-112449179D01*
X82949444Y-112638585D01*
X82883753Y-112840760D01*
X82850500Y-113050713D01*
X74375500Y-113050713D01*
X74375500Y-112923713D01*
X74342246Y-112713757D01*
X74276557Y-112511588D01*
X74180051Y-112322184D01*
X74180049Y-112322181D01*
X74180048Y-112322179D01*
X74055109Y-112150213D01*
X73941569Y-112036673D01*
X73908084Y-111975350D01*
X73913068Y-111905658D01*
X73954940Y-111849725D01*
X73985915Y-111832810D01*
X74117331Y-111783796D01*
X74232546Y-111697546D01*
X74318796Y-111582331D01*
X74369091Y-111447483D01*
X74375500Y-111387873D01*
X74375499Y-109592128D01*
X74369091Y-109532517D01*
X74341521Y-109458599D01*
X74318797Y-109397671D01*
X74318793Y-109397664D01*
X74232547Y-109282455D01*
X74232544Y-109282452D01*
X74117335Y-109196206D01*
X74117332Y-109196205D01*
X74117331Y-109196204D01*
X74098988Y-109189362D01*
X74043057Y-109147490D01*
X74020709Y-109097373D01*
X74005642Y-109021625D01*
X73987052Y-108928171D01*
X73987051Y-108928164D01*
X73955811Y-108852745D01*
X73945395Y-108827599D01*
X73911635Y-108746093D01*
X73911634Y-108746092D01*
X73911632Y-108746086D01*
X73823014Y-108613460D01*
X73802140Y-108582219D01*
X73744968Y-108525047D01*
X73662782Y-108442861D01*
X73662781Y-108442860D01*
X73553819Y-108333898D01*
X73520334Y-108272575D01*
X73517500Y-108246217D01*
X73517500Y-107096671D01*
X73537185Y-107029632D01*
X73589989Y-106983877D01*
X73659147Y-106973933D01*
X73688948Y-106982108D01*
X73749165Y-107007051D01*
X73749169Y-107007051D01*
X73749170Y-107007052D01*
X73942456Y-107045500D01*
X73942459Y-107045500D01*
X74139543Y-107045500D01*
X74269582Y-107019632D01*
X74332835Y-107007051D01*
X74481438Y-106945498D01*
X74514907Y-106931635D01*
X74514907Y-106931634D01*
X74514914Y-106931632D01*
X74537776Y-106916356D01*
X74678784Y-106822138D01*
X74678785Y-106822136D01*
X74818136Y-106682785D01*
X74818139Y-106682782D01*
X74927632Y-106518914D01*
X75003051Y-106336835D01*
X75034115Y-106180667D01*
X75041500Y-106143543D01*
X75041500Y-102908304D01*
X100699500Y-102908304D01*
X100699500Y-103085695D01*
X100734103Y-103259658D01*
X100734106Y-103259667D01*
X100801983Y-103423540D01*
X100801990Y-103423553D01*
X100900534Y-103571033D01*
X100900535Y-103571034D01*
X100900536Y-103571035D01*
X100988182Y-103658681D01*
X101021666Y-103720002D01*
X101024500Y-103746361D01*
X101024500Y-110629638D01*
X101004815Y-110696677D01*
X100988181Y-110717319D01*
X100900538Y-110804961D01*
X100900535Y-110804965D01*
X100801990Y-110952446D01*
X100801983Y-110952459D01*
X100734106Y-111116332D01*
X100734103Y-111116341D01*
X100699500Y-111290304D01*
X100699500Y-111467695D01*
X100734103Y-111641658D01*
X100734106Y-111641667D01*
X100801983Y-111805540D01*
X100801990Y-111805553D01*
X100900535Y-111953034D01*
X100900538Y-111953038D01*
X101025961Y-112078461D01*
X101025965Y-112078464D01*
X101173446Y-112177009D01*
X101173459Y-112177016D01*
X101296363Y-112227923D01*
X101337334Y-112244894D01*
X101337336Y-112244894D01*
X101337341Y-112244896D01*
X101511304Y-112279499D01*
X101511307Y-112279500D01*
X101511309Y-112279500D01*
X101688693Y-112279500D01*
X101688694Y-112279499D01*
X101746682Y-112267964D01*
X101862658Y-112244896D01*
X101862661Y-112244894D01*
X101862666Y-112244894D01*
X102026547Y-112177013D01*
X102174035Y-112078464D01*
X102299464Y-111953035D01*
X102398013Y-111805547D01*
X102465894Y-111641666D01*
X102500500Y-111467691D01*
X102500500Y-111290309D01*
X102500500Y-111290306D01*
X102500499Y-111290304D01*
X102465896Y-111116341D01*
X102465893Y-111116332D01*
X102398016Y-110952459D01*
X102398009Y-110952446D01*
X102299464Y-110804965D01*
X102299461Y-110804961D01*
X102211819Y-110717319D01*
X102178334Y-110655996D01*
X102175500Y-110629638D01*
X102175500Y-108410135D01*
X106814500Y-108410135D01*
X106814500Y-110283870D01*
X106814501Y-110283876D01*
X106820908Y-110343483D01*
X106871202Y-110478328D01*
X106871206Y-110478335D01*
X106957452Y-110593544D01*
X106957455Y-110593547D01*
X107072664Y-110679793D01*
X107072671Y-110679797D01*
X107117618Y-110696561D01*
X107207517Y-110730091D01*
X107267127Y-110736500D01*
X107329500Y-110736499D01*
X107396538Y-110756183D01*
X107442294Y-110808986D01*
X107453500Y-110860499D01*
X107453500Y-113067468D01*
X107451117Y-113091659D01*
X107430500Y-113195305D01*
X107430500Y-113195309D01*
X107430500Y-113372691D01*
X107430500Y-113372693D01*
X107430499Y-113372693D01*
X107448051Y-113460927D01*
X107450500Y-113473239D01*
X107451117Y-113476338D01*
X107453500Y-113500530D01*
X107453500Y-117408638D01*
X107433815Y-117475677D01*
X107417181Y-117496319D01*
X107377538Y-117535961D01*
X107377535Y-117535965D01*
X107278990Y-117683446D01*
X107278983Y-117683459D01*
X107211106Y-117847332D01*
X107211103Y-117847341D01*
X107176500Y-118021304D01*
X107176500Y-118198695D01*
X107211103Y-118372658D01*
X107211106Y-118372667D01*
X107278983Y-118536540D01*
X107278990Y-118536553D01*
X107377535Y-118684034D01*
X107377538Y-118684038D01*
X107502961Y-118809461D01*
X107502965Y-118809464D01*
X107650446Y-118908009D01*
X107650459Y-118908016D01*
X107773363Y-118958923D01*
X107814334Y-118975894D01*
X107814336Y-118975894D01*
X107814341Y-118975896D01*
X107988304Y-119010499D01*
X107988307Y-119010500D01*
X107988309Y-119010500D01*
X108165693Y-119010500D01*
X108165694Y-119010499D01*
X108223682Y-118998964D01*
X108339658Y-118975896D01*
X108339661Y-118975894D01*
X108339666Y-118975894D01*
X108503547Y-118908013D01*
X108651035Y-118809464D01*
X108776464Y-118684035D01*
X108875013Y-118536547D01*
X108942894Y-118372666D01*
X108946450Y-118354792D01*
X108977499Y-118198695D01*
X108977500Y-118198693D01*
X108977500Y-118021308D01*
X108977499Y-118021305D01*
X108956883Y-117917659D01*
X108954500Y-117893468D01*
X108954500Y-117368713D01*
X127173500Y-117368713D01*
X127173500Y-117581286D01*
X127206735Y-117791127D01*
X127206754Y-117791243D01*
X127270633Y-117987842D01*
X127272444Y-117993414D01*
X127368951Y-118182820D01*
X127493890Y-118354786D01*
X127644213Y-118505109D01*
X127816179Y-118630048D01*
X127816181Y-118630049D01*
X127816184Y-118630051D01*
X128005588Y-118726557D01*
X128207757Y-118792246D01*
X128417713Y-118825500D01*
X128417714Y-118825500D01*
X128630286Y-118825500D01*
X128630287Y-118825500D01*
X128840243Y-118792246D01*
X129042412Y-118726557D01*
X129231816Y-118630051D01*
X129360506Y-118536553D01*
X129403786Y-118505109D01*
X129403788Y-118505106D01*
X129403792Y-118505104D01*
X129554104Y-118354792D01*
X129554106Y-118354788D01*
X129554109Y-118354786D01*
X129679048Y-118182820D01*
X129679047Y-118182820D01*
X129679051Y-118182816D01*
X129683514Y-118174054D01*
X129731488Y-118123259D01*
X129799308Y-118106463D01*
X129865444Y-118128999D01*
X129904486Y-118174056D01*
X129908951Y-118182820D01*
X130033890Y-118354786D01*
X130184213Y-118505109D01*
X130356179Y-118630048D01*
X130356181Y-118630049D01*
X130356184Y-118630051D01*
X130545588Y-118726557D01*
X130747757Y-118792246D01*
X130957713Y-118825500D01*
X130957714Y-118825500D01*
X131170286Y-118825500D01*
X131170287Y-118825500D01*
X131380243Y-118792246D01*
X131582412Y-118726557D01*
X131771816Y-118630051D01*
X131900506Y-118536553D01*
X131943786Y-118505109D01*
X131943788Y-118505106D01*
X131943792Y-118505104D01*
X132094104Y-118354792D01*
X132094106Y-118354788D01*
X132094109Y-118354786D01*
X132219048Y-118182820D01*
X132219047Y-118182820D01*
X132219051Y-118182816D01*
X132315557Y-117993412D01*
X132381246Y-117791243D01*
X132414500Y-117581287D01*
X132414500Y-117368753D01*
X135175000Y-117368753D01*
X135175000Y-117581246D01*
X135208242Y-117791127D01*
X135208242Y-117791130D01*
X135273904Y-117993217D01*
X135370375Y-118182550D01*
X135409728Y-118236716D01*
X136042037Y-117604408D01*
X136059075Y-117667993D01*
X136124901Y-117782007D01*
X136217993Y-117875099D01*
X136332007Y-117940925D01*
X136395590Y-117957962D01*
X135763282Y-118590269D01*
X135763282Y-118590270D01*
X135817449Y-118629624D01*
X136006782Y-118726095D01*
X136208870Y-118791757D01*
X136418754Y-118825000D01*
X136631246Y-118825000D01*
X136841127Y-118791757D01*
X136841130Y-118791757D01*
X137043217Y-118726095D01*
X137232554Y-118629622D01*
X137286716Y-118590270D01*
X137286717Y-118590270D01*
X136654408Y-117957962D01*
X136717993Y-117940925D01*
X136832007Y-117875099D01*
X136925099Y-117782007D01*
X136990925Y-117667993D01*
X137007962Y-117604408D01*
X137640270Y-118236717D01*
X137640270Y-118236716D01*
X137679622Y-118182554D01*
X137684514Y-118172954D01*
X137732488Y-118122157D01*
X137800308Y-118105361D01*
X137866444Y-118127897D01*
X137905486Y-118172954D01*
X137910379Y-118182558D01*
X138035272Y-118354459D01*
X138035276Y-118354464D01*
X138185535Y-118504723D01*
X138185540Y-118504727D01*
X138357442Y-118629620D01*
X138546782Y-118726095D01*
X138748871Y-118791757D01*
X138815000Y-118802231D01*
X138815000Y-117908012D01*
X138872007Y-117940925D01*
X138999174Y-117975000D01*
X139130826Y-117975000D01*
X139257993Y-117940925D01*
X139315000Y-117908012D01*
X139315000Y-118802230D01*
X139381126Y-118791757D01*
X139381129Y-118791757D01*
X139583217Y-118726095D01*
X139772557Y-118629620D01*
X139944459Y-118504727D01*
X139944464Y-118504723D01*
X140094723Y-118354464D01*
X140094727Y-118354459D01*
X140219620Y-118182557D01*
X140316095Y-117993217D01*
X140381757Y-117791129D01*
X140381757Y-117791126D01*
X140392231Y-117725000D01*
X139498012Y-117725000D01*
X139530925Y-117667993D01*
X139565000Y-117540826D01*
X139565000Y-117409174D01*
X139530925Y-117282007D01*
X139498012Y-117225000D01*
X140392231Y-117225000D01*
X140381757Y-117158873D01*
X140381757Y-117158870D01*
X140316095Y-116956782D01*
X140219620Y-116767442D01*
X140094727Y-116595540D01*
X140094723Y-116595535D01*
X139944464Y-116445276D01*
X139944459Y-116445272D01*
X139772557Y-116320379D01*
X139583215Y-116223903D01*
X139381124Y-116158241D01*
X139315000Y-116147768D01*
X139315000Y-117041988D01*
X139257993Y-117009075D01*
X139130826Y-116975000D01*
X138999174Y-116975000D01*
X138872007Y-117009075D01*
X138815000Y-117041988D01*
X138815000Y-116147768D01*
X138814999Y-116147768D01*
X138748875Y-116158241D01*
X138546784Y-116223903D01*
X138357442Y-116320379D01*
X138185540Y-116445272D01*
X138185535Y-116445276D01*
X138035276Y-116595535D01*
X138035272Y-116595540D01*
X137910377Y-116767444D01*
X137905484Y-116777048D01*
X137857509Y-116827844D01*
X137789688Y-116844638D01*
X137723553Y-116822100D01*
X137684516Y-116777048D01*
X137679626Y-116767452D01*
X137640270Y-116713282D01*
X137640269Y-116713282D01*
X137007962Y-117345590D01*
X136990925Y-117282007D01*
X136925099Y-117167993D01*
X136832007Y-117074901D01*
X136717993Y-117009075D01*
X136654409Y-116992037D01*
X137286716Y-116359728D01*
X137232550Y-116320375D01*
X137043217Y-116223904D01*
X136841129Y-116158242D01*
X136631246Y-116125000D01*
X136418754Y-116125000D01*
X136208872Y-116158242D01*
X136208869Y-116158242D01*
X136006782Y-116223904D01*
X135817439Y-116320380D01*
X135763282Y-116359727D01*
X135763282Y-116359728D01*
X136395591Y-116992037D01*
X136332007Y-117009075D01*
X136217993Y-117074901D01*
X136124901Y-117167993D01*
X136059075Y-117282007D01*
X136042037Y-117345590D01*
X135409728Y-116713282D01*
X135409727Y-116713282D01*
X135370380Y-116767439D01*
X135273904Y-116956782D01*
X135208242Y-117158869D01*
X135208242Y-117158872D01*
X135175000Y-117368753D01*
X132414500Y-117368753D01*
X132414500Y-117368713D01*
X132381246Y-117158757D01*
X132315557Y-116956588D01*
X132219051Y-116767184D01*
X132219049Y-116767181D01*
X132219048Y-116767179D01*
X132094109Y-116595213D01*
X131943786Y-116444890D01*
X131771820Y-116319951D01*
X131582414Y-116223444D01*
X131582413Y-116223443D01*
X131582412Y-116223443D01*
X131380243Y-116157754D01*
X131380241Y-116157753D01*
X131380240Y-116157753D01*
X131218957Y-116132208D01*
X131170287Y-116124500D01*
X130957713Y-116124500D01*
X130909042Y-116132208D01*
X130747760Y-116157753D01*
X130545585Y-116223444D01*
X130356179Y-116319951D01*
X130184213Y-116444890D01*
X130033890Y-116595213D01*
X129908949Y-116767182D01*
X129904484Y-116775946D01*
X129856509Y-116826742D01*
X129788688Y-116843536D01*
X129722553Y-116820998D01*
X129683516Y-116775946D01*
X129679050Y-116767182D01*
X129554109Y-116595213D01*
X129403786Y-116444890D01*
X129231820Y-116319951D01*
X129042414Y-116223444D01*
X129042413Y-116223443D01*
X129042412Y-116223443D01*
X128840243Y-116157754D01*
X128840241Y-116157753D01*
X128840240Y-116157753D01*
X128678957Y-116132208D01*
X128630287Y-116124500D01*
X128417713Y-116124500D01*
X128369042Y-116132208D01*
X128207760Y-116157753D01*
X128005585Y-116223444D01*
X127816179Y-116319951D01*
X127644213Y-116444890D01*
X127493890Y-116595213D01*
X127368951Y-116767179D01*
X127272444Y-116956585D01*
X127206753Y-117158760D01*
X127173500Y-117368713D01*
X108954500Y-117368713D01*
X108954500Y-113985361D01*
X108974185Y-113918322D01*
X108990820Y-113897679D01*
X109030461Y-113858038D01*
X109030464Y-113858035D01*
X109129013Y-113710547D01*
X109196894Y-113546666D01*
X109231500Y-113372691D01*
X109231500Y-113195309D01*
X109231500Y-113195306D01*
X109231499Y-113195304D01*
X109196896Y-113021341D01*
X109196893Y-113021332D01*
X109129016Y-112857459D01*
X109129009Y-112857446D01*
X109030464Y-112709965D01*
X109030461Y-112709961D01*
X108990819Y-112670319D01*
X108957334Y-112608996D01*
X108954500Y-112582638D01*
X108954500Y-110860499D01*
X108957395Y-110850641D01*
X141340500Y-110850641D01*
X141340500Y-111149358D01*
X141373943Y-111446172D01*
X141373945Y-111446184D01*
X141440413Y-111737403D01*
X141440417Y-111737415D01*
X141539072Y-112019353D01*
X141668674Y-112288474D01*
X141827600Y-112541403D01*
X141827601Y-112541405D01*
X142013833Y-112774934D01*
X142225065Y-112986166D01*
X142458594Y-113172398D01*
X142458597Y-113172399D01*
X142458599Y-113172401D01*
X142711523Y-113331324D01*
X142980650Y-113460929D01*
X143192400Y-113535023D01*
X143262584Y-113559582D01*
X143262596Y-113559586D01*
X143553815Y-113626055D01*
X143850642Y-113659499D01*
X143850643Y-113659500D01*
X143850646Y-113659500D01*
X144149357Y-113659500D01*
X144149357Y-113659499D01*
X144446185Y-113626055D01*
X144737404Y-113559586D01*
X145019350Y-113460929D01*
X145288477Y-113331324D01*
X145541401Y-113172401D01*
X145657670Y-113079680D01*
X145774934Y-112986166D01*
X145774936Y-112986163D01*
X145774941Y-112986160D01*
X145986160Y-112774941D01*
X146034953Y-112713757D01*
X146172398Y-112541405D01*
X146172399Y-112541403D01*
X146172401Y-112541401D01*
X146331324Y-112288477D01*
X146460929Y-112019350D01*
X146559586Y-111737404D01*
X146626055Y-111446185D01*
X146659500Y-111149354D01*
X146659500Y-110850646D01*
X146626055Y-110553815D01*
X146559586Y-110262596D01*
X146555945Y-110252192D01*
X146505360Y-110107627D01*
X146460929Y-109980650D01*
X146331324Y-109711523D01*
X146172401Y-109458599D01*
X146172399Y-109458596D01*
X146172398Y-109458594D01*
X145986166Y-109225065D01*
X145774934Y-109013833D01*
X145541405Y-108827601D01*
X145541403Y-108827600D01*
X145288474Y-108668674D01*
X145019353Y-108539072D01*
X144737415Y-108440417D01*
X144737403Y-108440413D01*
X144512653Y-108389115D01*
X144446185Y-108373945D01*
X144446181Y-108373944D01*
X144446172Y-108373943D01*
X144149358Y-108340500D01*
X144149354Y-108340500D01*
X143850646Y-108340500D01*
X143850641Y-108340500D01*
X143553827Y-108373943D01*
X143553815Y-108373945D01*
X143262596Y-108440413D01*
X143262584Y-108440417D01*
X142980646Y-108539072D01*
X142711525Y-108668674D01*
X142458596Y-108827600D01*
X142458594Y-108827601D01*
X142225065Y-109013833D01*
X142013833Y-109225065D01*
X141827601Y-109458594D01*
X141827600Y-109458596D01*
X141668674Y-109711525D01*
X141539072Y-109980646D01*
X141440417Y-110262584D01*
X141440413Y-110262596D01*
X141373945Y-110553815D01*
X141373943Y-110553827D01*
X141340500Y-110850641D01*
X108957395Y-110850641D01*
X108974185Y-110793460D01*
X109026989Y-110747705D01*
X109078500Y-110736499D01*
X109140871Y-110736499D01*
X109140872Y-110736499D01*
X109200483Y-110730091D01*
X109335331Y-110679796D01*
X109450546Y-110593546D01*
X109536796Y-110478331D01*
X109587091Y-110343483D01*
X109593500Y-110283873D01*
X109593499Y-110195305D01*
X109613183Y-110128270D01*
X109629818Y-110107627D01*
X110254504Y-109482941D01*
X110270619Y-109543081D01*
X110337498Y-109658920D01*
X110432080Y-109753502D01*
X110547919Y-109820381D01*
X110608057Y-109836494D01*
X109954360Y-110490191D01*
X110016008Y-110534980D01*
X110210808Y-110634237D01*
X110210811Y-110634238D01*
X110418740Y-110701797D01*
X110634684Y-110736000D01*
X110853316Y-110736000D01*
X111069259Y-110701797D01*
X111277188Y-110634238D01*
X111277191Y-110634237D01*
X111471995Y-110534978D01*
X111533638Y-110490191D01*
X111533639Y-110490191D01*
X110879942Y-109836495D01*
X110940081Y-109820381D01*
X111055920Y-109753502D01*
X111150502Y-109658920D01*
X111217381Y-109543081D01*
X111233495Y-109482942D01*
X111887191Y-110136639D01*
X111887191Y-110136638D01*
X111913372Y-110100605D01*
X111968702Y-110057939D01*
X112038315Y-110051960D01*
X112100110Y-110084565D01*
X112114008Y-110100605D01*
X112224142Y-110252192D01*
X112224146Y-110252197D01*
X112378806Y-110406857D01*
X112493508Y-110490191D01*
X112555743Y-110535407D01*
X112683132Y-110600315D01*
X112750616Y-110634701D01*
X112750619Y-110634702D01*
X112816157Y-110655996D01*
X112958625Y-110702286D01*
X113053540Y-110717319D01*
X113174639Y-110736500D01*
X113174644Y-110736500D01*
X113393361Y-110736500D01*
X113498082Y-110719912D01*
X113609375Y-110702286D01*
X113817383Y-110634701D01*
X114012257Y-110535407D01*
X114111601Y-110463229D01*
X114189193Y-110406857D01*
X114189195Y-110406854D01*
X114189199Y-110406852D01*
X114343852Y-110252199D01*
X114453683Y-110101028D01*
X114509011Y-110058364D01*
X114578624Y-110052385D01*
X114640420Y-110084990D01*
X114654313Y-110101023D01*
X114764143Y-110252192D01*
X114764148Y-110252199D01*
X114918806Y-110406857D01*
X115033508Y-110490191D01*
X115095743Y-110535407D01*
X115223132Y-110600315D01*
X115290616Y-110634701D01*
X115290619Y-110634702D01*
X115356157Y-110655996D01*
X115498625Y-110702286D01*
X115593540Y-110717319D01*
X115714639Y-110736500D01*
X115714644Y-110736500D01*
X115933361Y-110736500D01*
X116007900Y-110724694D01*
X116066379Y-110715431D01*
X116149375Y-110702286D01*
X116357383Y-110634701D01*
X116552257Y-110535407D01*
X116651601Y-110463229D01*
X116729193Y-110406857D01*
X116729195Y-110406854D01*
X116729199Y-110406852D01*
X116883852Y-110252199D01*
X116883854Y-110252195D01*
X116883857Y-110252193D01*
X116940229Y-110174601D01*
X117012407Y-110075257D01*
X117111701Y-109880383D01*
X117179286Y-109672375D01*
X117199764Y-109543081D01*
X117213500Y-109456361D01*
X117213500Y-109237638D01*
X117191283Y-109097373D01*
X117179286Y-109021625D01*
X117131197Y-108873619D01*
X117111702Y-108813619D01*
X117111701Y-108813616D01*
X117037848Y-108668674D01*
X117012407Y-108618743D01*
X116967810Y-108557360D01*
X116883857Y-108441806D01*
X116729199Y-108287148D01*
X116709141Y-108272575D01*
X116578028Y-108177316D01*
X116535364Y-108121989D01*
X116529385Y-108052376D01*
X116561990Y-107990580D01*
X116578023Y-107976686D01*
X116729199Y-107866852D01*
X116883852Y-107712199D01*
X116883854Y-107712195D01*
X116883857Y-107712193D01*
X116940229Y-107634601D01*
X117012407Y-107535257D01*
X117111701Y-107340383D01*
X117179286Y-107132375D01*
X117204381Y-106973933D01*
X117213500Y-106916361D01*
X117213500Y-106708455D01*
X125491500Y-106708455D01*
X125491500Y-106905544D01*
X125529947Y-107098828D01*
X125529949Y-107098836D01*
X125605367Y-107280910D01*
X125605372Y-107280920D01*
X125714860Y-107444780D01*
X125714863Y-107444784D01*
X125854215Y-107584136D01*
X125854219Y-107584139D01*
X126018079Y-107693627D01*
X126018083Y-107693629D01*
X126018086Y-107693631D01*
X126200164Y-107769051D01*
X126393455Y-107807499D01*
X126393458Y-107807500D01*
X126393460Y-107807500D01*
X126590542Y-107807500D01*
X126590543Y-107807499D01*
X126783836Y-107769051D01*
X126965914Y-107693631D01*
X127129781Y-107584139D01*
X127256778Y-107457141D01*
X127256782Y-107457139D01*
X127396139Y-107317782D01*
X127505632Y-107153914D01*
X127581051Y-106971835D01*
X127586290Y-106945500D01*
X127610828Y-106822139D01*
X127619500Y-106778541D01*
X127619500Y-97302713D01*
X144064500Y-97302713D01*
X144064500Y-97515286D01*
X144093962Y-97701306D01*
X144097754Y-97725243D01*
X144147613Y-97878693D01*
X144163444Y-97927414D01*
X144259951Y-98116820D01*
X144384890Y-98288786D01*
X144498430Y-98402326D01*
X144531915Y-98463649D01*
X144526931Y-98533341D01*
X144485059Y-98589274D01*
X144454083Y-98606189D01*
X144322669Y-98655203D01*
X144322664Y-98655206D01*
X144207455Y-98741452D01*
X144207452Y-98741455D01*
X144121206Y-98856664D01*
X144121202Y-98856671D01*
X144070908Y-98991517D01*
X144064501Y-99051116D01*
X144064501Y-99051123D01*
X144064500Y-99051135D01*
X144064500Y-100846870D01*
X144064501Y-100846876D01*
X144070908Y-100906483D01*
X144121202Y-101041328D01*
X144121206Y-101041335D01*
X144207452Y-101156544D01*
X144207455Y-101156547D01*
X144322664Y-101242793D01*
X144322671Y-101242797D01*
X144457517Y-101293091D01*
X144457516Y-101293091D01*
X144464444Y-101293835D01*
X144517127Y-101299500D01*
X146312872Y-101299499D01*
X146372483Y-101293091D01*
X146507331Y-101242796D01*
X146622546Y-101156546D01*
X146708796Y-101041331D01*
X146759091Y-100906483D01*
X146765500Y-100846873D01*
X146765499Y-99051128D01*
X146759091Y-98991517D01*
X146708796Y-98856669D01*
X146708795Y-98856668D01*
X146708793Y-98856664D01*
X146622547Y-98741455D01*
X146622544Y-98741452D01*
X146507335Y-98655206D01*
X146507328Y-98655202D01*
X146375917Y-98606189D01*
X146319983Y-98564318D01*
X146295566Y-98498853D01*
X146310418Y-98430580D01*
X146331563Y-98402332D01*
X146445104Y-98288792D01*
X146570051Y-98116816D01*
X146666557Y-97927412D01*
X146732246Y-97725243D01*
X146765500Y-97515287D01*
X146765500Y-97302713D01*
X146732246Y-97092757D01*
X146666557Y-96890588D01*
X146570051Y-96701184D01*
X146570049Y-96701181D01*
X146570048Y-96701179D01*
X146445109Y-96529213D01*
X146294786Y-96378890D01*
X146122820Y-96253951D01*
X145933414Y-96157444D01*
X145933413Y-96157443D01*
X145933412Y-96157443D01*
X145731243Y-96091754D01*
X145731241Y-96091753D01*
X145731240Y-96091753D01*
X145569957Y-96066208D01*
X145521287Y-96058500D01*
X145308713Y-96058500D01*
X145260042Y-96066208D01*
X145098760Y-96091753D01*
X144896585Y-96157444D01*
X144707179Y-96253951D01*
X144535213Y-96378890D01*
X144384890Y-96529213D01*
X144259951Y-96701179D01*
X144163444Y-96890585D01*
X144097753Y-97092760D01*
X144064500Y-97302713D01*
X127619500Y-97302713D01*
X127619500Y-92984713D01*
X137206500Y-92984713D01*
X137206500Y-93197286D01*
X137237898Y-93395528D01*
X137239754Y-93407243D01*
X137281149Y-93534644D01*
X137305444Y-93609414D01*
X137401951Y-93798820D01*
X137526890Y-93970786D01*
X137677213Y-94121109D01*
X137849179Y-94246048D01*
X137849181Y-94246049D01*
X137849184Y-94246051D01*
X138038588Y-94342557D01*
X138240757Y-94408246D01*
X138450713Y-94441500D01*
X138450714Y-94441500D01*
X138663286Y-94441500D01*
X138663287Y-94441500D01*
X138873243Y-94408246D01*
X139075412Y-94342557D01*
X139264816Y-94246051D01*
X139336320Y-94194101D01*
X139436786Y-94121109D01*
X139436788Y-94121106D01*
X139436792Y-94121104D01*
X139587104Y-93970792D01*
X139587106Y-93970788D01*
X139587109Y-93970786D01*
X139712048Y-93798820D01*
X139712047Y-93798820D01*
X139712051Y-93798816D01*
X139808557Y-93609412D01*
X139874246Y-93407243D01*
X139907500Y-93197287D01*
X139907500Y-92984713D01*
X139874246Y-92774757D01*
X139808557Y-92572588D01*
X139712051Y-92383184D01*
X139712049Y-92383181D01*
X139712048Y-92383179D01*
X139587109Y-92211213D01*
X139436786Y-92060890D01*
X139264820Y-91935951D01*
X139075414Y-91839444D01*
X139075413Y-91839443D01*
X139075412Y-91839443D01*
X138873243Y-91773754D01*
X138873241Y-91773753D01*
X138873240Y-91773753D01*
X138711957Y-91748208D01*
X138663287Y-91740500D01*
X138450713Y-91740500D01*
X138402042Y-91748208D01*
X138240760Y-91773753D01*
X138038585Y-91839444D01*
X137849179Y-91935951D01*
X137677213Y-92060890D01*
X137526890Y-92211213D01*
X137401951Y-92383179D01*
X137305444Y-92572585D01*
X137239753Y-92774760D01*
X137206500Y-92984713D01*
X127619500Y-92984713D01*
X127619500Y-84983713D01*
X144064500Y-84983713D01*
X144064500Y-85196286D01*
X144097753Y-85406239D01*
X144163444Y-85608414D01*
X144259951Y-85797820D01*
X144384890Y-85969786D01*
X144498818Y-86083714D01*
X144532303Y-86145037D01*
X144527319Y-86214729D01*
X144485447Y-86270662D01*
X144454471Y-86287577D01*
X144322912Y-86336646D01*
X144322906Y-86336649D01*
X144207812Y-86422809D01*
X144207809Y-86422812D01*
X144121649Y-86537906D01*
X144121645Y-86537913D01*
X144071403Y-86672620D01*
X144071401Y-86672627D01*
X144065000Y-86732155D01*
X144065000Y-87380000D01*
X144981988Y-87380000D01*
X144949075Y-87437007D01*
X144915000Y-87564174D01*
X144915000Y-87695826D01*
X144949075Y-87822993D01*
X144981988Y-87880000D01*
X144065000Y-87880000D01*
X144065000Y-88527844D01*
X144071401Y-88587372D01*
X144071403Y-88587379D01*
X144121645Y-88722086D01*
X144121649Y-88722093D01*
X144207809Y-88837187D01*
X144207812Y-88837190D01*
X144322906Y-88923350D01*
X144322913Y-88923354D01*
X144457620Y-88973596D01*
X144457627Y-88973598D01*
X144517155Y-88979999D01*
X144517172Y-88980000D01*
X145165000Y-88980000D01*
X145165000Y-88063012D01*
X145222007Y-88095925D01*
X145349174Y-88130000D01*
X145480826Y-88130000D01*
X145607993Y-88095925D01*
X145665000Y-88063012D01*
X145665000Y-88980000D01*
X146312828Y-88980000D01*
X146312844Y-88979999D01*
X146372372Y-88973598D01*
X146372379Y-88973596D01*
X146507086Y-88923354D01*
X146507093Y-88923350D01*
X146622187Y-88837190D01*
X146622190Y-88837187D01*
X146708350Y-88722093D01*
X146708354Y-88722086D01*
X146758596Y-88587379D01*
X146758598Y-88587372D01*
X146764999Y-88527844D01*
X146765000Y-88527827D01*
X146765000Y-87880000D01*
X145848012Y-87880000D01*
X145880925Y-87822993D01*
X145915000Y-87695826D01*
X145915000Y-87564174D01*
X145880925Y-87437007D01*
X145848012Y-87380000D01*
X146765000Y-87380000D01*
X146765000Y-86732172D01*
X146764999Y-86732155D01*
X146758598Y-86672627D01*
X146758596Y-86672620D01*
X146708354Y-86537913D01*
X146708350Y-86537906D01*
X146622190Y-86422812D01*
X146622187Y-86422809D01*
X146507093Y-86336649D01*
X146507088Y-86336646D01*
X146375528Y-86287577D01*
X146319595Y-86245705D01*
X146295178Y-86180241D01*
X146310030Y-86111968D01*
X146331175Y-86083720D01*
X146445104Y-85969792D01*
X146570051Y-85797816D01*
X146666557Y-85608412D01*
X146732246Y-85406243D01*
X146765500Y-85196287D01*
X146765500Y-84983713D01*
X146732246Y-84773757D01*
X146666557Y-84571588D01*
X146570051Y-84382184D01*
X146570049Y-84382181D01*
X146570048Y-84382179D01*
X146445109Y-84210213D01*
X146294786Y-84059890D01*
X146122820Y-83934951D01*
X145933414Y-83838444D01*
X145933413Y-83838443D01*
X145933412Y-83838443D01*
X145731243Y-83772754D01*
X145731241Y-83772753D01*
X145731240Y-83772753D01*
X145569957Y-83747208D01*
X145521287Y-83739500D01*
X145308713Y-83739500D01*
X145260042Y-83747208D01*
X145098760Y-83772753D01*
X144896585Y-83838444D01*
X144707179Y-83934951D01*
X144535213Y-84059890D01*
X144384890Y-84210213D01*
X144259951Y-84382179D01*
X144163444Y-84571585D01*
X144097753Y-84773760D01*
X144064500Y-84983713D01*
X127619500Y-84983713D01*
X127619500Y-84737459D01*
X127619500Y-84737456D01*
X127581052Y-84544170D01*
X127581051Y-84544169D01*
X127581051Y-84544165D01*
X127581049Y-84544160D01*
X127505635Y-84362092D01*
X127505628Y-84362079D01*
X127396139Y-84198218D01*
X127396136Y-84198214D01*
X127256785Y-84058863D01*
X127256781Y-84058860D01*
X127146697Y-83985304D01*
X137402500Y-83985304D01*
X137402500Y-84162695D01*
X137437103Y-84336658D01*
X137437106Y-84336667D01*
X137504983Y-84500540D01*
X137504990Y-84500553D01*
X137603535Y-84648034D01*
X137603538Y-84648038D01*
X137728961Y-84773461D01*
X137728965Y-84773464D01*
X137876446Y-84872009D01*
X137876459Y-84872016D01*
X137971784Y-84911500D01*
X138040334Y-84939894D01*
X138040336Y-84939894D01*
X138040341Y-84939896D01*
X138214304Y-84974499D01*
X138214307Y-84974500D01*
X138214309Y-84974500D01*
X138391693Y-84974500D01*
X138391694Y-84974499D01*
X138449682Y-84962964D01*
X138565658Y-84939896D01*
X138565661Y-84939894D01*
X138565666Y-84939894D01*
X138729547Y-84872013D01*
X138877035Y-84773464D01*
X139002464Y-84648035D01*
X139101013Y-84500547D01*
X139168894Y-84336666D01*
X139182390Y-84268820D01*
X139203499Y-84162695D01*
X139203500Y-84162693D01*
X139203500Y-83985306D01*
X139203499Y-83985304D01*
X139168896Y-83811341D01*
X139168893Y-83811332D01*
X139101016Y-83647459D01*
X139101009Y-83647446D01*
X139002464Y-83499965D01*
X139002461Y-83499961D01*
X138939819Y-83437319D01*
X138906334Y-83375996D01*
X138903500Y-83349638D01*
X138903500Y-78379713D01*
X139746500Y-78379713D01*
X139746500Y-78592286D01*
X139768491Y-78731135D01*
X139779754Y-78802243D01*
X139811870Y-78901086D01*
X139845444Y-79004414D01*
X139941951Y-79193820D01*
X140066890Y-79365786D01*
X140217213Y-79516109D01*
X140389179Y-79641048D01*
X140389181Y-79641049D01*
X140389184Y-79641051D01*
X140578588Y-79737557D01*
X140780757Y-79803246D01*
X140990713Y-79836500D01*
X140990714Y-79836500D01*
X141203286Y-79836500D01*
X141203287Y-79836500D01*
X141413243Y-79803246D01*
X141615412Y-79737557D01*
X141804816Y-79641051D01*
X141891138Y-79578335D01*
X141976786Y-79516109D01*
X141976788Y-79516106D01*
X141976792Y-79516104D01*
X142127104Y-79365792D01*
X142127106Y-79365788D01*
X142127109Y-79365786D01*
X142252048Y-79193820D01*
X142252047Y-79193820D01*
X142252051Y-79193816D01*
X142348557Y-79004412D01*
X142414246Y-78802243D01*
X142447500Y-78592287D01*
X142447500Y-78379713D01*
X142414246Y-78169757D01*
X142348557Y-77967588D01*
X142252051Y-77778184D01*
X142252049Y-77778181D01*
X142252048Y-77778179D01*
X142127109Y-77606213D01*
X141976786Y-77455890D01*
X141804820Y-77330951D01*
X141615414Y-77234444D01*
X141615413Y-77234443D01*
X141615412Y-77234443D01*
X141413243Y-77168754D01*
X141413241Y-77168753D01*
X141413240Y-77168753D01*
X141250305Y-77142947D01*
X141203287Y-77135500D01*
X140990713Y-77135500D01*
X140943695Y-77142947D01*
X140780760Y-77168753D01*
X140578585Y-77234444D01*
X140389179Y-77330951D01*
X140217213Y-77455890D01*
X140066890Y-77606213D01*
X139941951Y-77778179D01*
X139845444Y-77967585D01*
X139779753Y-78169760D01*
X139746500Y-78379713D01*
X138903500Y-78379713D01*
X138903500Y-75839713D01*
X144064500Y-75839713D01*
X144064500Y-76052286D01*
X144097753Y-76262239D01*
X144163444Y-76464414D01*
X144259951Y-76653820D01*
X144384890Y-76825786D01*
X144498430Y-76939326D01*
X144531915Y-77000649D01*
X144526931Y-77070341D01*
X144485059Y-77126274D01*
X144454083Y-77143189D01*
X144322669Y-77192203D01*
X144322664Y-77192206D01*
X144207455Y-77278452D01*
X144207452Y-77278455D01*
X144121206Y-77393664D01*
X144121202Y-77393671D01*
X144070908Y-77528517D01*
X144064501Y-77588116D01*
X144064501Y-77588123D01*
X144064500Y-77588135D01*
X144064500Y-79383870D01*
X144064501Y-79383876D01*
X144070908Y-79443483D01*
X144121202Y-79578328D01*
X144121206Y-79578335D01*
X144207452Y-79693544D01*
X144207455Y-79693547D01*
X144322664Y-79779793D01*
X144322671Y-79779797D01*
X144457517Y-79830091D01*
X144457516Y-79830091D01*
X144464444Y-79830835D01*
X144517127Y-79836500D01*
X146312872Y-79836499D01*
X146372483Y-79830091D01*
X146507331Y-79779796D01*
X146622546Y-79693546D01*
X146708796Y-79578331D01*
X146759091Y-79443483D01*
X146765500Y-79383873D01*
X146765499Y-77588128D01*
X146759091Y-77528517D01*
X146736226Y-77467214D01*
X146708797Y-77393671D01*
X146708793Y-77393664D01*
X146622547Y-77278455D01*
X146622544Y-77278452D01*
X146507335Y-77192206D01*
X146507328Y-77192202D01*
X146375917Y-77143189D01*
X146319983Y-77101318D01*
X146295566Y-77035853D01*
X146310418Y-76967580D01*
X146331563Y-76939332D01*
X146445104Y-76825792D01*
X146570051Y-76653816D01*
X146666557Y-76464412D01*
X146732246Y-76262243D01*
X146765500Y-76052287D01*
X146765500Y-75839713D01*
X146732246Y-75629757D01*
X146666557Y-75427588D01*
X146570051Y-75238184D01*
X146570049Y-75238181D01*
X146570048Y-75238179D01*
X146445109Y-75066213D01*
X146294786Y-74915890D01*
X146122817Y-74790949D01*
X146113504Y-74786204D01*
X146062707Y-74738230D01*
X146045912Y-74670409D01*
X146068449Y-74604274D01*
X146113507Y-74565232D01*
X146122558Y-74560620D01*
X146294459Y-74435727D01*
X146294464Y-74435723D01*
X146444723Y-74285464D01*
X146444727Y-74285459D01*
X146569620Y-74113557D01*
X146666095Y-73924217D01*
X146731757Y-73722129D01*
X146731757Y-73722126D01*
X146742231Y-73656000D01*
X145848012Y-73656000D01*
X145880925Y-73598993D01*
X145915000Y-73471826D01*
X145915000Y-73340174D01*
X145880925Y-73213007D01*
X145848012Y-73156000D01*
X146742231Y-73156000D01*
X146731757Y-73089873D01*
X146731757Y-73089870D01*
X146666095Y-72887782D01*
X146569620Y-72698442D01*
X146444727Y-72526540D01*
X146444723Y-72526535D01*
X146294464Y-72376276D01*
X146294459Y-72376272D01*
X146122557Y-72251379D01*
X145933215Y-72154903D01*
X145731124Y-72089241D01*
X145665000Y-72078768D01*
X145665000Y-72972988D01*
X145607993Y-72940075D01*
X145480826Y-72906000D01*
X145349174Y-72906000D01*
X145222007Y-72940075D01*
X145165000Y-72972988D01*
X145165000Y-72078768D01*
X145164999Y-72078768D01*
X145098875Y-72089241D01*
X144896784Y-72154903D01*
X144707442Y-72251379D01*
X144535540Y-72376272D01*
X144535535Y-72376276D01*
X144385276Y-72526535D01*
X144385272Y-72526540D01*
X144260379Y-72698442D01*
X144163904Y-72887782D01*
X144098242Y-73089870D01*
X144098242Y-73089873D01*
X144087769Y-73156000D01*
X144981988Y-73156000D01*
X144949075Y-73213007D01*
X144915000Y-73340174D01*
X144915000Y-73471826D01*
X144949075Y-73598993D01*
X144981988Y-73656000D01*
X144087769Y-73656000D01*
X144098242Y-73722126D01*
X144098242Y-73722129D01*
X144163904Y-73924217D01*
X144260379Y-74113557D01*
X144385272Y-74285459D01*
X144385276Y-74285464D01*
X144535535Y-74435723D01*
X144535540Y-74435727D01*
X144707444Y-74560622D01*
X144716495Y-74565234D01*
X144767292Y-74613208D01*
X144784087Y-74681029D01*
X144761550Y-74747164D01*
X144716499Y-74786202D01*
X144707182Y-74790949D01*
X144535213Y-74915890D01*
X144384890Y-75066213D01*
X144259951Y-75238179D01*
X144163444Y-75427585D01*
X144097753Y-75629760D01*
X144064500Y-75839713D01*
X138903500Y-75839713D01*
X138903500Y-65856918D01*
X138923185Y-65789879D01*
X138958611Y-65753815D01*
X138963393Y-65750620D01*
X139004035Y-65723464D01*
X139129464Y-65598035D01*
X139228013Y-65450547D01*
X139295894Y-65286666D01*
X139330500Y-65112691D01*
X139330500Y-64935309D01*
X139330500Y-64935306D01*
X139330499Y-64935304D01*
X139295896Y-64761341D01*
X139295893Y-64761332D01*
X139228016Y-64597459D01*
X139228009Y-64597446D01*
X139129464Y-64449965D01*
X139129461Y-64449961D01*
X139004038Y-64324538D01*
X139004034Y-64324535D01*
X138856553Y-64225990D01*
X138856540Y-64225983D01*
X138692667Y-64158106D01*
X138692658Y-64158103D01*
X138518694Y-64123500D01*
X138518691Y-64123500D01*
X138341309Y-64123500D01*
X138341306Y-64123500D01*
X138167341Y-64158103D01*
X138167332Y-64158106D01*
X138003459Y-64225983D01*
X138003446Y-64225990D01*
X137855965Y-64324535D01*
X137855961Y-64324538D01*
X137730538Y-64449961D01*
X137730535Y-64449965D01*
X137631990Y-64597446D01*
X137631983Y-64597459D01*
X137564106Y-64761332D01*
X137564103Y-64761341D01*
X137529500Y-64935304D01*
X137529500Y-65112695D01*
X137564103Y-65286658D01*
X137564106Y-65286667D01*
X137631984Y-65450542D01*
X137631985Y-65450543D01*
X137631987Y-65450547D01*
X137680621Y-65523332D01*
X137681602Y-65524800D01*
X137702480Y-65591477D01*
X137702500Y-65593691D01*
X137702500Y-83349638D01*
X137682815Y-83416677D01*
X137666181Y-83437319D01*
X137603538Y-83499961D01*
X137603535Y-83499965D01*
X137504990Y-83647446D01*
X137504983Y-83647459D01*
X137437106Y-83811332D01*
X137437103Y-83811341D01*
X137402500Y-83985304D01*
X127146697Y-83985304D01*
X127092920Y-83949371D01*
X127092907Y-83949364D01*
X126910839Y-83873950D01*
X126910829Y-83873947D01*
X126717543Y-83835500D01*
X126717541Y-83835500D01*
X126520459Y-83835500D01*
X126520457Y-83835500D01*
X126327170Y-83873947D01*
X126327160Y-83873950D01*
X126145092Y-83949364D01*
X126145079Y-83949371D01*
X125981218Y-84058860D01*
X125981214Y-84058863D01*
X125841863Y-84198214D01*
X125841860Y-84198218D01*
X125732371Y-84362079D01*
X125732364Y-84362092D01*
X125656950Y-84544160D01*
X125656947Y-84544170D01*
X125618500Y-84737456D01*
X125618500Y-106277459D01*
X125606140Y-106326812D01*
X125607700Y-106327459D01*
X125605369Y-106333085D01*
X125605369Y-106333086D01*
X125600625Y-106344540D01*
X125529949Y-106515163D01*
X125529947Y-106515171D01*
X125491500Y-106708455D01*
X117213500Y-106708455D01*
X117213500Y-106697638D01*
X117185192Y-106518914D01*
X117179286Y-106481625D01*
X117131197Y-106333619D01*
X117111702Y-106273619D01*
X117111701Y-106273616D01*
X117064340Y-106180666D01*
X117012407Y-106078743D01*
X116993681Y-106052969D01*
X116883857Y-105901806D01*
X116729197Y-105747146D01*
X116729192Y-105747142D01*
X116552568Y-105618818D01*
X116509902Y-105563489D01*
X116503923Y-105493875D01*
X116536528Y-105432080D01*
X116597367Y-105397723D01*
X116625453Y-105394500D01*
X122145543Y-105394500D01*
X122173755Y-105388887D01*
X122261571Y-105371420D01*
X122338836Y-105356051D01*
X122392165Y-105333961D01*
X122520914Y-105280632D01*
X122684782Y-105171139D01*
X122824139Y-105031782D01*
X122824139Y-105031780D01*
X122834347Y-105021573D01*
X122834348Y-105021570D01*
X124221139Y-103634782D01*
X124266071Y-103567536D01*
X124330632Y-103470914D01*
X124389493Y-103328811D01*
X124406051Y-103288836D01*
X124411746Y-103260208D01*
X124431683Y-103159972D01*
X124444500Y-103095541D01*
X124444500Y-102898460D01*
X124444500Y-73973956D01*
X124464185Y-73906917D01*
X124516989Y-73861162D01*
X124586147Y-73851218D01*
X124649703Y-73880243D01*
X124683061Y-73926504D01*
X124716364Y-74006907D01*
X124716371Y-74006920D01*
X124825860Y-74170781D01*
X124825863Y-74170785D01*
X124965214Y-74310136D01*
X124965218Y-74310139D01*
X125129079Y-74419628D01*
X125129092Y-74419635D01*
X125211732Y-74453865D01*
X125311165Y-74495051D01*
X125311169Y-74495051D01*
X125311170Y-74495052D01*
X125504456Y-74533500D01*
X125504459Y-74533500D01*
X125701543Y-74533500D01*
X125831582Y-74507632D01*
X125894835Y-74495051D01*
X126076914Y-74419632D01*
X126240782Y-74310139D01*
X126380139Y-74170782D01*
X126489632Y-74006914D01*
X126565051Y-73824835D01*
X126603500Y-73631541D01*
X126603500Y-63203782D01*
X126623185Y-63136743D01*
X126639819Y-63116101D01*
X127378102Y-62377819D01*
X127439425Y-62344334D01*
X127465783Y-62341500D01*
X128876543Y-62341500D01*
X129006582Y-62315632D01*
X129069835Y-62303051D01*
X129251914Y-62227632D01*
X129415782Y-62118139D01*
X129555139Y-61978782D01*
X129664632Y-61814914D01*
X129740051Y-61632835D01*
X129778500Y-61439541D01*
X129778500Y-61242459D01*
X129778500Y-61242456D01*
X129740052Y-61049170D01*
X129740051Y-61049169D01*
X129740051Y-61049165D01*
X129730470Y-61026035D01*
X129664635Y-60867092D01*
X129664628Y-60867079D01*
X129555139Y-60703218D01*
X129555136Y-60703214D01*
X129415785Y-60563863D01*
X129415781Y-60563860D01*
X129251920Y-60454371D01*
X129251907Y-60454364D01*
X129069839Y-60378950D01*
X129069829Y-60378947D01*
X128876543Y-60340500D01*
X128876541Y-60340500D01*
X127280770Y-60340500D01*
X127213731Y-60320815D01*
X127167976Y-60268011D01*
X127158032Y-60198853D01*
X127177668Y-60147609D01*
X127251628Y-60036920D01*
X127251628Y-60036919D01*
X127251632Y-60036914D01*
X127310693Y-59894328D01*
X127327051Y-59854836D01*
X127332854Y-59825666D01*
X127365499Y-59661544D01*
X127365500Y-59661542D01*
X127365500Y-52733456D01*
X127327052Y-52540170D01*
X127327051Y-52540169D01*
X127327051Y-52540165D01*
X127298029Y-52470099D01*
X127251635Y-52358092D01*
X127251628Y-52358079D01*
X127237897Y-52337529D01*
X127142139Y-52194218D01*
X127142136Y-52194214D01*
X127002785Y-52054863D01*
X127002781Y-52054860D01*
X126838920Y-51945371D01*
X126838907Y-51945364D01*
X126656839Y-51869950D01*
X126656829Y-51869947D01*
X126463543Y-51831500D01*
X126463541Y-51831500D01*
X126266459Y-51831500D01*
X126266457Y-51831500D01*
X126073170Y-51869947D01*
X126073160Y-51869950D01*
X125891092Y-51945364D01*
X125891079Y-51945371D01*
X125727218Y-52054860D01*
X125727214Y-52054863D01*
X125587863Y-52194214D01*
X125587860Y-52194218D01*
X125478371Y-52358079D01*
X125478364Y-52358092D01*
X125402950Y-52540160D01*
X125402947Y-52540170D01*
X125364500Y-52733456D01*
X125364500Y-59097217D01*
X125344815Y-59164256D01*
X125328181Y-59184898D01*
X124058715Y-60454364D01*
X122806221Y-61706858D01*
X122806218Y-61706861D01*
X122770530Y-61742549D01*
X122666859Y-61846219D01*
X122557371Y-62010079D01*
X122557364Y-62010092D01*
X122522055Y-62095337D01*
X122522051Y-62095349D01*
X122520034Y-62100219D01*
X122481949Y-62192164D01*
X122467643Y-62264086D01*
X122466297Y-62270850D01*
X122466295Y-62270858D01*
X122443500Y-62385456D01*
X122443500Y-102531217D01*
X122423815Y-102598256D01*
X122407181Y-102618898D01*
X121668899Y-103357181D01*
X121607576Y-103390666D01*
X121581218Y-103393500D01*
X111527541Y-103393500D01*
X111478189Y-103381137D01*
X111477542Y-103382700D01*
X111289836Y-103304949D01*
X111289828Y-103304947D01*
X111096543Y-103266500D01*
X111096540Y-103266500D01*
X110899460Y-103266500D01*
X110899457Y-103266500D01*
X110706171Y-103304947D01*
X110706163Y-103304949D01*
X110524089Y-103380367D01*
X110524079Y-103380372D01*
X110360219Y-103489860D01*
X110360215Y-103489863D01*
X110220863Y-103629215D01*
X110220860Y-103629219D01*
X110111372Y-103793079D01*
X110111367Y-103793089D01*
X110035949Y-103975163D01*
X110035947Y-103975171D01*
X109997500Y-104168455D01*
X109997500Y-104365544D01*
X110035947Y-104558828D01*
X110035949Y-104558836D01*
X110111367Y-104740910D01*
X110111372Y-104740920D01*
X110220859Y-104904779D01*
X110220860Y-104904780D01*
X110220861Y-104904781D01*
X110344749Y-105028669D01*
X110344776Y-105028698D01*
X110487214Y-105171136D01*
X110487218Y-105171139D01*
X110550097Y-105213154D01*
X110594902Y-105266766D01*
X110603609Y-105336091D01*
X110573454Y-105399119D01*
X110514011Y-105435838D01*
X110500605Y-105438729D01*
X110418623Y-105451714D01*
X110210619Y-105519297D01*
X110210616Y-105519298D01*
X110015739Y-105618595D01*
X109838808Y-105747141D01*
X109774302Y-105811647D01*
X109712978Y-105845131D01*
X109643287Y-105840146D01*
X109587353Y-105798275D01*
X109570439Y-105767298D01*
X109536354Y-105675913D01*
X109536350Y-105675906D01*
X109450190Y-105560812D01*
X109450187Y-105560809D01*
X109335093Y-105474649D01*
X109335086Y-105474645D01*
X109200379Y-105424403D01*
X109200372Y-105424401D01*
X109140844Y-105418000D01*
X108454000Y-105418000D01*
X108454000Y-106364748D01*
X108400081Y-106333619D01*
X108270880Y-106299000D01*
X108137120Y-106299000D01*
X108007919Y-106333619D01*
X107954000Y-106364748D01*
X107954000Y-105418000D01*
X107267155Y-105418000D01*
X107207627Y-105424401D01*
X107207620Y-105424403D01*
X107072913Y-105474645D01*
X107072906Y-105474649D01*
X106957812Y-105560809D01*
X106957809Y-105560812D01*
X106871649Y-105675906D01*
X106871645Y-105675913D01*
X106821403Y-105810620D01*
X106821401Y-105810627D01*
X106815000Y-105870155D01*
X106815000Y-106557000D01*
X107761749Y-106557000D01*
X107730619Y-106610919D01*
X107696000Y-106740120D01*
X107696000Y-106873880D01*
X107730619Y-107003081D01*
X107761749Y-107057000D01*
X106815000Y-107057000D01*
X106815000Y-107743844D01*
X106821401Y-107803372D01*
X106821403Y-107803379D01*
X106871645Y-107938086D01*
X106871647Y-107938089D01*
X106919694Y-108002272D01*
X106944111Y-108067737D01*
X106929259Y-108136010D01*
X106919694Y-108150893D01*
X106871206Y-108215665D01*
X106871202Y-108215671D01*
X106820908Y-108350517D01*
X106814501Y-108410116D01*
X106814501Y-108410123D01*
X106814500Y-108410135D01*
X102175500Y-108410135D01*
X102175500Y-103746361D01*
X102195185Y-103679322D01*
X102211814Y-103658684D01*
X102299464Y-103571035D01*
X102398013Y-103423547D01*
X102465894Y-103259666D01*
X102466442Y-103256915D01*
X102500499Y-103085695D01*
X102500500Y-103085693D01*
X102500500Y-102908306D01*
X102500499Y-102908304D01*
X103239500Y-102908304D01*
X103239500Y-103085695D01*
X103274103Y-103259658D01*
X103274106Y-103259667D01*
X103341983Y-103423540D01*
X103341990Y-103423553D01*
X103440534Y-103571033D01*
X103440535Y-103571034D01*
X103440536Y-103571035D01*
X103528182Y-103658681D01*
X103561666Y-103720002D01*
X103564500Y-103746361D01*
X103564500Y-105168638D01*
X103544815Y-105235677D01*
X103528181Y-105256319D01*
X103440538Y-105343961D01*
X103440535Y-105343965D01*
X103341990Y-105491446D01*
X103341983Y-105491459D01*
X103274106Y-105655332D01*
X103274103Y-105655341D01*
X103239500Y-105829304D01*
X103239500Y-106006695D01*
X103274103Y-106180658D01*
X103274106Y-106180667D01*
X103341983Y-106344540D01*
X103341990Y-106344553D01*
X103440535Y-106492034D01*
X103440538Y-106492038D01*
X103565961Y-106617461D01*
X103565965Y-106617464D01*
X103713446Y-106716009D01*
X103713459Y-106716016D01*
X103795600Y-106750039D01*
X103877334Y-106783894D01*
X103877336Y-106783894D01*
X103877341Y-106783896D01*
X104051304Y-106818499D01*
X104051307Y-106818500D01*
X104051309Y-106818500D01*
X104228693Y-106818500D01*
X104228694Y-106818499D01*
X104286682Y-106806964D01*
X104402658Y-106783896D01*
X104402661Y-106783894D01*
X104402666Y-106783894D01*
X104566547Y-106716013D01*
X104714035Y-106617464D01*
X104839464Y-106492035D01*
X104938013Y-106344547D01*
X104942540Y-106333619D01*
X104981782Y-106238877D01*
X105005894Y-106180666D01*
X105013279Y-106143543D01*
X105040499Y-106006695D01*
X105040500Y-106006693D01*
X105040500Y-105829306D01*
X105040499Y-105829304D01*
X105005896Y-105655341D01*
X105005893Y-105655332D01*
X104938016Y-105491459D01*
X104938009Y-105491446D01*
X104839464Y-105343965D01*
X104839461Y-105343961D01*
X104751819Y-105256319D01*
X104718334Y-105194996D01*
X104715500Y-105168638D01*
X104715500Y-103746361D01*
X104735185Y-103679322D01*
X104751814Y-103658684D01*
X104839464Y-103571035D01*
X104938013Y-103423547D01*
X105005894Y-103259666D01*
X105006442Y-103256915D01*
X105040499Y-103085695D01*
X105040500Y-103085693D01*
X105040500Y-102908306D01*
X105040499Y-102908304D01*
X105005896Y-102734341D01*
X105005893Y-102734332D01*
X104938016Y-102570459D01*
X104938009Y-102570446D01*
X104839464Y-102422965D01*
X104839461Y-102422961D01*
X104714038Y-102297538D01*
X104714034Y-102297535D01*
X104566553Y-102198990D01*
X104566540Y-102198983D01*
X104402667Y-102131106D01*
X104402658Y-102131103D01*
X104228694Y-102096500D01*
X104228691Y-102096500D01*
X104051309Y-102096500D01*
X104051306Y-102096500D01*
X103877341Y-102131103D01*
X103877332Y-102131106D01*
X103713459Y-102198983D01*
X103713446Y-102198990D01*
X103565965Y-102297535D01*
X103565961Y-102297538D01*
X103440538Y-102422961D01*
X103440535Y-102422965D01*
X103341990Y-102570446D01*
X103341983Y-102570459D01*
X103274106Y-102734332D01*
X103274103Y-102734341D01*
X103239500Y-102908304D01*
X102500499Y-102908304D01*
X102465896Y-102734341D01*
X102465893Y-102734332D01*
X102398016Y-102570459D01*
X102398009Y-102570446D01*
X102299464Y-102422965D01*
X102299461Y-102422961D01*
X102174038Y-102297538D01*
X102174034Y-102297535D01*
X102026553Y-102198990D01*
X102026540Y-102198983D01*
X101862667Y-102131106D01*
X101862658Y-102131103D01*
X101688694Y-102096500D01*
X101688691Y-102096500D01*
X101511309Y-102096500D01*
X101511306Y-102096500D01*
X101337341Y-102131103D01*
X101337332Y-102131106D01*
X101173459Y-102198983D01*
X101173446Y-102198990D01*
X101025965Y-102297535D01*
X101025961Y-102297538D01*
X100900538Y-102422961D01*
X100900535Y-102422965D01*
X100801990Y-102570446D01*
X100801983Y-102570459D01*
X100734106Y-102734332D01*
X100734103Y-102734341D01*
X100699500Y-102908304D01*
X75041500Y-102908304D01*
X75041500Y-96604782D01*
X75061185Y-96537743D01*
X75077819Y-96517101D01*
X77400819Y-94194101D01*
X77462142Y-94160616D01*
X77531834Y-94165600D01*
X77587767Y-94207472D01*
X77612184Y-94272936D01*
X77612500Y-94281782D01*
X77612500Y-98269541D01*
X77612500Y-98269543D01*
X77612499Y-98269543D01*
X77650947Y-98462829D01*
X77650950Y-98462839D01*
X77726364Y-98644907D01*
X77726371Y-98644920D01*
X77835860Y-98808781D01*
X77835863Y-98808785D01*
X77975214Y-98948136D01*
X77975218Y-98948139D01*
X78139079Y-99057628D01*
X78139092Y-99057635D01*
X78321160Y-99133049D01*
X78321165Y-99133051D01*
X78321169Y-99133051D01*
X78321170Y-99133052D01*
X78514456Y-99171500D01*
X78514459Y-99171500D01*
X78711543Y-99171500D01*
X78841582Y-99145632D01*
X78904835Y-99133051D01*
X79086914Y-99057632D01*
X79250782Y-98948139D01*
X79390139Y-98808782D01*
X79499632Y-98644914D01*
X79575051Y-98462835D01*
X79588876Y-98393334D01*
X79613500Y-98269543D01*
X79613500Y-97701304D01*
X97016500Y-97701304D01*
X97016500Y-97878695D01*
X97051103Y-98052658D01*
X97051106Y-98052667D01*
X97118983Y-98216540D01*
X97118990Y-98216553D01*
X97217535Y-98364034D01*
X97217538Y-98364038D01*
X97342961Y-98489461D01*
X97342965Y-98489464D01*
X97490446Y-98588009D01*
X97490459Y-98588016D01*
X97613363Y-98638923D01*
X97654334Y-98655894D01*
X97654336Y-98655894D01*
X97654341Y-98655896D01*
X97828304Y-98690499D01*
X97828307Y-98690500D01*
X97828309Y-98690500D01*
X98005693Y-98690500D01*
X98005694Y-98690499D01*
X98063682Y-98678964D01*
X98179658Y-98655896D01*
X98179661Y-98655894D01*
X98179666Y-98655894D01*
X98343547Y-98588013D01*
X98491035Y-98489464D01*
X98553681Y-98426817D01*
X98615002Y-98393334D01*
X98641361Y-98390500D01*
X106336639Y-98390500D01*
X106403678Y-98410185D01*
X106424315Y-98426814D01*
X106460330Y-98462829D01*
X106486966Y-98489465D01*
X106634446Y-98588009D01*
X106634459Y-98588016D01*
X106757363Y-98638923D01*
X106798334Y-98655894D01*
X106798336Y-98655894D01*
X106798341Y-98655896D01*
X106972304Y-98690499D01*
X106972307Y-98690500D01*
X106972309Y-98690500D01*
X107149693Y-98690500D01*
X107149694Y-98690499D01*
X107207682Y-98678964D01*
X107323658Y-98655896D01*
X107323661Y-98655894D01*
X107323666Y-98655894D01*
X107487547Y-98588013D01*
X107635035Y-98489464D01*
X107760464Y-98364035D01*
X107859013Y-98216547D01*
X107926894Y-98052666D01*
X107961500Y-97878691D01*
X107961500Y-97701309D01*
X107961500Y-97701306D01*
X107961499Y-97701304D01*
X107926896Y-97527341D01*
X107926893Y-97527332D01*
X107921903Y-97515286D01*
X107909923Y-97486363D01*
X107859016Y-97363459D01*
X107859009Y-97363446D01*
X107760464Y-97215965D01*
X107760461Y-97215961D01*
X107635038Y-97090538D01*
X107635034Y-97090535D01*
X107487553Y-96991990D01*
X107487540Y-96991983D01*
X107323667Y-96924106D01*
X107323658Y-96924103D01*
X107149694Y-96889500D01*
X107149691Y-96889500D01*
X106972309Y-96889500D01*
X106972306Y-96889500D01*
X106798341Y-96924103D01*
X106798332Y-96924106D01*
X106634459Y-96991983D01*
X106634446Y-96991990D01*
X106486966Y-97090534D01*
X106455643Y-97121857D01*
X106424318Y-97153182D01*
X106362998Y-97186666D01*
X106336639Y-97189500D01*
X98641361Y-97189500D01*
X98574322Y-97169815D01*
X98553684Y-97153185D01*
X98491035Y-97090536D01*
X98491034Y-97090535D01*
X98491033Y-97090534D01*
X98343553Y-96991990D01*
X98343540Y-96991983D01*
X98179667Y-96924106D01*
X98179658Y-96924103D01*
X98005694Y-96889500D01*
X98005691Y-96889500D01*
X97828309Y-96889500D01*
X97828306Y-96889500D01*
X97654341Y-96924103D01*
X97654332Y-96924106D01*
X97490459Y-96991983D01*
X97490446Y-96991990D01*
X97342965Y-97090535D01*
X97342961Y-97090538D01*
X97217538Y-97215961D01*
X97217535Y-97215965D01*
X97118990Y-97363446D01*
X97118983Y-97363459D01*
X97051106Y-97527332D01*
X97051103Y-97527341D01*
X97016500Y-97701304D01*
X79613500Y-97701304D01*
X79613500Y-93937782D01*
X79633185Y-93870743D01*
X79649819Y-93850101D01*
X84089137Y-89410784D01*
X84089137Y-89410783D01*
X84089140Y-89410781D01*
X84198632Y-89246914D01*
X84274052Y-89064835D01*
X84312501Y-88871540D01*
X84312501Y-88674459D01*
X84312501Y-88669349D01*
X84312500Y-88669323D01*
X84312500Y-81237782D01*
X84332185Y-81170743D01*
X84348819Y-81150101D01*
X84561616Y-80937304D01*
X91936500Y-80937304D01*
X91936500Y-81114695D01*
X91971103Y-81288658D01*
X91971106Y-81288667D01*
X92038983Y-81452540D01*
X92038990Y-81452553D01*
X92137535Y-81600034D01*
X92137538Y-81600038D01*
X92262961Y-81725461D01*
X92262965Y-81725464D01*
X92410446Y-81824009D01*
X92410459Y-81824016D01*
X92498428Y-81860453D01*
X92574334Y-81891894D01*
X92574336Y-81891894D01*
X92574341Y-81891896D01*
X92748304Y-81926499D01*
X92748307Y-81926500D01*
X92748309Y-81926500D01*
X92925693Y-81926500D01*
X92925694Y-81926499D01*
X93007943Y-81910139D01*
X93099658Y-81891896D01*
X93099661Y-81891894D01*
X93099666Y-81891894D01*
X93263547Y-81824013D01*
X93339609Y-81773188D01*
X93406286Y-81752311D01*
X93473666Y-81770795D01*
X93477382Y-81773183D01*
X93553453Y-81824013D01*
X93553456Y-81824014D01*
X93553457Y-81824015D01*
X93641428Y-81860453D01*
X93717334Y-81891894D01*
X93717336Y-81891894D01*
X93717341Y-81891896D01*
X93891304Y-81926499D01*
X93891307Y-81926500D01*
X93891309Y-81926500D01*
X94068693Y-81926500D01*
X94068694Y-81926499D01*
X94150943Y-81910139D01*
X94242658Y-81891896D01*
X94242661Y-81891894D01*
X94242666Y-81891894D01*
X94376048Y-81836646D01*
X94445517Y-81829177D01*
X94507996Y-81860453D01*
X94543648Y-81920542D01*
X94547500Y-81951207D01*
X94547500Y-87451765D01*
X94586719Y-87598136D01*
X94618500Y-87653181D01*
X94662485Y-87729365D01*
X95658635Y-88725515D01*
X95789865Y-88801281D01*
X95936234Y-88840500D01*
X96087767Y-88840500D01*
X97373258Y-88840500D01*
X97440297Y-88860185D01*
X97460939Y-88876819D01*
X98504181Y-89920061D01*
X98537666Y-89981384D01*
X98540500Y-90007742D01*
X98540500Y-90131695D01*
X98575103Y-90305658D01*
X98575106Y-90305667D01*
X98642983Y-90469540D01*
X98642990Y-90469553D01*
X98741535Y-90617034D01*
X98741538Y-90617038D01*
X98866961Y-90742461D01*
X98866965Y-90742464D01*
X99014446Y-90841009D01*
X99014459Y-90841016D01*
X99137363Y-90891923D01*
X99178334Y-90908894D01*
X99178336Y-90908894D01*
X99178341Y-90908896D01*
X99352304Y-90943499D01*
X99352307Y-90943500D01*
X99352309Y-90943500D01*
X99529693Y-90943500D01*
X99529694Y-90943499D01*
X99587682Y-90931964D01*
X99703658Y-90908896D01*
X99703661Y-90908894D01*
X99703666Y-90908894D01*
X99867547Y-90841013D01*
X100015035Y-90742464D01*
X100140464Y-90617035D01*
X100239013Y-90469547D01*
X100241727Y-90462996D01*
X100301860Y-90317819D01*
X100306894Y-90305666D01*
X100311138Y-90284334D01*
X100341499Y-90131695D01*
X100341500Y-90131693D01*
X100341500Y-89954306D01*
X100341499Y-89954304D01*
X100306896Y-89780341D01*
X100306893Y-89780332D01*
X100239016Y-89616459D01*
X100239009Y-89616446D01*
X100140464Y-89468965D01*
X100140461Y-89468961D01*
X100015038Y-89343538D01*
X100015034Y-89343535D01*
X99867553Y-89244990D01*
X99867540Y-89244983D01*
X99703667Y-89177106D01*
X99703658Y-89177103D01*
X99529694Y-89142500D01*
X99529691Y-89142500D01*
X99405742Y-89142500D01*
X99338703Y-89122815D01*
X99318061Y-89106181D01*
X98016367Y-87804487D01*
X98016365Y-87804485D01*
X97950750Y-87766602D01*
X97885136Y-87728719D01*
X97762375Y-87695826D01*
X97738766Y-87689500D01*
X97738765Y-87689500D01*
X96301742Y-87689500D01*
X96234703Y-87669815D01*
X96214061Y-87653181D01*
X95734819Y-87173939D01*
X95727374Y-87160304D01*
X103366500Y-87160304D01*
X103366500Y-87337695D01*
X103401103Y-87511658D01*
X103401106Y-87511667D01*
X103468983Y-87675540D01*
X103468990Y-87675553D01*
X103567534Y-87823033D01*
X103567535Y-87823034D01*
X103567536Y-87823035D01*
X103655182Y-87910681D01*
X103688666Y-87972002D01*
X103691500Y-87998361D01*
X103691500Y-90436638D01*
X103671815Y-90503677D01*
X103655181Y-90524319D01*
X103567538Y-90611961D01*
X103567535Y-90611965D01*
X103468990Y-90759446D01*
X103468983Y-90759459D01*
X103401106Y-90923332D01*
X103401103Y-90923341D01*
X103366500Y-91097304D01*
X103366500Y-91274695D01*
X103401103Y-91448658D01*
X103401106Y-91448667D01*
X103468983Y-91612540D01*
X103468990Y-91612553D01*
X103567535Y-91760034D01*
X103567538Y-91760038D01*
X103692961Y-91885461D01*
X103692965Y-91885464D01*
X103840446Y-91984009D01*
X103840459Y-91984016D01*
X103963363Y-92034923D01*
X104004334Y-92051894D01*
X104004336Y-92051894D01*
X104004341Y-92051896D01*
X104178304Y-92086499D01*
X104178307Y-92086500D01*
X104178309Y-92086500D01*
X104355693Y-92086500D01*
X104355694Y-92086499D01*
X104457444Y-92066260D01*
X104529658Y-92051896D01*
X104529661Y-92051894D01*
X104529666Y-92051894D01*
X104693547Y-91984013D01*
X104841035Y-91885464D01*
X104966464Y-91760035D01*
X105065013Y-91612547D01*
X105132894Y-91448666D01*
X105167500Y-91274691D01*
X105167500Y-91097309D01*
X105167500Y-91097306D01*
X105167499Y-91097304D01*
X105132896Y-90923341D01*
X105132893Y-90923332D01*
X105065016Y-90759459D01*
X105065009Y-90759446D01*
X104966464Y-90611965D01*
X104966461Y-90611961D01*
X104878819Y-90524319D01*
X104845334Y-90462996D01*
X104842500Y-90436638D01*
X104842500Y-87998361D01*
X104862185Y-87931322D01*
X104878814Y-87910684D01*
X104966464Y-87823035D01*
X105065013Y-87675547D01*
X105132894Y-87511666D01*
X105167500Y-87337691D01*
X105167500Y-87160309D01*
X105167500Y-87160306D01*
X105167499Y-87160304D01*
X105132896Y-86986341D01*
X105132893Y-86986332D01*
X105065016Y-86822459D01*
X105065009Y-86822446D01*
X104966464Y-86674965D01*
X104966461Y-86674961D01*
X104841038Y-86549538D01*
X104841034Y-86549535D01*
X104693553Y-86450990D01*
X104693540Y-86450983D01*
X104529667Y-86383106D01*
X104529658Y-86383103D01*
X104355694Y-86348500D01*
X104355691Y-86348500D01*
X104178309Y-86348500D01*
X104178306Y-86348500D01*
X104004341Y-86383103D01*
X104004332Y-86383106D01*
X103840459Y-86450983D01*
X103840446Y-86450990D01*
X103692965Y-86549535D01*
X103692961Y-86549538D01*
X103567538Y-86674961D01*
X103567535Y-86674965D01*
X103468990Y-86822446D01*
X103468983Y-86822459D01*
X103401106Y-86986332D01*
X103401103Y-86986341D01*
X103366500Y-87160304D01*
X95727374Y-87160304D01*
X95701334Y-87112616D01*
X95698500Y-87086258D01*
X95698500Y-82032877D01*
X95718185Y-81965838D01*
X95770989Y-81920083D01*
X95840147Y-81910139D01*
X95846692Y-81911260D01*
X95923306Y-81926500D01*
X95923309Y-81926500D01*
X96100693Y-81926500D01*
X96100694Y-81926499D01*
X96182943Y-81910139D01*
X96274658Y-81891896D01*
X96274661Y-81891894D01*
X96274666Y-81891894D01*
X96438547Y-81824013D01*
X96586035Y-81725464D01*
X96711464Y-81600035D01*
X96810013Y-81452547D01*
X96812727Y-81445996D01*
X96823644Y-81419638D01*
X96877894Y-81288666D01*
X96892748Y-81213993D01*
X96912499Y-81114695D01*
X96912500Y-81114693D01*
X96912500Y-80937306D01*
X96912499Y-80937304D01*
X96877896Y-80763341D01*
X96877893Y-80763332D01*
X96810016Y-80599459D01*
X96810009Y-80599446D01*
X96711464Y-80451965D01*
X96711461Y-80451961D01*
X96623819Y-80364319D01*
X96590334Y-80302996D01*
X96587500Y-80276638D01*
X96587500Y-66710378D01*
X96607185Y-66643339D01*
X96659989Y-66597584D01*
X96664021Y-66595828D01*
X96692547Y-66584013D01*
X96840035Y-66485464D01*
X96965464Y-66360035D01*
X97064013Y-66212547D01*
X97131894Y-66048666D01*
X97166500Y-65874691D01*
X97166500Y-65697309D01*
X97166500Y-65697306D01*
X97166499Y-65697304D01*
X97131896Y-65523341D01*
X97131893Y-65523332D01*
X97064016Y-65359459D01*
X97064009Y-65359446D01*
X96965464Y-65211965D01*
X96965461Y-65211961D01*
X96840038Y-65086538D01*
X96840034Y-65086535D01*
X96758895Y-65032319D01*
X96692553Y-64987990D01*
X96692540Y-64987983D01*
X96565359Y-64935304D01*
X107938500Y-64935304D01*
X107938500Y-65112695D01*
X107973103Y-65286658D01*
X107973106Y-65286667D01*
X108040983Y-65450540D01*
X108040990Y-65450553D01*
X108139535Y-65598034D01*
X108139538Y-65598038D01*
X108264961Y-65723461D01*
X108264965Y-65723464D01*
X108412446Y-65822009D01*
X108412459Y-65822016D01*
X108496722Y-65856918D01*
X108576334Y-65889894D01*
X108612653Y-65897118D01*
X108627501Y-65900072D01*
X108689412Y-65932456D01*
X108723986Y-65993172D01*
X108724927Y-65997497D01*
X108735104Y-66048660D01*
X108735107Y-66048670D01*
X108802983Y-66212540D01*
X108802990Y-66212553D01*
X108901535Y-66360034D01*
X108901538Y-66360038D01*
X109026961Y-66485461D01*
X109026965Y-66485464D01*
X109174446Y-66584009D01*
X109174459Y-66584016D01*
X109279499Y-66627524D01*
X109338334Y-66651894D01*
X109338336Y-66651894D01*
X109338341Y-66651896D01*
X109512304Y-66686499D01*
X109512307Y-66686500D01*
X109638500Y-66686500D01*
X109705539Y-66706185D01*
X109751294Y-66758989D01*
X109762500Y-66810500D01*
X109762500Y-70776638D01*
X109742815Y-70843677D01*
X109726181Y-70864319D01*
X109663538Y-70926961D01*
X109663535Y-70926965D01*
X109564990Y-71074446D01*
X109564983Y-71074459D01*
X109497106Y-71238332D01*
X109497103Y-71238341D01*
X109462500Y-71412304D01*
X109462500Y-71589695D01*
X109497103Y-71763658D01*
X109497106Y-71763667D01*
X109564983Y-71927540D01*
X109564990Y-71927553D01*
X109663535Y-72075034D01*
X109663538Y-72075038D01*
X109788961Y-72200461D01*
X109788965Y-72200464D01*
X109936446Y-72299009D01*
X109936459Y-72299016D01*
X110059363Y-72349923D01*
X110100334Y-72366894D01*
X110100336Y-72366894D01*
X110100341Y-72366896D01*
X110274304Y-72401499D01*
X110274307Y-72401500D01*
X110274309Y-72401500D01*
X110451693Y-72401500D01*
X110451694Y-72401499D01*
X110509682Y-72389964D01*
X110625658Y-72366896D01*
X110625661Y-72366894D01*
X110625666Y-72366894D01*
X110789547Y-72299013D01*
X110937035Y-72200464D01*
X111062464Y-72075035D01*
X111161013Y-71927547D01*
X111228894Y-71763666D01*
X111263500Y-71589691D01*
X111263500Y-71412309D01*
X111263500Y-71412306D01*
X111263499Y-71412304D01*
X111228896Y-71238341D01*
X111228893Y-71238332D01*
X111161016Y-71074459D01*
X111161009Y-71074446D01*
X111062464Y-70926965D01*
X111062461Y-70926961D01*
X110999819Y-70864319D01*
X110966334Y-70802996D01*
X110963500Y-70776638D01*
X110963500Y-60414361D01*
X110972144Y-60384923D01*
X110976847Y-60363304D01*
X112129500Y-60363304D01*
X112129500Y-60540695D01*
X112164103Y-60714658D01*
X112164106Y-60714667D01*
X112231983Y-60878540D01*
X112231990Y-60878553D01*
X112330534Y-61026033D01*
X112330535Y-61026034D01*
X112330536Y-61026035D01*
X112418182Y-61113681D01*
X112451666Y-61175002D01*
X112454500Y-61201361D01*
X112454500Y-67234234D01*
X112454500Y-67385766D01*
X112474109Y-67458950D01*
X112493719Y-67532136D01*
X112498775Y-67540893D01*
X112569485Y-67663365D01*
X112569487Y-67663367D01*
X119784181Y-74878061D01*
X119817666Y-74939384D01*
X119820500Y-74965742D01*
X119820500Y-81419638D01*
X119800815Y-81486677D01*
X119784181Y-81507319D01*
X119696538Y-81594961D01*
X119696535Y-81594965D01*
X119597990Y-81742446D01*
X119597983Y-81742459D01*
X119530106Y-81906332D01*
X119530103Y-81906341D01*
X119495500Y-82080304D01*
X119495500Y-82257695D01*
X119530103Y-82431658D01*
X119530106Y-82431667D01*
X119597983Y-82595540D01*
X119597990Y-82595553D01*
X119696535Y-82743034D01*
X119696538Y-82743038D01*
X119821961Y-82868461D01*
X119821965Y-82868464D01*
X119969446Y-82967009D01*
X119969459Y-82967016D01*
X120092363Y-83017923D01*
X120133334Y-83034894D01*
X120133336Y-83034894D01*
X120133341Y-83034896D01*
X120307304Y-83069499D01*
X120307307Y-83069500D01*
X120307309Y-83069500D01*
X120484693Y-83069500D01*
X120484694Y-83069499D01*
X120542682Y-83057964D01*
X120658658Y-83034896D01*
X120658661Y-83034894D01*
X120658666Y-83034894D01*
X120822547Y-82967013D01*
X120970035Y-82868464D01*
X121095464Y-82743035D01*
X121194013Y-82595547D01*
X121261894Y-82431666D01*
X121267010Y-82405949D01*
X121296499Y-82257695D01*
X121296500Y-82257693D01*
X121296500Y-82080306D01*
X121296499Y-82080304D01*
X121261896Y-81906341D01*
X121261893Y-81906332D01*
X121194016Y-81742459D01*
X121194009Y-81742446D01*
X121095464Y-81594965D01*
X121095461Y-81594961D01*
X121007819Y-81507319D01*
X120974334Y-81445996D01*
X120971500Y-81419638D01*
X120971500Y-74600235D01*
X120971500Y-74600234D01*
X120960853Y-74560500D01*
X120932281Y-74453865D01*
X120856515Y-74322635D01*
X113641819Y-67107939D01*
X113608334Y-67046616D01*
X113605500Y-67020258D01*
X113605500Y-61201361D01*
X113625185Y-61134322D01*
X113641814Y-61113684D01*
X113729464Y-61026035D01*
X113828013Y-60878547D01*
X113895894Y-60714666D01*
X113898172Y-60703218D01*
X113930499Y-60540695D01*
X113930500Y-60540693D01*
X113930500Y-60363306D01*
X113930499Y-60363304D01*
X113895896Y-60189341D01*
X113895893Y-60189332D01*
X113828016Y-60025459D01*
X113828014Y-60025455D01*
X113828013Y-60025453D01*
X113781272Y-59955500D01*
X113756287Y-59918108D01*
X113729464Y-59877965D01*
X113729461Y-59877961D01*
X113706804Y-59855304D01*
X115558500Y-59855304D01*
X115558500Y-60032695D01*
X115593103Y-60206658D01*
X115593106Y-60206667D01*
X115660983Y-60370540D01*
X115660990Y-60370553D01*
X115759534Y-60518033D01*
X115759535Y-60518034D01*
X115759536Y-60518035D01*
X115847182Y-60605681D01*
X115880666Y-60667002D01*
X115883500Y-60693361D01*
X115883500Y-61734638D01*
X115863815Y-61801677D01*
X115847181Y-61822319D01*
X115759538Y-61909961D01*
X115759535Y-61909965D01*
X115660990Y-62057446D01*
X115660983Y-62057459D01*
X115593106Y-62221332D01*
X115593103Y-62221341D01*
X115558500Y-62395304D01*
X115558500Y-62572695D01*
X115593103Y-62746658D01*
X115593106Y-62746667D01*
X115660983Y-62910540D01*
X115660990Y-62910553D01*
X115759535Y-63058034D01*
X115759538Y-63058038D01*
X115884961Y-63183461D01*
X115884965Y-63183464D01*
X116032446Y-63282009D01*
X116032459Y-63282016D01*
X116155363Y-63332923D01*
X116196334Y-63349894D01*
X116196336Y-63349894D01*
X116196341Y-63349896D01*
X116370304Y-63384499D01*
X116370307Y-63384500D01*
X116370309Y-63384500D01*
X116547693Y-63384500D01*
X116547694Y-63384499D01*
X116605682Y-63372964D01*
X116721658Y-63349896D01*
X116721661Y-63349894D01*
X116721666Y-63349894D01*
X116885547Y-63282013D01*
X117033035Y-63183464D01*
X117158464Y-63058035D01*
X117257013Y-62910547D01*
X117324894Y-62746666D01*
X117326137Y-62740420D01*
X117359499Y-62572695D01*
X117359500Y-62572693D01*
X117359500Y-62395306D01*
X117359499Y-62395304D01*
X117324896Y-62221341D01*
X117324893Y-62221332D01*
X117312811Y-62192164D01*
X117282150Y-62118139D01*
X117257016Y-62057459D01*
X117257009Y-62057446D01*
X117158464Y-61909965D01*
X117158461Y-61909961D01*
X117070819Y-61822319D01*
X117037334Y-61760996D01*
X117034500Y-61734638D01*
X117034500Y-60693361D01*
X117054185Y-60626322D01*
X117070814Y-60605684D01*
X117158464Y-60518035D01*
X117257013Y-60370547D01*
X117260140Y-60362999D01*
X117269608Y-60340139D01*
X117324894Y-60206666D01*
X117326065Y-60200782D01*
X117358660Y-60036914D01*
X117359500Y-60032691D01*
X117359500Y-59855309D01*
X117359500Y-59855306D01*
X117359499Y-59855304D01*
X117324896Y-59681341D01*
X117324893Y-59681332D01*
X117257016Y-59517459D01*
X117257009Y-59517446D01*
X117158464Y-59369965D01*
X117158461Y-59369961D01*
X117033038Y-59244538D01*
X117033034Y-59244535D01*
X116885553Y-59145990D01*
X116885540Y-59145983D01*
X116721667Y-59078106D01*
X116721658Y-59078103D01*
X116547694Y-59043500D01*
X116547691Y-59043500D01*
X116370309Y-59043500D01*
X116370306Y-59043500D01*
X116196341Y-59078103D01*
X116196332Y-59078106D01*
X116032459Y-59145983D01*
X116032446Y-59145990D01*
X115884965Y-59244535D01*
X115884961Y-59244538D01*
X115759538Y-59369961D01*
X115759535Y-59369965D01*
X115660990Y-59517446D01*
X115660983Y-59517459D01*
X115593106Y-59681332D01*
X115593103Y-59681341D01*
X115558500Y-59855304D01*
X113706804Y-59855304D01*
X113604038Y-59752538D01*
X113604034Y-59752535D01*
X113456553Y-59653990D01*
X113456540Y-59653983D01*
X113292667Y-59586106D01*
X113292658Y-59586103D01*
X113118694Y-59551500D01*
X113118691Y-59551500D01*
X112941309Y-59551500D01*
X112941306Y-59551500D01*
X112767341Y-59586103D01*
X112767332Y-59586106D01*
X112603459Y-59653983D01*
X112603446Y-59653990D01*
X112455965Y-59752535D01*
X112455961Y-59752538D01*
X112330538Y-59877961D01*
X112330535Y-59877965D01*
X112231990Y-60025446D01*
X112231983Y-60025459D01*
X112164106Y-60189332D01*
X112164103Y-60189341D01*
X112129500Y-60363304D01*
X110976847Y-60363304D01*
X110978668Y-60354933D01*
X110982422Y-60349917D01*
X110983185Y-60347322D01*
X110999820Y-60326679D01*
X111056965Y-60269535D01*
X111062461Y-60264038D01*
X111062464Y-60264035D01*
X111161013Y-60116547D01*
X111228894Y-59952666D01*
X111263500Y-59778691D01*
X111263500Y-59601309D01*
X111263500Y-59601306D01*
X111263499Y-59601304D01*
X111228896Y-59427341D01*
X111228893Y-59427332D01*
X111161016Y-59263459D01*
X111161009Y-59263446D01*
X111062464Y-59115965D01*
X111062461Y-59115961D01*
X110937038Y-58990538D01*
X110937034Y-58990535D01*
X110789553Y-58891990D01*
X110789540Y-58891983D01*
X110625667Y-58824106D01*
X110625658Y-58824103D01*
X110451694Y-58789500D01*
X110451691Y-58789500D01*
X110300500Y-58789500D01*
X110233461Y-58769815D01*
X110187706Y-58717011D01*
X110176500Y-58665500D01*
X110176500Y-49423713D01*
X144064500Y-49423713D01*
X144064500Y-49636286D01*
X144097753Y-49846239D01*
X144163444Y-50048414D01*
X144259951Y-50237820D01*
X144384890Y-50409786D01*
X144498818Y-50523714D01*
X144532303Y-50585037D01*
X144527319Y-50654729D01*
X144485447Y-50710662D01*
X144454471Y-50727577D01*
X144322912Y-50776646D01*
X144322906Y-50776649D01*
X144207812Y-50862809D01*
X144207809Y-50862812D01*
X144121649Y-50977906D01*
X144121645Y-50977913D01*
X144071403Y-51112620D01*
X144071401Y-51112627D01*
X144065000Y-51172155D01*
X144065000Y-51820000D01*
X144981988Y-51820000D01*
X144949075Y-51877007D01*
X144915000Y-52004174D01*
X144915000Y-52135826D01*
X144949075Y-52262993D01*
X144981988Y-52320000D01*
X144065000Y-52320000D01*
X144065000Y-52967844D01*
X144071401Y-53027372D01*
X144071403Y-53027379D01*
X144121645Y-53162086D01*
X144121649Y-53162093D01*
X144207809Y-53277187D01*
X144207812Y-53277190D01*
X144322906Y-53363350D01*
X144322913Y-53363354D01*
X144457620Y-53413596D01*
X144457627Y-53413598D01*
X144517155Y-53419999D01*
X144517172Y-53420000D01*
X145165000Y-53420000D01*
X145165000Y-52503012D01*
X145222007Y-52535925D01*
X145349174Y-52570000D01*
X145480826Y-52570000D01*
X145607993Y-52535925D01*
X145665000Y-52503012D01*
X145665000Y-53420000D01*
X146312828Y-53420000D01*
X146312844Y-53419999D01*
X146372372Y-53413598D01*
X146372379Y-53413596D01*
X146507086Y-53363354D01*
X146507093Y-53363350D01*
X146622187Y-53277190D01*
X146622190Y-53277187D01*
X146708350Y-53162093D01*
X146708354Y-53162086D01*
X146758596Y-53027379D01*
X146758598Y-53027372D01*
X146764999Y-52967844D01*
X146765000Y-52967827D01*
X146765000Y-52320000D01*
X145848012Y-52320000D01*
X145880925Y-52262993D01*
X145915000Y-52135826D01*
X145915000Y-52004174D01*
X145880925Y-51877007D01*
X145848012Y-51820000D01*
X146765000Y-51820000D01*
X146765000Y-51172172D01*
X146764999Y-51172155D01*
X146758598Y-51112627D01*
X146758596Y-51112620D01*
X146708354Y-50977913D01*
X146708350Y-50977906D01*
X146622190Y-50862812D01*
X146622187Y-50862809D01*
X146507093Y-50776649D01*
X146507088Y-50776646D01*
X146375528Y-50727577D01*
X146319595Y-50685705D01*
X146295178Y-50620241D01*
X146310030Y-50551968D01*
X146331175Y-50523720D01*
X146445104Y-50409792D01*
X146570051Y-50237816D01*
X146666557Y-50048412D01*
X146732246Y-49846243D01*
X146765500Y-49636287D01*
X146765500Y-49423713D01*
X146732246Y-49213757D01*
X146666557Y-49011588D01*
X146570051Y-48822184D01*
X146570049Y-48822181D01*
X146570048Y-48822179D01*
X146445109Y-48650213D01*
X146294786Y-48499890D01*
X146122820Y-48374951D01*
X145933414Y-48278444D01*
X145933413Y-48278443D01*
X145933412Y-48278443D01*
X145731243Y-48212754D01*
X145731241Y-48212753D01*
X145731240Y-48212753D01*
X145569957Y-48187208D01*
X145521287Y-48179500D01*
X145308713Y-48179500D01*
X145260042Y-48187208D01*
X145098760Y-48212753D01*
X144896585Y-48278444D01*
X144707179Y-48374951D01*
X144535213Y-48499890D01*
X144384890Y-48650213D01*
X144259951Y-48822179D01*
X144163444Y-49011585D01*
X144097753Y-49213760D01*
X144064500Y-49423713D01*
X110176500Y-49423713D01*
X110176500Y-49311742D01*
X110196185Y-49244703D01*
X110212819Y-49224061D01*
X113359061Y-46077819D01*
X113420384Y-46044334D01*
X113446742Y-46041500D01*
X114144543Y-46041500D01*
X114211582Y-46061185D01*
X114255028Y-46109205D01*
X114287951Y-46173819D01*
X114412890Y-46345786D01*
X114563213Y-46496109D01*
X114735179Y-46621048D01*
X114735181Y-46621049D01*
X114735184Y-46621051D01*
X114924588Y-46717557D01*
X115126757Y-46783246D01*
X115336713Y-46816500D01*
X115336714Y-46816500D01*
X115549286Y-46816500D01*
X115549287Y-46816500D01*
X115759243Y-46783246D01*
X115961412Y-46717557D01*
X116150816Y-46621051D01*
X116172789Y-46605086D01*
X116322786Y-46496109D01*
X116322788Y-46496106D01*
X116322792Y-46496104D01*
X116473104Y-46345792D01*
X116473106Y-46345788D01*
X116473109Y-46345786D01*
X116598048Y-46173820D01*
X116598049Y-46173819D01*
X116598051Y-46173816D01*
X116602514Y-46165054D01*
X116650488Y-46114259D01*
X116718308Y-46097463D01*
X116784444Y-46119999D01*
X116823486Y-46165056D01*
X116827951Y-46173820D01*
X116952890Y-46345786D01*
X117103213Y-46496109D01*
X117275179Y-46621048D01*
X117275181Y-46621049D01*
X117275184Y-46621051D01*
X117464588Y-46717557D01*
X117666757Y-46783246D01*
X117876713Y-46816500D01*
X117876714Y-46816500D01*
X118089286Y-46816500D01*
X118089287Y-46816500D01*
X118299243Y-46783246D01*
X118501412Y-46717557D01*
X118690816Y-46621051D01*
X118712789Y-46605086D01*
X118862786Y-46496109D01*
X118862788Y-46496106D01*
X118862792Y-46496104D01*
X119013104Y-46345792D01*
X119013106Y-46345788D01*
X119013109Y-46345786D01*
X119138048Y-46173820D01*
X119138049Y-46173819D01*
X119138051Y-46173816D01*
X119142514Y-46165054D01*
X119190488Y-46114259D01*
X119258308Y-46097463D01*
X119324444Y-46119999D01*
X119363486Y-46165056D01*
X119367951Y-46173820D01*
X119492890Y-46345786D01*
X119643213Y-46496109D01*
X119815179Y-46621048D01*
X119815181Y-46621049D01*
X119815184Y-46621051D01*
X120004588Y-46717557D01*
X120206757Y-46783246D01*
X120416713Y-46816500D01*
X120416714Y-46816500D01*
X120629286Y-46816500D01*
X120629287Y-46816500D01*
X120839243Y-46783246D01*
X121041412Y-46717557D01*
X121230816Y-46621051D01*
X121252789Y-46605086D01*
X121402786Y-46496109D01*
X121402788Y-46496106D01*
X121402792Y-46496104D01*
X121553104Y-46345792D01*
X121553106Y-46345788D01*
X121553109Y-46345786D01*
X121678048Y-46173820D01*
X121678049Y-46173819D01*
X121678051Y-46173816D01*
X121682514Y-46165054D01*
X121730488Y-46114259D01*
X121798308Y-46097463D01*
X121864444Y-46119999D01*
X121903486Y-46165056D01*
X121907951Y-46173820D01*
X122032890Y-46345786D01*
X122183213Y-46496109D01*
X122355179Y-46621048D01*
X122355181Y-46621049D01*
X122355184Y-46621051D01*
X122544588Y-46717557D01*
X122746757Y-46783246D01*
X122956713Y-46816500D01*
X122956714Y-46816500D01*
X123169286Y-46816500D01*
X123169287Y-46816500D01*
X123379243Y-46783246D01*
X123581412Y-46717557D01*
X123770816Y-46621051D01*
X123792789Y-46605086D01*
X123942786Y-46496109D01*
X123942788Y-46496106D01*
X123942792Y-46496104D01*
X124093104Y-46345792D01*
X124093106Y-46345788D01*
X124093109Y-46345786D01*
X124218048Y-46173820D01*
X124218049Y-46173819D01*
X124218051Y-46173816D01*
X124314557Y-45984412D01*
X124380246Y-45782243D01*
X124413500Y-45572287D01*
X124413500Y-45359713D01*
X124380246Y-45149757D01*
X124314557Y-44947588D01*
X124218051Y-44758184D01*
X124218049Y-44758181D01*
X124218048Y-44758179D01*
X124093109Y-44586213D01*
X123979569Y-44472673D01*
X123946084Y-44411350D01*
X123951068Y-44341658D01*
X123992940Y-44285725D01*
X124023915Y-44268810D01*
X124155331Y-44219796D01*
X124270546Y-44133546D01*
X124356796Y-44018331D01*
X124407091Y-43883483D01*
X124413500Y-43823873D01*
X124413499Y-42028128D01*
X124407091Y-41968517D01*
X124405810Y-41965083D01*
X124356797Y-41833671D01*
X124356793Y-41833664D01*
X124270547Y-41718455D01*
X124270544Y-41718452D01*
X124155335Y-41632206D01*
X124155328Y-41632202D01*
X124020482Y-41581908D01*
X124020483Y-41581908D01*
X123960883Y-41575501D01*
X123960881Y-41575500D01*
X123960873Y-41575500D01*
X123960864Y-41575500D01*
X122165129Y-41575500D01*
X122165123Y-41575501D01*
X122105516Y-41581908D01*
X121970671Y-41632202D01*
X121970664Y-41632206D01*
X121855455Y-41718452D01*
X121855452Y-41718455D01*
X121769206Y-41833664D01*
X121769203Y-41833669D01*
X121720189Y-41965083D01*
X121678317Y-42021016D01*
X121612853Y-42045433D01*
X121544580Y-42030581D01*
X121516326Y-42009430D01*
X121402786Y-41895890D01*
X121230820Y-41770951D01*
X121041414Y-41674444D01*
X121041413Y-41674443D01*
X121041412Y-41674443D01*
X120839243Y-41608754D01*
X120839241Y-41608753D01*
X120839240Y-41608753D01*
X120677957Y-41583208D01*
X120629287Y-41575500D01*
X120416713Y-41575500D01*
X120368042Y-41583208D01*
X120206760Y-41608753D01*
X120004585Y-41674444D01*
X119815179Y-41770951D01*
X119643213Y-41895890D01*
X119492890Y-42046213D01*
X119367949Y-42218182D01*
X119363484Y-42226946D01*
X119315509Y-42277742D01*
X119247688Y-42294536D01*
X119181553Y-42271998D01*
X119142516Y-42226946D01*
X119138050Y-42218182D01*
X119013109Y-42046213D01*
X118862786Y-41895890D01*
X118690820Y-41770951D01*
X118501414Y-41674444D01*
X118501413Y-41674443D01*
X118501412Y-41674443D01*
X118299243Y-41608754D01*
X118299241Y-41608753D01*
X118299240Y-41608753D01*
X118137957Y-41583208D01*
X118089287Y-41575500D01*
X117876713Y-41575500D01*
X117828042Y-41583208D01*
X117666760Y-41608753D01*
X117464585Y-41674444D01*
X117275179Y-41770951D01*
X117103213Y-41895890D01*
X116952890Y-42046213D01*
X116827949Y-42218182D01*
X116823202Y-42227499D01*
X116775227Y-42278293D01*
X116707405Y-42295087D01*
X116641271Y-42272548D01*
X116602234Y-42227495D01*
X116597622Y-42218444D01*
X116472727Y-42046540D01*
X116472723Y-42046535D01*
X116322464Y-41896276D01*
X116322459Y-41896272D01*
X116150557Y-41771379D01*
X115961215Y-41674903D01*
X115759124Y-41609241D01*
X115693000Y-41598768D01*
X115693000Y-42492988D01*
X115635993Y-42460075D01*
X115508826Y-42426000D01*
X115377174Y-42426000D01*
X115250007Y-42460075D01*
X115193000Y-42492988D01*
X115193000Y-41598768D01*
X115192999Y-41598768D01*
X115126875Y-41609241D01*
X114924784Y-41674903D01*
X114735442Y-41771379D01*
X114563540Y-41896272D01*
X114563535Y-41896276D01*
X114413276Y-42046535D01*
X114413272Y-42046540D01*
X114288379Y-42218442D01*
X114191904Y-42407782D01*
X114126242Y-42609870D01*
X114126242Y-42609873D01*
X114115769Y-42676000D01*
X115009988Y-42676000D01*
X114977075Y-42733007D01*
X114943000Y-42860174D01*
X114943000Y-42991826D01*
X114977075Y-43118993D01*
X115009988Y-43176000D01*
X114115769Y-43176000D01*
X114126242Y-43242126D01*
X114126242Y-43242129D01*
X114191904Y-43444217D01*
X114254570Y-43567205D01*
X114267466Y-43635874D01*
X114241190Y-43700615D01*
X114184083Y-43740872D01*
X114144085Y-43747500D01*
X113335228Y-43747500D01*
X113312840Y-43753499D01*
X113312841Y-43753500D01*
X113188865Y-43786719D01*
X113188863Y-43786719D01*
X113188863Y-43786720D01*
X113057635Y-43862485D01*
X113057632Y-43862487D01*
X108378487Y-48541632D01*
X108378485Y-48541635D01*
X108302719Y-48672863D01*
X108263500Y-48819234D01*
X108263500Y-64274638D01*
X108243815Y-64341677D01*
X108227181Y-64362319D01*
X108139538Y-64449961D01*
X108139535Y-64449965D01*
X108040990Y-64597446D01*
X108040983Y-64597459D01*
X107973106Y-64761332D01*
X107973103Y-64761341D01*
X107938500Y-64935304D01*
X96565359Y-64935304D01*
X96528667Y-64920106D01*
X96528658Y-64920103D01*
X96354694Y-64885500D01*
X96354691Y-64885500D01*
X96177309Y-64885500D01*
X96177306Y-64885500D01*
X96003341Y-64920103D01*
X96003337Y-64920105D01*
X96003335Y-64920105D01*
X96003334Y-64920106D01*
X95966638Y-64935306D01*
X95869951Y-64975354D01*
X95800482Y-64982822D01*
X95738003Y-64951546D01*
X95702351Y-64891457D01*
X95698500Y-64860792D01*
X95698500Y-60312361D01*
X95718185Y-60245322D01*
X95734814Y-60224684D01*
X95822464Y-60137035D01*
X95921013Y-59989547D01*
X95988894Y-59825666D01*
X96005175Y-59743819D01*
X96021540Y-59661544D01*
X96023500Y-59651691D01*
X96023500Y-59474309D01*
X96023500Y-59474306D01*
X96023499Y-59474304D01*
X95988896Y-59300341D01*
X95988893Y-59300332D01*
X95921016Y-59136459D01*
X95921009Y-59136446D01*
X95822464Y-58988965D01*
X95822461Y-58988961D01*
X95697038Y-58863538D01*
X95697034Y-58863535D01*
X95549553Y-58764990D01*
X95549540Y-58764983D01*
X95385667Y-58697106D01*
X95385658Y-58697103D01*
X95211694Y-58662500D01*
X95211691Y-58662500D01*
X95034309Y-58662500D01*
X95034306Y-58662500D01*
X94860341Y-58697103D01*
X94860332Y-58697106D01*
X94696459Y-58764983D01*
X94696446Y-58764990D01*
X94548965Y-58863535D01*
X94548961Y-58863538D01*
X94423538Y-58988961D01*
X94423535Y-58988965D01*
X94324990Y-59136446D01*
X94324983Y-59136459D01*
X94257106Y-59300332D01*
X94257103Y-59300341D01*
X94222500Y-59474304D01*
X94222500Y-59651695D01*
X94257103Y-59825658D01*
X94257106Y-59825667D01*
X94324983Y-59989540D01*
X94324990Y-59989553D01*
X94423534Y-60137033D01*
X94423535Y-60137034D01*
X94423536Y-60137035D01*
X94511182Y-60224681D01*
X94544666Y-60286002D01*
X94547500Y-60312361D01*
X94547500Y-64046188D01*
X94527815Y-64113227D01*
X94475011Y-64158982D01*
X94405853Y-64168926D01*
X94376053Y-64160751D01*
X94369670Y-64158107D01*
X94369658Y-64158103D01*
X94195694Y-64123500D01*
X94195691Y-64123500D01*
X94018309Y-64123500D01*
X94018308Y-64123500D01*
X93982017Y-64130718D01*
X93912425Y-64124489D01*
X93857249Y-64081625D01*
X93834006Y-64015735D01*
X93836211Y-63984908D01*
X93864500Y-63842693D01*
X93864500Y-63665306D01*
X93864499Y-63665304D01*
X93829896Y-63491341D01*
X93829893Y-63491332D01*
X93762016Y-63327459D01*
X93762009Y-63327446D01*
X93663464Y-63179965D01*
X93663461Y-63179961D01*
X93538038Y-63054538D01*
X93538034Y-63054535D01*
X93390553Y-62955990D01*
X93390540Y-62955983D01*
X93226667Y-62888106D01*
X93226658Y-62888103D01*
X93052694Y-62853500D01*
X93052691Y-62853500D01*
X92875309Y-62853500D01*
X92875306Y-62853500D01*
X92701341Y-62888103D01*
X92701332Y-62888106D01*
X92537459Y-62955983D01*
X92537446Y-62955990D01*
X92389965Y-63054535D01*
X92389961Y-63054538D01*
X92264538Y-63179961D01*
X92264535Y-63179965D01*
X92165990Y-63327446D01*
X92165983Y-63327459D01*
X92098106Y-63491332D01*
X92098103Y-63491341D01*
X92063500Y-63665304D01*
X92063500Y-63842695D01*
X92098103Y-64016658D01*
X92098106Y-64016667D01*
X92165983Y-64180540D01*
X92165990Y-64180553D01*
X92264534Y-64328033D01*
X92264535Y-64328034D01*
X92264536Y-64328035D01*
X92352182Y-64415681D01*
X92385666Y-64477002D01*
X92388500Y-64503361D01*
X92388500Y-80176376D01*
X92368815Y-80243415D01*
X92333392Y-80279477D01*
X92262965Y-80326536D01*
X92262958Y-80326542D01*
X92137538Y-80451961D01*
X92137535Y-80451965D01*
X92038990Y-80599446D01*
X92038983Y-80599459D01*
X91971106Y-80763332D01*
X91971103Y-80763341D01*
X91936500Y-80937304D01*
X84561616Y-80937304D01*
X84655384Y-80843536D01*
X84727921Y-80771000D01*
X85087102Y-80411819D01*
X85148425Y-80378334D01*
X85174783Y-80375500D01*
X85823543Y-80375500D01*
X85953582Y-80349632D01*
X86016835Y-80337051D01*
X86198914Y-80261632D01*
X86362782Y-80152139D01*
X86502139Y-80012782D01*
X86611632Y-79848914D01*
X86687051Y-79666835D01*
X86725500Y-79473541D01*
X86725500Y-79276459D01*
X86725500Y-79276456D01*
X86687052Y-79083170D01*
X86687051Y-79083169D01*
X86687051Y-79083165D01*
X86627826Y-78940181D01*
X86611635Y-78901092D01*
X86611628Y-78901079D01*
X86498755Y-78732153D01*
X86500278Y-78731135D01*
X86476331Y-78674723D01*
X86475500Y-78660389D01*
X86475500Y-77832230D01*
X86495185Y-77765191D01*
X86511819Y-77744549D01*
X87430584Y-76825784D01*
X88466952Y-75789416D01*
X88516186Y-75715729D01*
X88549084Y-75666495D01*
X88605658Y-75529913D01*
X88634500Y-75384918D01*
X88634500Y-67620089D01*
X88654185Y-67553050D01*
X88706989Y-67507295D01*
X88776147Y-67497351D01*
X88805952Y-67505528D01*
X88891334Y-67540894D01*
X88891336Y-67540894D01*
X88891341Y-67540896D01*
X89065304Y-67575499D01*
X89065307Y-67575500D01*
X89065309Y-67575500D01*
X89242693Y-67575500D01*
X89242694Y-67575499D01*
X89300682Y-67563964D01*
X89416658Y-67540896D01*
X89416661Y-67540894D01*
X89416666Y-67540894D01*
X89580547Y-67473013D01*
X89728035Y-67374464D01*
X89853464Y-67249035D01*
X89952013Y-67101547D01*
X90019894Y-66937666D01*
X90054500Y-66763691D01*
X90054500Y-66586309D01*
X90054500Y-66586306D01*
X90054499Y-66586304D01*
X90019896Y-66412341D01*
X90019893Y-66412332D01*
X89952016Y-66248459D01*
X89952009Y-66248446D01*
X89853464Y-66100965D01*
X89853461Y-66100961D01*
X89728038Y-65975538D01*
X89728034Y-65975535D01*
X89663562Y-65932456D01*
X89580547Y-65876987D01*
X89580544Y-65876985D01*
X89580543Y-65876985D01*
X89552045Y-65865180D01*
X89497643Y-65821338D01*
X89475579Y-65755044D01*
X89475500Y-65750620D01*
X89475500Y-60312361D01*
X89495185Y-60245322D01*
X89511814Y-60224684D01*
X89599464Y-60137035D01*
X89698013Y-59989547D01*
X89765894Y-59825666D01*
X89782175Y-59743819D01*
X89798540Y-59661544D01*
X89800500Y-59651691D01*
X89800500Y-59474309D01*
X89800500Y-59474306D01*
X89800499Y-59474304D01*
X89765896Y-59300341D01*
X89765893Y-59300332D01*
X89698016Y-59136459D01*
X89698009Y-59136446D01*
X89599464Y-58988965D01*
X89599461Y-58988961D01*
X89474038Y-58863538D01*
X89474034Y-58863535D01*
X89326553Y-58764990D01*
X89326540Y-58764983D01*
X89162667Y-58697106D01*
X89162658Y-58697103D01*
X88988694Y-58662500D01*
X88988691Y-58662500D01*
X88811309Y-58662500D01*
X88811306Y-58662500D01*
X88637341Y-58697103D01*
X88637332Y-58697106D01*
X88473459Y-58764983D01*
X88473446Y-58764990D01*
X88325965Y-58863535D01*
X88325961Y-58863538D01*
X88200538Y-58988961D01*
X88200535Y-58988965D01*
X88101990Y-59136446D01*
X88101983Y-59136459D01*
X88034106Y-59300332D01*
X88034103Y-59300341D01*
X87998311Y-59480283D01*
X87996978Y-59480017D01*
X87973401Y-59538389D01*
X87916362Y-59578741D01*
X87846562Y-59581851D01*
X87788486Y-59549118D01*
X87346421Y-59107052D01*
X87346414Y-59107046D01*
X87251308Y-59043499D01*
X87251308Y-59043500D01*
X87223495Y-59024916D01*
X87223492Y-59024914D01*
X87223491Y-59024914D01*
X87086917Y-58968343D01*
X87086907Y-58968340D01*
X86941920Y-58939500D01*
X86941918Y-58939500D01*
X72117229Y-58939500D01*
X72050190Y-58919815D01*
X72029548Y-58903181D01*
X71271819Y-58145451D01*
X71238334Y-58084128D01*
X71235500Y-58057770D01*
X71235500Y-46139304D01*
X85459500Y-46139304D01*
X85459500Y-46316695D01*
X85494103Y-46490658D01*
X85494106Y-46490667D01*
X85561983Y-46654540D01*
X85561990Y-46654553D01*
X85660534Y-46802033D01*
X85660535Y-46802034D01*
X85660536Y-46802035D01*
X85748182Y-46889681D01*
X85781666Y-46951002D01*
X85784500Y-46977361D01*
X85784500Y-47764638D01*
X85764815Y-47831677D01*
X85748181Y-47852319D01*
X85660538Y-47939961D01*
X85660535Y-47939965D01*
X85561990Y-48087446D01*
X85561983Y-48087459D01*
X85494106Y-48251332D01*
X85494103Y-48251341D01*
X85459500Y-48425304D01*
X85459500Y-48602695D01*
X85494103Y-48776658D01*
X85494106Y-48776667D01*
X85561983Y-48940540D01*
X85561990Y-48940553D01*
X85660535Y-49088034D01*
X85660538Y-49088038D01*
X85785961Y-49213461D01*
X85785965Y-49213464D01*
X85933446Y-49312009D01*
X85933459Y-49312016D01*
X86056363Y-49362923D01*
X86097334Y-49379894D01*
X86097336Y-49379894D01*
X86097341Y-49379896D01*
X86271304Y-49414499D01*
X86271307Y-49414500D01*
X86271309Y-49414500D01*
X86448693Y-49414500D01*
X86448694Y-49414499D01*
X86506682Y-49402964D01*
X86622658Y-49379896D01*
X86622661Y-49379894D01*
X86622666Y-49379894D01*
X86786547Y-49312013D01*
X86934035Y-49213464D01*
X87059464Y-49088035D01*
X87158013Y-48940547D01*
X87225894Y-48776666D01*
X87260500Y-48602691D01*
X87260500Y-48425309D01*
X87260500Y-48425306D01*
X87260499Y-48425304D01*
X87225896Y-48251341D01*
X87225893Y-48251332D01*
X87158016Y-48087459D01*
X87158009Y-48087446D01*
X87059464Y-47939965D01*
X87059461Y-47939961D01*
X86971819Y-47852319D01*
X86938334Y-47790996D01*
X86935500Y-47764638D01*
X86935500Y-46977361D01*
X86955185Y-46910322D01*
X86971814Y-46889684D01*
X87059464Y-46802035D01*
X87158013Y-46654547D01*
X87225894Y-46490666D01*
X87260500Y-46316691D01*
X87260500Y-46139309D01*
X87260500Y-46139306D01*
X87260499Y-46139304D01*
X87225896Y-45965341D01*
X87225893Y-45965332D01*
X87158016Y-45801459D01*
X87158009Y-45801446D01*
X87059464Y-45653965D01*
X87059461Y-45653961D01*
X86934038Y-45528538D01*
X86934034Y-45528535D01*
X86786553Y-45429990D01*
X86786540Y-45429983D01*
X86622667Y-45362106D01*
X86622658Y-45362103D01*
X86448694Y-45327500D01*
X86448691Y-45327500D01*
X86271309Y-45327500D01*
X86271306Y-45327500D01*
X86097341Y-45362103D01*
X86097332Y-45362106D01*
X85933459Y-45429983D01*
X85933446Y-45429990D01*
X85785965Y-45528535D01*
X85785961Y-45528538D01*
X85660538Y-45653961D01*
X85660535Y-45653965D01*
X85561990Y-45801446D01*
X85561983Y-45801459D01*
X85494106Y-45965332D01*
X85494103Y-45965341D01*
X85459500Y-46139304D01*
X71235500Y-46139304D01*
X71235500Y-43870550D01*
X71255185Y-43803511D01*
X71290610Y-43767447D01*
X71313035Y-43752464D01*
X71438464Y-43627035D01*
X71537013Y-43479547D01*
X71604894Y-43315666D01*
X71639500Y-43141691D01*
X71639500Y-42964309D01*
X71639500Y-42964306D01*
X71639499Y-42964304D01*
X71604896Y-42790341D01*
X71604893Y-42790332D01*
X71592543Y-42760516D01*
X71537016Y-42626458D01*
X71537009Y-42626446D01*
X71438464Y-42478965D01*
X71438461Y-42478961D01*
X71313038Y-42353538D01*
X71313034Y-42353535D01*
X71165553Y-42254990D01*
X71165540Y-42254983D01*
X71001667Y-42187106D01*
X71001658Y-42187103D01*
X70827694Y-42152500D01*
X70827691Y-42152500D01*
X70650309Y-42152500D01*
X70650306Y-42152500D01*
X70476341Y-42187103D01*
X70476332Y-42187106D01*
X70312459Y-42254983D01*
X70312446Y-42254990D01*
X70164965Y-42353535D01*
X70164961Y-42353538D01*
X70039538Y-42478961D01*
X70039535Y-42478965D01*
X69940990Y-42626446D01*
X69940983Y-42626459D01*
X69873106Y-42790331D01*
X69873104Y-42790337D01*
X69854814Y-42882286D01*
X69836303Y-42926979D01*
X69819915Y-42951507D01*
X69763342Y-43088086D01*
X69763340Y-43088092D01*
X69734500Y-43233079D01*
X69734500Y-53980966D01*
X69714815Y-54048005D01*
X69662011Y-54093760D01*
X69592853Y-54103704D01*
X69541611Y-54084069D01*
X69514556Y-54065992D01*
X69514540Y-54065983D01*
X69350667Y-53998106D01*
X69350658Y-53998103D01*
X69176694Y-53963500D01*
X69176691Y-53963500D01*
X68999309Y-53963500D01*
X68999306Y-53963500D01*
X68825341Y-53998103D01*
X68825332Y-53998106D01*
X68661459Y-54065983D01*
X68661446Y-54065990D01*
X68513966Y-54164534D01*
X68470143Y-54208357D01*
X68426318Y-54252182D01*
X68364998Y-54285666D01*
X68338639Y-54288500D01*
X65392361Y-54288500D01*
X65325322Y-54268815D01*
X65304684Y-54252185D01*
X65217035Y-54164536D01*
X65217034Y-54164535D01*
X65217033Y-54164534D01*
X65069553Y-54065990D01*
X65069540Y-54065983D01*
X64905667Y-53998106D01*
X64905658Y-53998103D01*
X64731694Y-53963500D01*
X64731691Y-53963500D01*
X64554309Y-53963500D01*
X64554306Y-53963500D01*
X64380341Y-53998103D01*
X64380332Y-53998106D01*
X64216459Y-54065983D01*
X64216446Y-54065990D01*
X64068965Y-54164535D01*
X64068961Y-54164538D01*
X63943538Y-54289961D01*
X63943535Y-54289965D01*
X63844990Y-54437446D01*
X63844983Y-54437459D01*
X63777106Y-54601332D01*
X63777103Y-54601341D01*
X63742500Y-54775304D01*
X49530500Y-54775304D01*
X49530500Y-40850641D01*
X51340500Y-40850641D01*
X51340500Y-41149358D01*
X51373943Y-41446172D01*
X51373945Y-41446184D01*
X51440413Y-41737403D01*
X51440417Y-41737415D01*
X51539072Y-42019353D01*
X51668674Y-42288474D01*
X51827600Y-42541403D01*
X51827601Y-42541405D01*
X52013833Y-42774934D01*
X52225065Y-42986166D01*
X52458594Y-43172398D01*
X52458597Y-43172399D01*
X52458599Y-43172401D01*
X52711523Y-43331324D01*
X52980650Y-43460929D01*
X53192400Y-43535023D01*
X53262584Y-43559582D01*
X53262596Y-43559586D01*
X53553815Y-43626055D01*
X53850642Y-43659499D01*
X53850643Y-43659500D01*
X53850646Y-43659500D01*
X54149357Y-43659500D01*
X54149357Y-43659499D01*
X54446185Y-43626055D01*
X54737404Y-43559586D01*
X55019350Y-43460929D01*
X55288477Y-43331324D01*
X55541401Y-43172401D01*
X55550940Y-43164794D01*
X55774934Y-42986166D01*
X55774936Y-42986163D01*
X55774941Y-42986160D01*
X55986160Y-42774941D01*
X55997664Y-42760516D01*
X56172398Y-42541405D01*
X56172399Y-42541403D01*
X56172401Y-42541401D01*
X56331324Y-42288477D01*
X56460929Y-42019350D01*
X56559586Y-41737404D01*
X56626055Y-41446185D01*
X56659500Y-41149354D01*
X56659500Y-40850646D01*
X56626055Y-40553815D01*
X56559586Y-40262596D01*
X56460929Y-39980650D01*
X56331324Y-39711523D01*
X56172401Y-39458599D01*
X56172399Y-39458596D01*
X56172398Y-39458594D01*
X55986166Y-39225065D01*
X55774934Y-39013833D01*
X55541405Y-38827601D01*
X55541403Y-38827600D01*
X55288474Y-38668674D01*
X55019353Y-38539072D01*
X54737415Y-38440417D01*
X54737403Y-38440413D01*
X54512653Y-38389115D01*
X54446185Y-38373945D01*
X54446181Y-38373944D01*
X54446172Y-38373943D01*
X54149358Y-38340500D01*
X54149354Y-38340500D01*
X53850646Y-38340500D01*
X53850641Y-38340500D01*
X53553827Y-38373943D01*
X53553815Y-38373945D01*
X53262596Y-38440413D01*
X53262584Y-38440417D01*
X52980646Y-38539072D01*
X52711525Y-38668674D01*
X52458596Y-38827600D01*
X52458594Y-38827601D01*
X52225065Y-39013833D01*
X52013833Y-39225065D01*
X51827601Y-39458594D01*
X51827600Y-39458596D01*
X51668674Y-39711525D01*
X51539072Y-39980646D01*
X51440417Y-40262584D01*
X51440413Y-40262596D01*
X51373945Y-40553815D01*
X51373943Y-40553827D01*
X51340500Y-40850641D01*
X49530500Y-40850641D01*
X49530500Y-37233675D01*
X63444500Y-37233675D01*
X63444500Y-37442324D01*
X63477137Y-37648389D01*
X63541612Y-37846820D01*
X63599764Y-37960949D01*
X63636330Y-38032714D01*
X63758965Y-38201505D01*
X63906495Y-38349035D01*
X64075286Y-38471670D01*
X64163116Y-38516421D01*
X64261179Y-38566387D01*
X64261181Y-38566387D01*
X64261184Y-38566389D01*
X64367545Y-38600948D01*
X64459610Y-38630862D01*
X64665676Y-38663500D01*
X64665681Y-38663500D01*
X64874324Y-38663500D01*
X65080389Y-38630862D01*
X65278816Y-38566389D01*
X65464714Y-38471670D01*
X65633505Y-38349035D01*
X65780576Y-38201963D01*
X65841896Y-38168481D01*
X65911587Y-38173465D01*
X65967521Y-38215336D01*
X65986496Y-38263552D01*
X65989124Y-38262932D01*
X65990907Y-38270479D01*
X66041202Y-38405328D01*
X66041206Y-38405335D01*
X66127452Y-38520544D01*
X66127455Y-38520547D01*
X66242664Y-38606793D01*
X66242671Y-38606797D01*
X66377517Y-38657091D01*
X66377516Y-38657091D01*
X66384444Y-38657835D01*
X66437127Y-38663500D01*
X68182872Y-38663499D01*
X68242483Y-38657091D01*
X68377331Y-38606796D01*
X68492546Y-38520546D01*
X68578796Y-38405331D01*
X68629091Y-38270483D01*
X68635500Y-38210873D01*
X68635499Y-36465128D01*
X68629091Y-36405517D01*
X68599793Y-36326966D01*
X68578797Y-36270671D01*
X68578793Y-36270664D01*
X68492547Y-36155455D01*
X68492544Y-36155452D01*
X68377335Y-36069206D01*
X68377328Y-36069202D01*
X68242482Y-36018908D01*
X68242483Y-36018908D01*
X68182883Y-36012501D01*
X68182881Y-36012500D01*
X68182873Y-36012500D01*
X68182864Y-36012500D01*
X66437129Y-36012500D01*
X66437123Y-36012501D01*
X66377516Y-36018908D01*
X66242671Y-36069202D01*
X66242664Y-36069206D01*
X66127455Y-36155452D01*
X66127452Y-36155455D01*
X66041206Y-36270664D01*
X66041202Y-36270671D01*
X65990908Y-36405517D01*
X65989126Y-36413062D01*
X65986253Y-36412383D01*
X65964804Y-36464162D01*
X65907411Y-36504008D01*
X65837586Y-36506500D01*
X65780574Y-36474034D01*
X65633506Y-36326966D01*
X65556023Y-36270671D01*
X65464714Y-36204330D01*
X65445847Y-36194717D01*
X65278820Y-36109612D01*
X65080389Y-36045137D01*
X64874324Y-36012500D01*
X64874319Y-36012500D01*
X64665681Y-36012500D01*
X64665676Y-36012500D01*
X64459610Y-36045137D01*
X64261179Y-36109612D01*
X64075285Y-36204330D01*
X63906493Y-36326966D01*
X63758966Y-36474493D01*
X63636330Y-36643285D01*
X63541612Y-36829179D01*
X63477137Y-37027610D01*
X63444500Y-37233675D01*
X49530500Y-37233675D01*
X49530500Y-35802135D01*
X73833500Y-35802135D01*
X73833500Y-37597870D01*
X73833501Y-37597876D01*
X73839908Y-37657483D01*
X73890202Y-37792328D01*
X73890206Y-37792335D01*
X73976452Y-37907544D01*
X73976455Y-37907547D01*
X74091664Y-37993793D01*
X74091671Y-37993797D01*
X74223082Y-38042810D01*
X74279016Y-38084681D01*
X74303433Y-38150145D01*
X74288582Y-38218418D01*
X74267431Y-38246673D01*
X74153889Y-38360215D01*
X74028951Y-38532179D01*
X73932444Y-38721585D01*
X73866753Y-38923760D01*
X73833500Y-39133713D01*
X73833500Y-39346286D01*
X73866345Y-39553666D01*
X73866754Y-39556243D01*
X73917208Y-39711525D01*
X73932444Y-39758414D01*
X74028951Y-39947820D01*
X74153890Y-40119786D01*
X74304213Y-40270109D01*
X74476179Y-40395048D01*
X74476181Y-40395049D01*
X74476184Y-40395051D01*
X74665588Y-40491557D01*
X74867757Y-40557246D01*
X75077713Y-40590500D01*
X75077714Y-40590500D01*
X75290286Y-40590500D01*
X75290287Y-40590500D01*
X75500243Y-40557246D01*
X75702412Y-40491557D01*
X75891816Y-40395051D01*
X76014124Y-40306190D01*
X76063786Y-40270109D01*
X76063788Y-40270106D01*
X76063792Y-40270104D01*
X76214104Y-40119792D01*
X76214106Y-40119788D01*
X76214109Y-40119786D01*
X76323086Y-39969789D01*
X76339051Y-39947816D01*
X76435557Y-39758412D01*
X76501246Y-39556243D01*
X76534500Y-39346287D01*
X76534500Y-39133713D01*
X76524211Y-39068753D01*
X76517161Y-39024239D01*
X76514860Y-39009713D01*
X82596500Y-39009713D01*
X82596500Y-39222287D01*
X82629754Y-39432243D01*
X82670602Y-39557961D01*
X82695444Y-39634414D01*
X82791951Y-39823820D01*
X82916890Y-39995786D01*
X83067213Y-40146109D01*
X83239179Y-40271048D01*
X83239181Y-40271049D01*
X83239184Y-40271051D01*
X83428588Y-40367557D01*
X83630757Y-40433246D01*
X83840713Y-40466500D01*
X83840714Y-40466500D01*
X84053286Y-40466500D01*
X84053287Y-40466500D01*
X84263243Y-40433246D01*
X84465412Y-40367557D01*
X84654816Y-40271051D01*
X84724131Y-40220691D01*
X84826786Y-40146109D01*
X84826788Y-40146106D01*
X84826792Y-40146104D01*
X84977104Y-39995792D01*
X84977106Y-39995788D01*
X84977109Y-39995786D01*
X85102048Y-39823820D01*
X85102047Y-39823820D01*
X85102051Y-39823816D01*
X85198557Y-39634412D01*
X85264246Y-39432243D01*
X85297500Y-39222287D01*
X85297500Y-39009713D01*
X85264246Y-38799757D01*
X85198557Y-38597588D01*
X85102051Y-38408184D01*
X85102049Y-38408181D01*
X85102048Y-38408179D01*
X84977109Y-38236213D01*
X84826786Y-38085890D01*
X84654820Y-37960951D01*
X84465414Y-37864444D01*
X84465413Y-37864443D01*
X84465412Y-37864443D01*
X84263243Y-37798754D01*
X84263241Y-37798753D01*
X84263240Y-37798753D01*
X84101957Y-37773208D01*
X84053287Y-37765500D01*
X83840713Y-37765500D01*
X83792042Y-37773208D01*
X83630760Y-37798753D01*
X83428585Y-37864444D01*
X83239179Y-37960951D01*
X83067213Y-38085890D01*
X82916890Y-38236213D01*
X82791951Y-38408179D01*
X82695444Y-38597585D01*
X82629753Y-38799760D01*
X82596500Y-39009713D01*
X76514860Y-39009713D01*
X76501246Y-38923760D01*
X76501246Y-38923757D01*
X76435557Y-38721588D01*
X76339051Y-38532184D01*
X76339049Y-38532181D01*
X76339048Y-38532179D01*
X76214109Y-38360213D01*
X76100569Y-38246673D01*
X76067084Y-38185350D01*
X76072068Y-38115658D01*
X76113940Y-38059725D01*
X76144915Y-38042810D01*
X76276331Y-37993796D01*
X76391546Y-37907546D01*
X76477796Y-37792331D01*
X76528091Y-37657483D01*
X76534500Y-37597873D01*
X76534500Y-37215983D01*
X85780500Y-37215983D01*
X85780500Y-41016001D01*
X85780501Y-41016018D01*
X85791000Y-41118796D01*
X85791001Y-41118799D01*
X85839708Y-41265786D01*
X85846186Y-41285334D01*
X85938288Y-41434656D01*
X86062344Y-41558712D01*
X86211666Y-41650814D01*
X86378203Y-41705999D01*
X86480991Y-41716500D01*
X89241008Y-41716499D01*
X89343797Y-41705999D01*
X89510334Y-41650814D01*
X89659656Y-41558712D01*
X89783712Y-41434656D01*
X89875814Y-41285334D01*
X89930999Y-41118797D01*
X89941500Y-41016009D01*
X89941499Y-40969472D01*
X89961182Y-40902437D01*
X90013985Y-40856681D01*
X90083144Y-40846736D01*
X90146700Y-40875759D01*
X90163875Y-40893988D01*
X90253439Y-41010710D01*
X90253445Y-41010717D01*
X90446282Y-41203554D01*
X90446289Y-41203560D01*
X90662656Y-41369584D01*
X90898840Y-41505945D01*
X90898855Y-41505952D01*
X90983585Y-41541048D01*
X91150810Y-41610315D01*
X91414244Y-41680902D01*
X91684637Y-41716500D01*
X91684644Y-41716500D01*
X91957356Y-41716500D01*
X91957363Y-41716500D01*
X92227756Y-41680902D01*
X92491190Y-41610315D01*
X92743156Y-41505947D01*
X92979344Y-41369584D01*
X93195712Y-41203559D01*
X93388559Y-41010712D01*
X93554584Y-40794344D01*
X93690947Y-40558156D01*
X93795315Y-40306190D01*
X93865902Y-40042756D01*
X93901500Y-39772363D01*
X93901500Y-39009713D01*
X94280500Y-39009713D01*
X94280500Y-39222287D01*
X94313754Y-39432243D01*
X94354602Y-39557961D01*
X94379444Y-39634414D01*
X94475951Y-39823820D01*
X94600890Y-39995786D01*
X94751213Y-40146109D01*
X94923179Y-40271048D01*
X94923181Y-40271049D01*
X94923184Y-40271051D01*
X95112588Y-40367557D01*
X95314757Y-40433246D01*
X95524713Y-40466500D01*
X95524714Y-40466500D01*
X95737286Y-40466500D01*
X95737287Y-40466500D01*
X95947243Y-40433246D01*
X96149412Y-40367557D01*
X96338816Y-40271051D01*
X96408131Y-40220691D01*
X96510786Y-40146109D01*
X96510788Y-40146106D01*
X96510792Y-40146104D01*
X96613592Y-40043304D01*
X120892500Y-40043304D01*
X120892500Y-40220695D01*
X120927103Y-40394658D01*
X120927106Y-40394667D01*
X120994983Y-40558540D01*
X120994990Y-40558553D01*
X121093535Y-40706034D01*
X121093538Y-40706038D01*
X121218961Y-40831461D01*
X121218965Y-40831464D01*
X121366446Y-40930009D01*
X121366459Y-40930016D01*
X121461726Y-40969476D01*
X121530334Y-40997894D01*
X121530336Y-40997894D01*
X121530341Y-40997896D01*
X121704304Y-41032499D01*
X121704307Y-41032500D01*
X121704309Y-41032500D01*
X121881693Y-41032500D01*
X121881694Y-41032499D01*
X121939682Y-41020964D01*
X122055658Y-40997896D01*
X122055661Y-40997894D01*
X122055666Y-40997894D01*
X122219547Y-40930013D01*
X122367035Y-40831464D01*
X122454681Y-40743817D01*
X122516002Y-40710334D01*
X122542361Y-40707500D01*
X124218639Y-40707500D01*
X124285678Y-40727185D01*
X124306315Y-40743814D01*
X124356844Y-40794343D01*
X124393966Y-40831465D01*
X124541446Y-40930009D01*
X124541459Y-40930016D01*
X124636726Y-40969476D01*
X124705334Y-40997894D01*
X124705336Y-40997894D01*
X124705341Y-40997896D01*
X124879304Y-41032499D01*
X124879307Y-41032500D01*
X124879309Y-41032500D01*
X125056693Y-41032500D01*
X125056694Y-41032499D01*
X125114682Y-41020964D01*
X125230658Y-40997896D01*
X125230661Y-40997894D01*
X125230666Y-40997894D01*
X125394547Y-40930013D01*
X125542035Y-40831464D01*
X125667464Y-40706035D01*
X125766013Y-40558547D01*
X125833894Y-40394666D01*
X125839287Y-40367557D01*
X125856760Y-40279713D01*
X130094500Y-40279713D01*
X130094500Y-40492286D01*
X130110055Y-40590500D01*
X130127754Y-40702243D01*
X130192801Y-40902437D01*
X130193444Y-40904414D01*
X130289951Y-41093820D01*
X130414890Y-41265786D01*
X130565213Y-41416109D01*
X130737179Y-41541048D01*
X130737181Y-41541049D01*
X130737184Y-41541051D01*
X130926588Y-41637557D01*
X131128757Y-41703246D01*
X131338713Y-41736500D01*
X131338714Y-41736500D01*
X131551286Y-41736500D01*
X131551287Y-41736500D01*
X131761243Y-41703246D01*
X131963412Y-41637557D01*
X132152816Y-41541051D01*
X132283389Y-41446185D01*
X132324786Y-41416109D01*
X132324788Y-41416106D01*
X132324792Y-41416104D01*
X132475104Y-41265792D01*
X132475106Y-41265788D01*
X132475109Y-41265786D01*
X132600048Y-41093820D01*
X132600047Y-41093820D01*
X132600051Y-41093816D01*
X132696557Y-40904412D01*
X132714028Y-40850641D01*
X141340500Y-40850641D01*
X141340500Y-41149358D01*
X141373943Y-41446172D01*
X141373945Y-41446184D01*
X141440413Y-41737403D01*
X141440417Y-41737415D01*
X141539072Y-42019353D01*
X141668674Y-42288474D01*
X141827600Y-42541403D01*
X141827601Y-42541405D01*
X142013833Y-42774934D01*
X142225065Y-42986166D01*
X142458594Y-43172398D01*
X142458597Y-43172399D01*
X142458599Y-43172401D01*
X142711523Y-43331324D01*
X142980650Y-43460929D01*
X143192400Y-43535023D01*
X143262584Y-43559582D01*
X143262596Y-43559586D01*
X143553815Y-43626055D01*
X143850642Y-43659499D01*
X143850643Y-43659500D01*
X143850646Y-43659500D01*
X144149357Y-43659500D01*
X144149357Y-43659499D01*
X144446185Y-43626055D01*
X144737404Y-43559586D01*
X145019350Y-43460929D01*
X145288477Y-43331324D01*
X145541401Y-43172401D01*
X145550940Y-43164794D01*
X145774934Y-42986166D01*
X145774936Y-42986163D01*
X145774941Y-42986160D01*
X145986160Y-42774941D01*
X145997664Y-42760516D01*
X146172398Y-42541405D01*
X146172399Y-42541403D01*
X146172401Y-42541401D01*
X146331324Y-42288477D01*
X146460929Y-42019350D01*
X146559586Y-41737404D01*
X146626055Y-41446185D01*
X146659500Y-41149354D01*
X146659500Y-40850646D01*
X146626055Y-40553815D01*
X146559586Y-40262596D01*
X146460929Y-39980650D01*
X146331324Y-39711523D01*
X146172401Y-39458599D01*
X146172399Y-39458596D01*
X146172398Y-39458594D01*
X145986166Y-39225065D01*
X145774934Y-39013833D01*
X145541405Y-38827601D01*
X145541403Y-38827600D01*
X145288474Y-38668674D01*
X145019353Y-38539072D01*
X144737415Y-38440417D01*
X144737403Y-38440413D01*
X144512653Y-38389115D01*
X144446185Y-38373945D01*
X144446181Y-38373944D01*
X144446172Y-38373943D01*
X144149358Y-38340500D01*
X144149354Y-38340500D01*
X143850646Y-38340500D01*
X143850641Y-38340500D01*
X143553827Y-38373943D01*
X143553815Y-38373945D01*
X143262596Y-38440413D01*
X143262584Y-38440417D01*
X142980646Y-38539072D01*
X142711525Y-38668674D01*
X142458596Y-38827600D01*
X142458594Y-38827601D01*
X142225065Y-39013833D01*
X142013833Y-39225065D01*
X141827601Y-39458594D01*
X141827600Y-39458596D01*
X141668674Y-39711525D01*
X141539072Y-39980646D01*
X141440417Y-40262584D01*
X141440413Y-40262596D01*
X141373945Y-40553815D01*
X141373943Y-40553827D01*
X141340500Y-40850641D01*
X132714028Y-40850641D01*
X132762246Y-40702243D01*
X132795500Y-40492287D01*
X132795500Y-40279713D01*
X132762246Y-40069757D01*
X132696557Y-39867588D01*
X132600051Y-39678184D01*
X132600049Y-39678181D01*
X132600048Y-39678179D01*
X132475109Y-39506213D01*
X132324786Y-39355890D01*
X132152820Y-39230951D01*
X131963414Y-39134444D01*
X131963413Y-39134443D01*
X131963412Y-39134443D01*
X131761243Y-39068754D01*
X131761241Y-39068753D01*
X131761240Y-39068753D01*
X131599957Y-39043208D01*
X131551287Y-39035500D01*
X131338713Y-39035500D01*
X131290042Y-39043208D01*
X131128760Y-39068753D01*
X130926585Y-39134444D01*
X130737179Y-39230951D01*
X130565213Y-39355890D01*
X130414890Y-39506213D01*
X130289951Y-39678179D01*
X130193444Y-39867585D01*
X130127753Y-40069760D01*
X130094500Y-40279713D01*
X125856760Y-40279713D01*
X125862541Y-40250650D01*
X125862541Y-40250648D01*
X125868500Y-40220692D01*
X125868500Y-40043306D01*
X125868499Y-40043304D01*
X125833896Y-39869341D01*
X125833893Y-39869332D01*
X125833169Y-39867585D01*
X125815040Y-39823816D01*
X125766016Y-39705459D01*
X125766009Y-39705446D01*
X125667464Y-39557965D01*
X125667461Y-39557961D01*
X125542038Y-39432538D01*
X125542034Y-39432535D01*
X125394553Y-39333990D01*
X125394540Y-39333983D01*
X125230667Y-39266106D01*
X125230658Y-39266103D01*
X125056694Y-39231500D01*
X125056691Y-39231500D01*
X124879309Y-39231500D01*
X124879306Y-39231500D01*
X124705341Y-39266103D01*
X124705332Y-39266106D01*
X124541459Y-39333983D01*
X124541446Y-39333990D01*
X124393966Y-39432534D01*
X124367907Y-39458594D01*
X124306318Y-39520182D01*
X124244998Y-39553666D01*
X124218639Y-39556500D01*
X122542361Y-39556500D01*
X122475322Y-39536815D01*
X122454684Y-39520185D01*
X122367035Y-39432536D01*
X122367034Y-39432535D01*
X122367033Y-39432534D01*
X122219553Y-39333990D01*
X122219540Y-39333983D01*
X122055667Y-39266106D01*
X122055658Y-39266103D01*
X121881694Y-39231500D01*
X121881691Y-39231500D01*
X121704309Y-39231500D01*
X121704306Y-39231500D01*
X121530341Y-39266103D01*
X121530332Y-39266106D01*
X121366459Y-39333983D01*
X121366446Y-39333990D01*
X121218965Y-39432535D01*
X121218961Y-39432538D01*
X121093538Y-39557961D01*
X121093535Y-39557965D01*
X120994990Y-39705446D01*
X120994983Y-39705459D01*
X120927106Y-39869332D01*
X120927103Y-39869341D01*
X120892500Y-40043304D01*
X96613592Y-40043304D01*
X96661104Y-39995792D01*
X96662717Y-39993571D01*
X96683962Y-39964332D01*
X96786048Y-39823820D01*
X96786047Y-39823820D01*
X96786051Y-39823816D01*
X96882557Y-39634412D01*
X96948246Y-39432243D01*
X96981500Y-39222287D01*
X96981500Y-39009713D01*
X96948246Y-38799757D01*
X96882557Y-38597588D01*
X96786051Y-38408184D01*
X96786049Y-38408181D01*
X96786048Y-38408179D01*
X96661109Y-38236213D01*
X96510786Y-38085890D01*
X96338820Y-37960951D01*
X96149414Y-37864444D01*
X96149413Y-37864443D01*
X96149412Y-37864443D01*
X95947243Y-37798754D01*
X95947241Y-37798753D01*
X95947240Y-37798753D01*
X95785957Y-37773208D01*
X95737287Y-37765500D01*
X95524713Y-37765500D01*
X95476042Y-37773208D01*
X95314760Y-37798753D01*
X95112585Y-37864444D01*
X94923179Y-37960951D01*
X94751213Y-38085890D01*
X94600890Y-38236213D01*
X94475951Y-38408179D01*
X94379444Y-38597585D01*
X94313753Y-38799760D01*
X94280500Y-39009713D01*
X93901500Y-39009713D01*
X93901500Y-38459637D01*
X93865902Y-38189244D01*
X93795315Y-37925810D01*
X93690947Y-37673844D01*
X93681500Y-37657482D01*
X93554584Y-37437656D01*
X93388560Y-37221289D01*
X93388554Y-37221282D01*
X93195717Y-37028445D01*
X93195710Y-37028439D01*
X92979343Y-36862415D01*
X92743159Y-36726054D01*
X92743144Y-36726047D01*
X92539247Y-36641590D01*
X92491190Y-36621685D01*
X92491188Y-36621684D01*
X92491187Y-36621684D01*
X92487836Y-36620786D01*
X92487835Y-36620786D01*
X92227756Y-36551098D01*
X92227755Y-36551097D01*
X92227752Y-36551097D01*
X91957372Y-36515501D01*
X91957369Y-36515500D01*
X91957363Y-36515500D01*
X91684637Y-36515500D01*
X91684631Y-36515500D01*
X91684627Y-36515501D01*
X91414245Y-36551097D01*
X91150811Y-36621684D01*
X90898855Y-36726047D01*
X90898840Y-36726054D01*
X90662656Y-36862415D01*
X90446289Y-37028439D01*
X90446282Y-37028445D01*
X90253445Y-37221282D01*
X90253439Y-37221289D01*
X90163875Y-37338012D01*
X90107447Y-37379215D01*
X90037701Y-37383370D01*
X89976781Y-37349158D01*
X89944028Y-37287440D01*
X89941499Y-37262526D01*
X89941499Y-37215998D01*
X89941498Y-37215981D01*
X89930999Y-37113203D01*
X89930998Y-37113200D01*
X89902913Y-37028445D01*
X89875814Y-36946666D01*
X89783712Y-36797344D01*
X89659656Y-36673288D01*
X89520772Y-36587624D01*
X89510336Y-36581187D01*
X89510331Y-36581185D01*
X89508862Y-36580698D01*
X89343797Y-36526001D01*
X89343795Y-36526000D01*
X89241010Y-36515500D01*
X86480998Y-36515500D01*
X86480981Y-36515501D01*
X86378203Y-36526000D01*
X86378200Y-36526001D01*
X86211668Y-36581185D01*
X86211663Y-36581187D01*
X86062342Y-36673289D01*
X85938289Y-36797342D01*
X85846187Y-36946663D01*
X85846186Y-36946666D01*
X85791001Y-37113203D01*
X85791001Y-37113204D01*
X85791000Y-37113204D01*
X85780500Y-37215983D01*
X76534500Y-37215983D01*
X76534499Y-36684095D01*
X76534499Y-35802129D01*
X76534498Y-35802123D01*
X76534497Y-35802116D01*
X76528091Y-35742517D01*
X76484630Y-35625993D01*
X76477797Y-35607671D01*
X76477793Y-35607664D01*
X76426123Y-35538643D01*
X76391546Y-35492454D01*
X76276331Y-35406204D01*
X76276328Y-35406202D01*
X76141482Y-35355908D01*
X76141483Y-35355908D01*
X76081883Y-35349501D01*
X76081881Y-35349500D01*
X76081873Y-35349500D01*
X76081864Y-35349500D01*
X74286129Y-35349500D01*
X74286123Y-35349501D01*
X74226516Y-35355908D01*
X74091671Y-35406202D01*
X74091664Y-35406206D01*
X73976455Y-35492452D01*
X73976452Y-35492455D01*
X73890206Y-35607664D01*
X73890202Y-35607671D01*
X73839908Y-35742517D01*
X73835174Y-35786554D01*
X73833501Y-35802123D01*
X73833500Y-35802135D01*
X49530500Y-35802135D01*
X49530500Y-34718759D01*
X63965500Y-34718759D01*
X63965500Y-34877240D01*
X63996414Y-35032656D01*
X63996416Y-35032664D01*
X64057059Y-35179071D01*
X64057064Y-35179080D01*
X64145103Y-35310838D01*
X64145106Y-35310842D01*
X64257157Y-35422893D01*
X64257161Y-35422896D01*
X64388919Y-35510935D01*
X64388925Y-35510938D01*
X64388926Y-35510939D01*
X64535336Y-35571584D01*
X64690759Y-35602499D01*
X64690763Y-35602500D01*
X64690764Y-35602500D01*
X64849237Y-35602500D01*
X64849238Y-35602499D01*
X65004664Y-35571584D01*
X65151074Y-35510939D01*
X65282839Y-35422896D01*
X65394896Y-35310839D01*
X65482939Y-35179074D01*
X65543584Y-35032664D01*
X65574500Y-34877236D01*
X65574500Y-34718764D01*
X65574499Y-34718759D01*
X66505500Y-34718759D01*
X66505500Y-34877240D01*
X66536414Y-35032656D01*
X66536416Y-35032664D01*
X66597059Y-35179071D01*
X66597064Y-35179080D01*
X66685103Y-35310838D01*
X66685106Y-35310842D01*
X66797157Y-35422893D01*
X66797161Y-35422896D01*
X66928919Y-35510935D01*
X66928925Y-35510938D01*
X66928926Y-35510939D01*
X67075336Y-35571584D01*
X67230759Y-35602499D01*
X67230763Y-35602500D01*
X67230764Y-35602500D01*
X67389237Y-35602500D01*
X67389238Y-35602499D01*
X67544664Y-35571584D01*
X67691074Y-35510939D01*
X67822839Y-35422896D01*
X67918982Y-35326753D01*
X129460000Y-35326753D01*
X129460000Y-35539246D01*
X129493242Y-35749127D01*
X129493242Y-35749130D01*
X129558904Y-35951217D01*
X129655375Y-36140550D01*
X129694728Y-36194716D01*
X130327037Y-35562408D01*
X130344075Y-35625993D01*
X130409901Y-35740007D01*
X130502993Y-35833099D01*
X130617007Y-35898925D01*
X130680590Y-35915962D01*
X130048282Y-36548269D01*
X130048282Y-36548270D01*
X130102449Y-36587624D01*
X130291782Y-36684095D01*
X130493870Y-36749757D01*
X130703754Y-36783000D01*
X130916246Y-36783000D01*
X131126127Y-36749757D01*
X131126130Y-36749757D01*
X131328217Y-36684095D01*
X131517554Y-36587622D01*
X131571716Y-36548270D01*
X131571717Y-36548270D01*
X130939408Y-35915962D01*
X131002993Y-35898925D01*
X131117007Y-35833099D01*
X131210099Y-35740007D01*
X131275925Y-35625993D01*
X131292962Y-35562408D01*
X131925270Y-36194717D01*
X131925270Y-36194716D01*
X131964622Y-36140554D01*
X131969514Y-36130954D01*
X132017488Y-36080157D01*
X132085308Y-36063361D01*
X132151444Y-36085897D01*
X132190486Y-36130954D01*
X132195379Y-36140558D01*
X132320272Y-36312459D01*
X132320276Y-36312464D01*
X132470535Y-36462723D01*
X132470540Y-36462727D01*
X132642442Y-36587620D01*
X132831782Y-36684095D01*
X133033871Y-36749757D01*
X133100000Y-36760231D01*
X133100000Y-35866012D01*
X133157007Y-35898925D01*
X133284174Y-35933000D01*
X133415826Y-35933000D01*
X133542993Y-35898925D01*
X133600000Y-35866012D01*
X133600000Y-36760230D01*
X133666126Y-36749757D01*
X133666129Y-36749757D01*
X133868217Y-36684095D01*
X134057557Y-36587620D01*
X134229459Y-36462727D01*
X134229464Y-36462723D01*
X134379723Y-36312464D01*
X134379727Y-36312459D01*
X134504620Y-36140557D01*
X134601095Y-35951217D01*
X134666757Y-35749129D01*
X134666757Y-35749126D01*
X134677231Y-35683000D01*
X133783012Y-35683000D01*
X133815925Y-35625993D01*
X133850000Y-35498826D01*
X133850000Y-35367174D01*
X133815925Y-35240007D01*
X133783012Y-35183000D01*
X134677231Y-35183000D01*
X134666757Y-35116873D01*
X134666757Y-35116870D01*
X134601095Y-34914782D01*
X134504620Y-34725442D01*
X134379727Y-34553540D01*
X134379723Y-34553535D01*
X134229464Y-34403276D01*
X134229459Y-34403272D01*
X134057557Y-34278379D01*
X133868215Y-34181903D01*
X133666124Y-34116241D01*
X133600000Y-34105768D01*
X133600000Y-34999988D01*
X133542993Y-34967075D01*
X133415826Y-34933000D01*
X133284174Y-34933000D01*
X133157007Y-34967075D01*
X133100000Y-34999988D01*
X133100000Y-34105768D01*
X133099999Y-34105768D01*
X133033875Y-34116241D01*
X132831784Y-34181903D01*
X132642442Y-34278379D01*
X132470540Y-34403272D01*
X132470535Y-34403276D01*
X132320276Y-34553535D01*
X132320272Y-34553540D01*
X132195377Y-34725444D01*
X132190484Y-34735048D01*
X132142509Y-34785844D01*
X132074688Y-34802638D01*
X132008553Y-34780100D01*
X131969516Y-34735048D01*
X131964626Y-34725452D01*
X131925270Y-34671282D01*
X131925269Y-34671282D01*
X131292962Y-35303590D01*
X131275925Y-35240007D01*
X131210099Y-35125993D01*
X131117007Y-35032901D01*
X131002993Y-34967075D01*
X130939409Y-34950037D01*
X131571716Y-34317728D01*
X131517550Y-34278375D01*
X131328217Y-34181904D01*
X131126129Y-34116242D01*
X130916246Y-34083000D01*
X130703754Y-34083000D01*
X130493872Y-34116242D01*
X130493869Y-34116242D01*
X130291782Y-34181904D01*
X130102439Y-34278380D01*
X130048282Y-34317727D01*
X130048282Y-34317728D01*
X130680591Y-34950037D01*
X130617007Y-34967075D01*
X130502993Y-35032901D01*
X130409901Y-35125993D01*
X130344075Y-35240007D01*
X130327037Y-35303591D01*
X129694728Y-34671282D01*
X129694727Y-34671282D01*
X129655380Y-34725439D01*
X129558904Y-34914782D01*
X129493242Y-35116869D01*
X129493242Y-35116872D01*
X129460000Y-35326753D01*
X67918982Y-35326753D01*
X67934896Y-35310839D01*
X68022939Y-35179074D01*
X68083584Y-35032664D01*
X68114500Y-34877236D01*
X68114500Y-34718764D01*
X68083584Y-34563336D01*
X68022939Y-34416926D01*
X68022938Y-34416925D01*
X68022935Y-34416919D01*
X67934896Y-34285161D01*
X67934893Y-34285157D01*
X67822842Y-34173106D01*
X67822838Y-34173103D01*
X67691080Y-34085064D01*
X67691071Y-34085059D01*
X67544664Y-34024416D01*
X67544656Y-34024414D01*
X67389240Y-33993500D01*
X67389236Y-33993500D01*
X67230764Y-33993500D01*
X67230759Y-33993500D01*
X67075343Y-34024414D01*
X67075335Y-34024416D01*
X66928928Y-34085059D01*
X66928919Y-34085064D01*
X66797161Y-34173103D01*
X66797157Y-34173106D01*
X66685106Y-34285157D01*
X66685103Y-34285161D01*
X66597064Y-34416919D01*
X66597059Y-34416928D01*
X66536416Y-34563335D01*
X66536414Y-34563343D01*
X66505500Y-34718759D01*
X65574499Y-34718759D01*
X65543584Y-34563336D01*
X65482939Y-34416926D01*
X65482938Y-34416925D01*
X65482935Y-34416919D01*
X65394896Y-34285161D01*
X65394893Y-34285157D01*
X65282842Y-34173106D01*
X65282838Y-34173103D01*
X65151080Y-34085064D01*
X65151071Y-34085059D01*
X65004664Y-34024416D01*
X65004656Y-34024414D01*
X64849240Y-33993500D01*
X64849236Y-33993500D01*
X64690764Y-33993500D01*
X64690759Y-33993500D01*
X64535343Y-34024414D01*
X64535335Y-34024416D01*
X64388928Y-34085059D01*
X64388919Y-34085064D01*
X64257161Y-34173103D01*
X64257157Y-34173106D01*
X64145106Y-34285157D01*
X64145103Y-34285161D01*
X64057064Y-34416919D01*
X64057059Y-34416928D01*
X63996416Y-34563335D01*
X63996414Y-34563343D01*
X63965500Y-34718759D01*
X49530500Y-34718759D01*
X49530500Y-33144500D01*
X49550185Y-33077461D01*
X49602989Y-33031706D01*
X49654500Y-33020500D01*
X148345500Y-33020500D01*
X148412539Y-33040185D01*
G37*
G04 #@! TD.AperFunction*
M02*
